<mxfile host="Electron" modified="2023-04-27T04:55:55.700Z" agent="Mozilla/5.0 (Windows NT 10.0; Win64; x64) AppleWebKit/537.36 (KHTML, like Gecko) draw.io/21.2.1 Chrome/112.0.5615.87 Electron/24.1.2 Safari/537.36" etag="8FojbDdesby1bqFLV1SW" version="21.2.1" type="device">
  <diagram name="第 1 页" id="MXNxYJOyKmliwxbfTxYx">
    <mxGraphModel dx="640" dy="1226" grid="1" gridSize="10" guides="1" tooltips="1" connect="1" arrows="1" fold="1" page="1" pageScale="1" pageWidth="1100" pageHeight="850" background="#FFFFFF" math="0" shadow="0">
      <root>
        <mxCell id="0" />
        <mxCell id="1" parent="0" />
        <mxCell id="_QYD-WO2QvrmHmzMgkhw-1" value="H" style="whiteSpace=wrap;html=1;aspect=fixed;hachureGap=4;fontFamily=Courier New;fontSize=30;sketch=1;curveFitting=1;jiggle=2;rounded=0;fontStyle=1;fillColor=#f5f5f5;strokeColor=#666666;fontColor=#333333;" vertex="1" parent="1">
          <mxGeometry x="100" y="170" width="40" height="40" as="geometry" />
        </mxCell>
        <mxCell id="_QYD-WO2QvrmHmzMgkhw-2" value="E" style="whiteSpace=wrap;html=1;aspect=fixed;hachureGap=4;fontFamily=Courier New;fontSize=30;sketch=1;curveFitting=1;jiggle=2;rounded=0;fontStyle=1;fillColor=#f5f5f5;strokeColor=#666666;fontColor=#333333;" vertex="1" parent="1">
          <mxGeometry x="140" y="170" width="40" height="40" as="geometry" />
        </mxCell>
        <mxCell id="_QYD-WO2QvrmHmzMgkhw-3" value="R" style="whiteSpace=wrap;html=1;aspect=fixed;hachureGap=4;fontFamily=Courier New;fontSize=30;sketch=1;curveFitting=1;jiggle=2;rounded=0;fontStyle=1;fillColor=#f5f5f5;strokeColor=#666666;fontColor=#333333;" vertex="1" parent="1">
          <mxGeometry x="180" y="170" width="40" height="40" as="geometry" />
        </mxCell>
        <mxCell id="_QYD-WO2QvrmHmzMgkhw-4" value="E" style="whiteSpace=wrap;html=1;aspect=fixed;hachureGap=4;fontFamily=Courier New;fontSize=30;sketch=1;curveFitting=1;jiggle=2;rounded=0;fontStyle=1;fillColor=#f5f5f5;strokeColor=#666666;fontColor=#333333;" vertex="1" parent="1">
          <mxGeometry x="220" y="170" width="40" height="40" as="geometry" />
        </mxCell>
        <mxCell id="_QYD-WO2QvrmHmzMgkhw-5" value="_" style="whiteSpace=wrap;html=1;aspect=fixed;hachureGap=4;fontFamily=Courier New;fontSize=30;sketch=1;curveFitting=1;jiggle=2;rounded=0;fontStyle=1;fillColor=#f5f5f5;strokeColor=#666666;fontColor=#333333;" vertex="1" parent="1">
          <mxGeometry x="260" y="170" width="40" height="40" as="geometry" />
        </mxCell>
        <mxCell id="_QYD-WO2QvrmHmzMgkhw-6" value="I" style="whiteSpace=wrap;html=1;aspect=fixed;hachureGap=4;fontFamily=Courier New;fontSize=30;sketch=1;curveFitting=1;jiggle=2;rounded=0;fontStyle=1;fillColor=#f5f5f5;strokeColor=#666666;fontColor=#333333;" vertex="1" parent="1">
          <mxGeometry x="300" y="170" width="40" height="40" as="geometry" />
        </mxCell>
        <mxCell id="_QYD-WO2QvrmHmzMgkhw-7" value="S" style="whiteSpace=wrap;html=1;aspect=fixed;hachureGap=4;fontFamily=Courier New;fontSize=30;sketch=1;curveFitting=1;jiggle=2;rounded=0;fontStyle=1;fillColor=#f5f5f5;strokeColor=#666666;fontColor=#333333;" vertex="1" parent="1">
          <mxGeometry x="340" y="170" width="40" height="40" as="geometry" />
        </mxCell>
        <mxCell id="_QYD-WO2QvrmHmzMgkhw-8" value="_" style="whiteSpace=wrap;html=1;aspect=fixed;hachureGap=4;fontFamily=Courier New;fontSize=30;sketch=1;curveFitting=1;jiggle=2;rounded=0;fontStyle=1;fillColor=#f5f5f5;strokeColor=#666666;fontColor=#333333;" vertex="1" parent="1">
          <mxGeometry x="380" y="170" width="40" height="40" as="geometry" />
        </mxCell>
        <mxCell id="_QYD-WO2QvrmHmzMgkhw-9" value="A" style="whiteSpace=wrap;html=1;aspect=fixed;hachureGap=4;fontFamily=Courier New;fontSize=30;sketch=1;curveFitting=1;jiggle=2;rounded=0;fontStyle=1;fillColor=#f5f5f5;strokeColor=#666666;fontColor=#333333;" vertex="1" parent="1">
          <mxGeometry x="420" y="170" width="40" height="40" as="geometry" />
        </mxCell>
        <mxCell id="_QYD-WO2QvrmHmzMgkhw-10" value="_" style="whiteSpace=wrap;html=1;aspect=fixed;hachureGap=4;fontFamily=Courier New;fontSize=30;sketch=1;curveFitting=1;jiggle=2;rounded=0;fontStyle=1;fillColor=#f5f5f5;strokeColor=#666666;fontColor=#333333;" vertex="1" parent="1">
          <mxGeometry x="460" y="170" width="40" height="40" as="geometry" />
        </mxCell>
        <mxCell id="_QYD-WO2QvrmHmzMgkhw-11" value="S" style="whiteSpace=wrap;html=1;aspect=fixed;hachureGap=4;fontFamily=Courier New;fontSize=30;sketch=1;curveFitting=1;jiggle=2;rounded=0;fontStyle=1;fillColor=#f5f5f5;strokeColor=#666666;fontColor=#333333;" vertex="1" parent="1">
          <mxGeometry x="500" y="170" width="40" height="40" as="geometry" />
        </mxCell>
        <mxCell id="_QYD-WO2QvrmHmzMgkhw-12" value="I" style="whiteSpace=wrap;html=1;aspect=fixed;hachureGap=4;fontFamily=Courier New;fontSize=30;sketch=1;curveFitting=1;jiggle=2;rounded=0;fontStyle=1;fillColor=#f5f5f5;strokeColor=#666666;fontColor=#333333;" vertex="1" parent="1">
          <mxGeometry x="540" y="170" width="40" height="40" as="geometry" />
        </mxCell>
        <mxCell id="_QYD-WO2QvrmHmzMgkhw-13" value="M" style="whiteSpace=wrap;html=1;aspect=fixed;hachureGap=4;fontFamily=Courier New;fontSize=30;sketch=1;curveFitting=1;jiggle=2;rounded=0;fontStyle=1;fillColor=#f5f5f5;strokeColor=#666666;fontColor=#333333;" vertex="1" parent="1">
          <mxGeometry x="580" y="170" width="40" height="40" as="geometry" />
        </mxCell>
        <mxCell id="_QYD-WO2QvrmHmzMgkhw-14" value="P" style="whiteSpace=wrap;html=1;aspect=fixed;hachureGap=4;fontFamily=Courier New;fontSize=30;sketch=1;curveFitting=1;jiggle=2;rounded=0;fontStyle=1;fillColor=#f5f5f5;strokeColor=#666666;fontColor=#333333;" vertex="1" parent="1">
          <mxGeometry x="620" y="170" width="40" height="40" as="geometry" />
        </mxCell>
        <mxCell id="_QYD-WO2QvrmHmzMgkhw-15" value="L" style="whiteSpace=wrap;html=1;aspect=fixed;hachureGap=4;fontFamily=Courier New;fontSize=30;sketch=1;curveFitting=1;jiggle=2;rounded=0;fontStyle=1;fillColor=#f5f5f5;strokeColor=#666666;fontColor=#333333;" vertex="1" parent="1">
          <mxGeometry x="660" y="170" width="40" height="40" as="geometry" />
        </mxCell>
        <mxCell id="_QYD-WO2QvrmHmzMgkhw-16" value="E" style="whiteSpace=wrap;html=1;aspect=fixed;hachureGap=4;fontFamily=Courier New;fontSize=30;sketch=1;curveFitting=1;jiggle=2;rounded=0;fontStyle=1;fillColor=#f5f5f5;strokeColor=#666666;fontColor=#333333;" vertex="1" parent="1">
          <mxGeometry x="700" y="170" width="40" height="40" as="geometry" />
        </mxCell>
        <mxCell id="_QYD-WO2QvrmHmzMgkhw-33" value="H" style="whiteSpace=wrap;html=1;aspect=fixed;hachureGap=4;fontFamily=Courier New;fontSize=30;sketch=1;curveFitting=1;jiggle=2;rounded=0;fontStyle=1;fillColor=#f5f5f5;strokeColor=#666666;fontColor=#333333;" vertex="1" parent="1">
          <mxGeometry x="50" y="-320" width="40" height="40" as="geometry" />
        </mxCell>
        <mxCell id="_QYD-WO2QvrmHmzMgkhw-34" value="" style="whiteSpace=wrap;html=1;aspect=fixed;hachureGap=4;fontFamily=Courier New;fontSize=30;sketch=1;curveFitting=1;jiggle=2;rounded=0;fontStyle=1;fillColor=#f5f5f5;strokeColor=#666666;fontColor=#333333;" vertex="1" parent="1">
          <mxGeometry x="90" y="-320" width="40" height="40" as="geometry" />
        </mxCell>
        <mxCell id="_QYD-WO2QvrmHmzMgkhw-35" value="" style="whiteSpace=wrap;html=1;aspect=fixed;hachureGap=4;fontFamily=Courier New;fontSize=30;sketch=1;curveFitting=1;jiggle=2;rounded=0;fontStyle=1;fillColor=#f5f5f5;strokeColor=#666666;fontColor=#333333;" vertex="1" parent="1">
          <mxGeometry x="130" y="-320" width="40" height="40" as="geometry" />
        </mxCell>
        <mxCell id="_QYD-WO2QvrmHmzMgkhw-36" value="" style="whiteSpace=wrap;html=1;aspect=fixed;hachureGap=4;fontFamily=Courier New;fontSize=30;sketch=1;curveFitting=1;jiggle=2;rounded=0;fontStyle=1;fillColor=#f5f5f5;strokeColor=#666666;fontColor=#333333;" vertex="1" parent="1">
          <mxGeometry x="170" y="-320" width="40" height="40" as="geometry" />
        </mxCell>
        <mxCell id="_QYD-WO2QvrmHmzMgkhw-37" value="" style="whiteSpace=wrap;html=1;aspect=fixed;hachureGap=4;fontFamily=Courier New;fontSize=30;sketch=1;curveFitting=1;jiggle=2;rounded=0;fontStyle=1;fillColor=#f5f5f5;strokeColor=#666666;fontColor=#333333;" vertex="1" parent="1">
          <mxGeometry x="210" y="-320" width="40" height="40" as="geometry" />
        </mxCell>
        <mxCell id="_QYD-WO2QvrmHmzMgkhw-38" value="" style="whiteSpace=wrap;html=1;aspect=fixed;hachureGap=4;fontFamily=Courier New;fontSize=30;sketch=1;curveFitting=1;jiggle=2;rounded=0;fontStyle=1;fillColor=#f5f5f5;strokeColor=#666666;fontColor=#333333;" vertex="1" parent="1">
          <mxGeometry x="250" y="-320" width="40" height="40" as="geometry" />
        </mxCell>
        <mxCell id="_QYD-WO2QvrmHmzMgkhw-39" value="" style="whiteSpace=wrap;html=1;aspect=fixed;hachureGap=4;fontFamily=Courier New;fontSize=30;sketch=1;curveFitting=1;jiggle=2;rounded=0;fontStyle=1;fillColor=#f5f5f5;strokeColor=#666666;fontColor=#333333;" vertex="1" parent="1">
          <mxGeometry x="290" y="-320" width="40" height="40" as="geometry" />
        </mxCell>
        <mxCell id="_QYD-WO2QvrmHmzMgkhw-40" value="L" style="whiteSpace=wrap;html=1;aspect=fixed;hachureGap=4;fontFamily=Courier New;fontSize=30;sketch=1;curveFitting=1;jiggle=2;rounded=0;fontStyle=1;fillColor=#f5f5f5;strokeColor=#666666;fontColor=#333333;" vertex="1" parent="1">
          <mxGeometry x="980" y="170" width="40" height="40" as="geometry" />
        </mxCell>
        <mxCell id="_QYD-WO2QvrmHmzMgkhw-41" value="E" style="whiteSpace=wrap;html=1;aspect=fixed;hachureGap=4;fontFamily=Courier New;fontSize=30;sketch=1;curveFitting=1;jiggle=2;rounded=0;fontStyle=1;fillColor=#f5f5f5;strokeColor=#666666;fontColor=#333333;" vertex="1" parent="1">
          <mxGeometry x="1020" y="170" width="40" height="40" as="geometry" />
        </mxCell>
        <mxCell id="_QYD-WO2QvrmHmzMgkhw-43" value="_" style="whiteSpace=wrap;html=1;aspect=fixed;hachureGap=4;fontFamily=Courier New;fontSize=30;sketch=1;curveFitting=1;jiggle=2;rounded=0;fontStyle=1;fillColor=#f5f5f5;strokeColor=#666666;fontColor=#333333;" vertex="1" parent="1">
          <mxGeometry x="740" y="170" width="40" height="40" as="geometry" />
        </mxCell>
        <mxCell id="_QYD-WO2QvrmHmzMgkhw-44" value="E" style="whiteSpace=wrap;html=1;aspect=fixed;hachureGap=4;fontFamily=Courier New;fontSize=30;sketch=1;curveFitting=1;jiggle=2;rounded=0;fontStyle=1;fillColor=#f5f5f5;strokeColor=#666666;fontColor=#333333;" vertex="1" parent="1">
          <mxGeometry x="780" y="170" width="40" height="40" as="geometry" />
        </mxCell>
        <mxCell id="_QYD-WO2QvrmHmzMgkhw-45" value="X" style="whiteSpace=wrap;html=1;aspect=fixed;hachureGap=4;fontFamily=Courier New;fontSize=30;sketch=1;curveFitting=1;jiggle=2;rounded=0;fontStyle=1;fillColor=#f5f5f5;strokeColor=#666666;fontColor=#333333;" vertex="1" parent="1">
          <mxGeometry x="820" y="170" width="40" height="40" as="geometry" />
        </mxCell>
        <mxCell id="_QYD-WO2QvrmHmzMgkhw-46" value="A" style="whiteSpace=wrap;html=1;aspect=fixed;hachureGap=4;fontFamily=Courier New;fontSize=30;sketch=1;curveFitting=1;jiggle=2;rounded=0;fontStyle=1;fillColor=#f5f5f5;strokeColor=#666666;fontColor=#333333;" vertex="1" parent="1">
          <mxGeometry x="860" y="170" width="40" height="40" as="geometry" />
        </mxCell>
        <mxCell id="_QYD-WO2QvrmHmzMgkhw-47" value="M" style="whiteSpace=wrap;html=1;aspect=fixed;hachureGap=4;fontFamily=Courier New;fontSize=30;sketch=1;curveFitting=1;jiggle=2;rounded=0;fontStyle=1;fillColor=#f5f5f5;strokeColor=#666666;fontColor=#333333;" vertex="1" parent="1">
          <mxGeometry x="900" y="170" width="40" height="40" as="geometry" />
        </mxCell>
        <mxCell id="_QYD-WO2QvrmHmzMgkhw-48" value="P" style="whiteSpace=wrap;html=1;aspect=fixed;hachureGap=4;fontFamily=Courier New;fontSize=30;sketch=1;curveFitting=1;jiggle=2;rounded=0;fontStyle=1;fillColor=#f5f5f5;strokeColor=#666666;fontColor=#333333;" vertex="1" parent="1">
          <mxGeometry x="940" y="170" width="40" height="40" as="geometry" />
        </mxCell>
        <mxCell id="_QYD-WO2QvrmHmzMgkhw-49" value="H" style="whiteSpace=wrap;html=1;aspect=fixed;hachureGap=4;fontFamily=Courier New;fontSize=30;sketch=1;curveFitting=1;jiggle=2;rounded=0;fontStyle=1;fillColor=#f5f5f5;strokeColor=#666666;fontColor=#333333;" vertex="1" parent="1">
          <mxGeometry x="40" y="-250" width="40" height="40" as="geometry" />
        </mxCell>
        <mxCell id="_QYD-WO2QvrmHmzMgkhw-50" value="E" style="whiteSpace=wrap;html=1;aspect=fixed;hachureGap=4;fontFamily=Courier New;fontSize=30;sketch=1;curveFitting=1;jiggle=2;rounded=0;fontStyle=1;fillColor=#f5f5f5;strokeColor=#666666;fontColor=#333333;" vertex="1" parent="1">
          <mxGeometry x="80" y="-250" width="40" height="40" as="geometry" />
        </mxCell>
        <mxCell id="_QYD-WO2QvrmHmzMgkhw-51" value="R" style="whiteSpace=wrap;html=1;aspect=fixed;hachureGap=4;fontFamily=Courier New;fontSize=30;sketch=1;curveFitting=1;jiggle=2;rounded=0;fontStyle=1;fillColor=#f5f5f5;strokeColor=#666666;fontColor=#333333;" vertex="1" parent="1">
          <mxGeometry x="120" y="-250" width="40" height="40" as="geometry" />
        </mxCell>
        <mxCell id="_QYD-WO2QvrmHmzMgkhw-52" value="E" style="whiteSpace=wrap;html=1;aspect=fixed;hachureGap=4;fontFamily=Courier New;fontSize=30;sketch=1;curveFitting=1;jiggle=2;rounded=0;fontStyle=1;fillColor=#f5f5f5;strokeColor=#666666;fontColor=#333333;" vertex="1" parent="1">
          <mxGeometry x="160" y="-250" width="40" height="40" as="geometry" />
        </mxCell>
        <mxCell id="_QYD-WO2QvrmHmzMgkhw-53" value="_" style="whiteSpace=wrap;html=1;aspect=fixed;hachureGap=4;fontFamily=Courier New;fontSize=30;sketch=1;curveFitting=1;jiggle=2;rounded=0;fontStyle=1;fillColor=#f5f5f5;strokeColor=#666666;fontColor=#333333;" vertex="1" parent="1">
          <mxGeometry x="200" y="-250" width="40" height="40" as="geometry" />
        </mxCell>
        <mxCell id="_QYD-WO2QvrmHmzMgkhw-54" value="I" style="whiteSpace=wrap;html=1;aspect=fixed;hachureGap=4;fontFamily=Courier New;fontSize=30;sketch=1;curveFitting=1;jiggle=2;rounded=0;fontStyle=1;fillColor=#f5f5f5;strokeColor=#666666;fontColor=#333333;" vertex="1" parent="1">
          <mxGeometry x="240" y="-250" width="40" height="40" as="geometry" />
        </mxCell>
        <mxCell id="_QYD-WO2QvrmHmzMgkhw-55" value="S" style="whiteSpace=wrap;html=1;aspect=fixed;hachureGap=4;fontFamily=Courier New;fontSize=30;sketch=1;curveFitting=1;jiggle=2;rounded=0;fontStyle=1;fillColor=#f5f5f5;strokeColor=#666666;fontColor=#333333;" vertex="1" parent="1">
          <mxGeometry x="280" y="-250" width="40" height="40" as="geometry" />
        </mxCell>
        <mxCell id="_QYD-WO2QvrmHmzMgkhw-56" value="_" style="whiteSpace=wrap;html=1;aspect=fixed;hachureGap=4;fontFamily=Courier New;fontSize=30;sketch=1;curveFitting=1;jiggle=2;rounded=0;fontStyle=1;fillColor=#f5f5f5;strokeColor=#666666;fontColor=#333333;" vertex="1" parent="1">
          <mxGeometry x="320" y="-250" width="40" height="40" as="geometry" />
        </mxCell>
        <mxCell id="_QYD-WO2QvrmHmzMgkhw-57" value="A" style="whiteSpace=wrap;html=1;aspect=fixed;hachureGap=4;fontFamily=Courier New;fontSize=30;sketch=1;curveFitting=1;jiggle=2;rounded=0;fontStyle=1;fillColor=#f5f5f5;strokeColor=#666666;fontColor=#333333;" vertex="1" parent="1">
          <mxGeometry x="360" y="-250" width="40" height="40" as="geometry" />
        </mxCell>
        <mxCell id="_QYD-WO2QvrmHmzMgkhw-58" value="_" style="whiteSpace=wrap;html=1;aspect=fixed;hachureGap=4;fontFamily=Courier New;fontSize=30;sketch=1;curveFitting=1;jiggle=2;rounded=0;fontStyle=1;fillColor=#f5f5f5;strokeColor=#666666;fontColor=#333333;" vertex="1" parent="1">
          <mxGeometry x="400" y="-250" width="40" height="40" as="geometry" />
        </mxCell>
        <mxCell id="_QYD-WO2QvrmHmzMgkhw-59" value="S" style="whiteSpace=wrap;html=1;aspect=fixed;hachureGap=4;fontFamily=Courier New;fontSize=30;sketch=1;curveFitting=1;jiggle=2;rounded=0;fontStyle=1;fillColor=#f5f5f5;strokeColor=#666666;fontColor=#333333;" vertex="1" parent="1">
          <mxGeometry x="440" y="-250" width="40" height="40" as="geometry" />
        </mxCell>
        <mxCell id="_QYD-WO2QvrmHmzMgkhw-60" value="I" style="whiteSpace=wrap;html=1;aspect=fixed;hachureGap=4;fontFamily=Courier New;fontSize=30;sketch=1;curveFitting=1;jiggle=2;rounded=0;fontStyle=1;fillColor=#f5f5f5;strokeColor=#666666;fontColor=#333333;" vertex="1" parent="1">
          <mxGeometry x="480" y="-250" width="40" height="40" as="geometry" />
        </mxCell>
        <mxCell id="_QYD-WO2QvrmHmzMgkhw-61" value="M" style="whiteSpace=wrap;html=1;aspect=fixed;hachureGap=4;fontFamily=Courier New;fontSize=30;sketch=1;curveFitting=1;jiggle=2;rounded=0;fontStyle=1;fillColor=#f5f5f5;strokeColor=#666666;fontColor=#333333;" vertex="1" parent="1">
          <mxGeometry x="520" y="-250" width="40" height="40" as="geometry" />
        </mxCell>
        <mxCell id="_QYD-WO2QvrmHmzMgkhw-62" value="P" style="whiteSpace=wrap;html=1;aspect=fixed;hachureGap=4;fontFamily=Courier New;fontSize=30;sketch=1;curveFitting=1;jiggle=2;rounded=0;fontStyle=1;fillColor=#f5f5f5;strokeColor=#666666;fontColor=#333333;" vertex="1" parent="1">
          <mxGeometry x="560" y="-250" width="40" height="40" as="geometry" />
        </mxCell>
        <mxCell id="_QYD-WO2QvrmHmzMgkhw-63" value="L" style="whiteSpace=wrap;html=1;aspect=fixed;hachureGap=4;fontFamily=Courier New;fontSize=30;sketch=1;curveFitting=1;jiggle=2;rounded=0;fontStyle=1;fillColor=#f5f5f5;strokeColor=#666666;fontColor=#333333;" vertex="1" parent="1">
          <mxGeometry x="600" y="-250" width="40" height="40" as="geometry" />
        </mxCell>
        <mxCell id="_QYD-WO2QvrmHmzMgkhw-64" value="E" style="whiteSpace=wrap;html=1;aspect=fixed;hachureGap=4;fontFamily=Courier New;fontSize=30;sketch=1;curveFitting=1;jiggle=2;rounded=0;fontStyle=1;fillColor=#f5f5f5;strokeColor=#666666;fontColor=#333333;" vertex="1" parent="1">
          <mxGeometry x="640" y="-250" width="40" height="40" as="geometry" />
        </mxCell>
        <mxCell id="_QYD-WO2QvrmHmzMgkhw-65" value="L" style="whiteSpace=wrap;html=1;aspect=fixed;hachureGap=4;fontFamily=Courier New;fontSize=30;sketch=1;curveFitting=1;jiggle=2;rounded=0;fontStyle=1;fillColor=#f5f5f5;strokeColor=#666666;fontColor=#333333;" vertex="1" parent="1">
          <mxGeometry x="920" y="-250" width="40" height="40" as="geometry" />
        </mxCell>
        <mxCell id="_QYD-WO2QvrmHmzMgkhw-66" value="E" style="whiteSpace=wrap;html=1;aspect=fixed;hachureGap=4;fontFamily=Courier New;fontSize=30;sketch=1;curveFitting=1;jiggle=2;rounded=0;fontStyle=1;fillColor=#f5f5f5;strokeColor=#666666;fontColor=#333333;" vertex="1" parent="1">
          <mxGeometry x="960" y="-250" width="40" height="40" as="geometry" />
        </mxCell>
        <mxCell id="_QYD-WO2QvrmHmzMgkhw-67" value="_" style="whiteSpace=wrap;html=1;aspect=fixed;hachureGap=4;fontFamily=Courier New;fontSize=30;sketch=1;curveFitting=1;jiggle=2;rounded=0;fontStyle=1;fillColor=#f5f5f5;strokeColor=#666666;fontColor=#333333;" vertex="1" parent="1">
          <mxGeometry x="680" y="-250" width="40" height="40" as="geometry" />
        </mxCell>
        <mxCell id="_QYD-WO2QvrmHmzMgkhw-68" value="E" style="whiteSpace=wrap;html=1;aspect=fixed;hachureGap=4;fontFamily=Courier New;fontSize=30;sketch=1;curveFitting=1;jiggle=2;rounded=0;fontStyle=1;fillColor=#f5f5f5;strokeColor=#666666;fontColor=#333333;" vertex="1" parent="1">
          <mxGeometry x="720" y="-250" width="40" height="40" as="geometry" />
        </mxCell>
        <mxCell id="_QYD-WO2QvrmHmzMgkhw-69" value="X" style="whiteSpace=wrap;html=1;aspect=fixed;hachureGap=4;fontFamily=Courier New;fontSize=30;sketch=1;curveFitting=1;jiggle=2;rounded=0;fontStyle=1;fillColor=#f5f5f5;strokeColor=#666666;fontColor=#333333;" vertex="1" parent="1">
          <mxGeometry x="760" y="-250" width="40" height="40" as="geometry" />
        </mxCell>
        <mxCell id="_QYD-WO2QvrmHmzMgkhw-70" value="A" style="whiteSpace=wrap;html=1;aspect=fixed;hachureGap=4;fontFamily=Courier New;fontSize=30;sketch=1;curveFitting=1;jiggle=2;rounded=0;fontStyle=1;fillColor=#f5f5f5;strokeColor=#666666;fontColor=#333333;" vertex="1" parent="1">
          <mxGeometry x="800" y="-250" width="40" height="40" as="geometry" />
        </mxCell>
        <mxCell id="_QYD-WO2QvrmHmzMgkhw-71" value="M" style="whiteSpace=wrap;html=1;aspect=fixed;hachureGap=4;fontFamily=Courier New;fontSize=30;sketch=1;curveFitting=1;jiggle=2;rounded=0;fontStyle=1;fillColor=#f5f5f5;strokeColor=#666666;fontColor=#333333;" vertex="1" parent="1">
          <mxGeometry x="840" y="-250" width="40" height="40" as="geometry" />
        </mxCell>
        <mxCell id="_QYD-WO2QvrmHmzMgkhw-72" value="P" style="whiteSpace=wrap;html=1;aspect=fixed;hachureGap=4;fontFamily=Courier New;fontSize=30;sketch=1;curveFitting=1;jiggle=2;rounded=0;fontStyle=1;fillColor=#f5f5f5;strokeColor=#666666;fontColor=#333333;" vertex="1" parent="1">
          <mxGeometry x="880" y="-250" width="40" height="40" as="geometry" />
        </mxCell>
        <mxCell id="_QYD-WO2QvrmHmzMgkhw-73" value="L" style="whiteSpace=wrap;html=1;aspect=fixed;hachureGap=4;fontFamily=Courier New;fontSize=30;sketch=1;curveFitting=1;jiggle=2;rounded=0;fontStyle=1;fillColor=#f5f5f5;strokeColor=#666666;fontColor=#333333;" vertex="1" parent="1">
          <mxGeometry x="910" y="-310" width="40" height="40" as="geometry" />
        </mxCell>
        <mxCell id="_QYD-WO2QvrmHmzMgkhw-74" value="E" style="whiteSpace=wrap;html=1;aspect=fixed;hachureGap=4;fontFamily=Courier New;fontSize=30;sketch=1;curveFitting=1;jiggle=2;rounded=0;fontStyle=1;fillColor=#f5f5f5;strokeColor=#666666;fontColor=#333333;" vertex="1" parent="1">
          <mxGeometry x="950" y="-310" width="40" height="40" as="geometry" />
        </mxCell>
        <mxCell id="_QYD-WO2QvrmHmzMgkhw-75" value="E" style="whiteSpace=wrap;html=1;aspect=fixed;hachureGap=4;fontFamily=Courier New;fontSize=30;sketch=1;curveFitting=1;jiggle=2;rounded=0;fontStyle=1;fillColor=#f5f5f5;strokeColor=#666666;fontColor=#333333;" vertex="1" parent="1">
          <mxGeometry x="710" y="-310" width="40" height="40" as="geometry" />
        </mxCell>
        <mxCell id="_QYD-WO2QvrmHmzMgkhw-76" value="X" style="whiteSpace=wrap;html=1;aspect=fixed;hachureGap=4;fontFamily=Courier New;fontSize=30;sketch=1;curveFitting=1;jiggle=2;rounded=0;fontStyle=1;fillColor=#f5f5f5;strokeColor=#666666;fontColor=#333333;" vertex="1" parent="1">
          <mxGeometry x="750" y="-310" width="40" height="40" as="geometry" />
        </mxCell>
        <mxCell id="_QYD-WO2QvrmHmzMgkhw-77" value="A" style="whiteSpace=wrap;html=1;aspect=fixed;hachureGap=4;fontFamily=Courier New;fontSize=30;sketch=1;curveFitting=1;jiggle=2;rounded=0;fontStyle=1;fillColor=#f5f5f5;strokeColor=#666666;fontColor=#333333;" vertex="1" parent="1">
          <mxGeometry x="790" y="-310" width="40" height="40" as="geometry" />
        </mxCell>
        <mxCell id="_QYD-WO2QvrmHmzMgkhw-78" value="M" style="whiteSpace=wrap;html=1;aspect=fixed;hachureGap=4;fontFamily=Courier New;fontSize=30;sketch=1;curveFitting=1;jiggle=2;rounded=0;fontStyle=1;fillColor=#f5f5f5;strokeColor=#666666;fontColor=#333333;" vertex="1" parent="1">
          <mxGeometry x="830" y="-310" width="40" height="40" as="geometry" />
        </mxCell>
        <mxCell id="_QYD-WO2QvrmHmzMgkhw-79" value="P" style="whiteSpace=wrap;html=1;aspect=fixed;hachureGap=4;fontFamily=Courier New;fontSize=30;sketch=1;curveFitting=1;jiggle=2;rounded=0;fontStyle=1;fillColor=#f5f5f5;strokeColor=#666666;fontColor=#333333;" vertex="1" parent="1">
          <mxGeometry x="870" y="-310" width="40" height="40" as="geometry" />
        </mxCell>
        <mxCell id="_QYD-WO2QvrmHmzMgkhw-80" value="L" style="whiteSpace=wrap;html=1;aspect=fixed;hachureGap=4;fontFamily=Courier New;fontSize=30;sketch=1;curveFitting=1;jiggle=2;rounded=0;fontStyle=1;fillColor=#f5f5f5;strokeColor=#666666;fontColor=#333333;" vertex="1" parent="1">
          <mxGeometry x="300" y="240" width="40" height="40" as="geometry" />
        </mxCell>
        <mxCell id="_QYD-WO2QvrmHmzMgkhw-81" value="E" style="whiteSpace=wrap;html=1;aspect=fixed;hachureGap=4;fontFamily=Courier New;fontSize=30;sketch=1;curveFitting=1;jiggle=2;rounded=0;fontStyle=1;fillColor=#f5f5f5;strokeColor=#666666;fontColor=#333333;" vertex="1" parent="1">
          <mxGeometry x="340" y="240" width="40" height="40" as="geometry" />
        </mxCell>
        <mxCell id="_QYD-WO2QvrmHmzMgkhw-82" value="E" style="whiteSpace=wrap;html=1;aspect=fixed;hachureGap=4;fontFamily=Courier New;fontSize=30;sketch=1;curveFitting=1;jiggle=2;rounded=0;fontStyle=1;fillColor=#f5f5f5;strokeColor=#666666;fontColor=#333333;" vertex="1" parent="1">
          <mxGeometry x="100" y="240" width="40" height="40" as="geometry" />
        </mxCell>
        <mxCell id="_QYD-WO2QvrmHmzMgkhw-83" value="X" style="whiteSpace=wrap;html=1;aspect=fixed;hachureGap=4;fontFamily=Courier New;fontSize=30;sketch=1;curveFitting=1;jiggle=2;rounded=0;fontStyle=1;fillColor=#f5f5f5;strokeColor=#666666;fontColor=#333333;" vertex="1" parent="1">
          <mxGeometry x="140" y="240" width="40" height="40" as="geometry" />
        </mxCell>
        <mxCell id="_QYD-WO2QvrmHmzMgkhw-84" value="A" style="whiteSpace=wrap;html=1;aspect=fixed;hachureGap=4;fontFamily=Courier New;fontSize=30;sketch=1;curveFitting=1;jiggle=2;rounded=0;fontStyle=1;fillColor=#f5f5f5;strokeColor=#666666;fontColor=#333333;" vertex="1" parent="1">
          <mxGeometry x="180" y="240" width="40" height="40" as="geometry" />
        </mxCell>
        <mxCell id="_QYD-WO2QvrmHmzMgkhw-85" value="M" style="whiteSpace=wrap;html=1;aspect=fixed;hachureGap=4;fontFamily=Courier New;fontSize=30;sketch=1;curveFitting=1;jiggle=2;rounded=0;fontStyle=1;fillColor=#f5f5f5;strokeColor=#666666;fontColor=#333333;" vertex="1" parent="1">
          <mxGeometry x="220" y="240" width="40" height="40" as="geometry" />
        </mxCell>
        <mxCell id="_QYD-WO2QvrmHmzMgkhw-86" value="P" style="whiteSpace=wrap;html=1;aspect=fixed;hachureGap=4;fontFamily=Courier New;fontSize=30;sketch=1;curveFitting=1;jiggle=2;rounded=0;fontStyle=1;fillColor=#f5f5f5;strokeColor=#666666;fontColor=#333333;" vertex="1" parent="1">
          <mxGeometry x="260" y="240" width="40" height="40" as="geometry" />
        </mxCell>
        <mxCell id="_QYD-WO2QvrmHmzMgkhw-87" value="H" style="whiteSpace=wrap;html=1;aspect=fixed;hachureGap=4;fontFamily=Courier New;fontSize=30;sketch=1;curveFitting=1;jiggle=2;rounded=0;fontStyle=1;fillColor=#f5f5f5;strokeColor=#666666;fontColor=#333333;" vertex="1" parent="1">
          <mxGeometry x="1200" y="200" width="40" height="40" as="geometry" />
        </mxCell>
        <mxCell id="_QYD-WO2QvrmHmzMgkhw-88" value="E" style="whiteSpace=wrap;html=1;aspect=fixed;hachureGap=4;fontFamily=Courier New;fontSize=30;sketch=1;curveFitting=1;jiggle=2;rounded=0;fontStyle=1;fillColor=#f5f5f5;strokeColor=#666666;fontColor=#333333;" vertex="1" parent="1">
          <mxGeometry x="1240" y="200" width="40" height="40" as="geometry" />
        </mxCell>
        <mxCell id="_QYD-WO2QvrmHmzMgkhw-89" value="R" style="whiteSpace=wrap;html=1;aspect=fixed;hachureGap=4;fontFamily=Courier New;fontSize=30;sketch=1;curveFitting=1;jiggle=2;rounded=0;fontStyle=1;fillColor=#f5f5f5;strokeColor=#666666;fontColor=#333333;" vertex="1" parent="1">
          <mxGeometry x="1280" y="200" width="40" height="40" as="geometry" />
        </mxCell>
        <mxCell id="_QYD-WO2QvrmHmzMgkhw-90" value="E" style="whiteSpace=wrap;html=1;aspect=fixed;hachureGap=4;fontFamily=Courier New;fontSize=30;sketch=1;curveFitting=1;jiggle=2;rounded=0;fontStyle=1;fillColor=#f5f5f5;strokeColor=#666666;fontColor=#333333;" vertex="1" parent="1">
          <mxGeometry x="1320" y="200" width="40" height="40" as="geometry" />
        </mxCell>
        <mxCell id="_QYD-WO2QvrmHmzMgkhw-91" value="_" style="whiteSpace=wrap;html=1;aspect=fixed;hachureGap=4;fontFamily=Courier New;fontSize=30;sketch=1;curveFitting=1;jiggle=2;rounded=0;fontStyle=1;fillColor=#f5f5f5;strokeColor=#666666;fontColor=#333333;" vertex="1" parent="1">
          <mxGeometry x="1360" y="200" width="40" height="40" as="geometry" />
        </mxCell>
        <mxCell id="_QYD-WO2QvrmHmzMgkhw-92" value="I" style="whiteSpace=wrap;html=1;aspect=fixed;hachureGap=4;fontFamily=Courier New;fontSize=30;sketch=1;curveFitting=1;jiggle=2;rounded=0;fontStyle=1;fillColor=#f5f5f5;strokeColor=#666666;fontColor=#333333;" vertex="1" parent="1">
          <mxGeometry x="1400" y="200" width="40" height="40" as="geometry" />
        </mxCell>
        <mxCell id="_QYD-WO2QvrmHmzMgkhw-93" value="S" style="whiteSpace=wrap;html=1;aspect=fixed;hachureGap=4;fontFamily=Courier New;fontSize=30;sketch=1;curveFitting=1;jiggle=2;rounded=0;fontStyle=1;fillColor=#f5f5f5;strokeColor=#666666;fontColor=#333333;" vertex="1" parent="1">
          <mxGeometry x="1440" y="200" width="40" height="40" as="geometry" />
        </mxCell>
        <mxCell id="_QYD-WO2QvrmHmzMgkhw-94" value="_" style="whiteSpace=wrap;html=1;aspect=fixed;hachureGap=4;fontFamily=Courier New;fontSize=30;sketch=1;curveFitting=1;jiggle=2;rounded=0;fontStyle=1;fillColor=#f5f5f5;strokeColor=#666666;fontColor=#333333;" vertex="1" parent="1">
          <mxGeometry x="1480" y="200" width="40" height="40" as="geometry" />
        </mxCell>
        <mxCell id="_QYD-WO2QvrmHmzMgkhw-95" value="A" style="whiteSpace=wrap;html=1;aspect=fixed;hachureGap=4;fontFamily=Courier New;fontSize=30;sketch=1;curveFitting=1;jiggle=2;rounded=0;fontStyle=1;fillColor=#f5f5f5;strokeColor=#666666;fontColor=#333333;" vertex="1" parent="1">
          <mxGeometry x="1520" y="200" width="40" height="40" as="geometry" />
        </mxCell>
        <mxCell id="_QYD-WO2QvrmHmzMgkhw-96" value="_" style="whiteSpace=wrap;html=1;aspect=fixed;hachureGap=4;fontFamily=Courier New;fontSize=30;sketch=1;curveFitting=1;jiggle=2;rounded=0;fontStyle=1;fillColor=#f5f5f5;strokeColor=#666666;fontColor=#333333;" vertex="1" parent="1">
          <mxGeometry x="1560" y="200" width="40" height="40" as="geometry" />
        </mxCell>
        <mxCell id="_QYD-WO2QvrmHmzMgkhw-97" value="P" style="whiteSpace=wrap;html=1;aspect=fixed;hachureGap=4;fontFamily=Courier New;fontSize=30;sketch=1;curveFitting=1;jiggle=2;rounded=0;fontStyle=1;fillColor=#f5f5f5;strokeColor=#666666;fontColor=#333333;" vertex="1" parent="1">
          <mxGeometry x="1600" y="200" width="40" height="40" as="geometry" />
        </mxCell>
        <mxCell id="_QYD-WO2QvrmHmzMgkhw-98" value="P" style="whiteSpace=wrap;html=1;aspect=fixed;hachureGap=4;fontFamily=Courier New;fontSize=30;sketch=1;curveFitting=1;jiggle=2;rounded=0;fontStyle=1;fillColor=#f5f5f5;strokeColor=#666666;fontColor=#333333;" vertex="1" parent="1">
          <mxGeometry x="1640" y="200" width="40" height="40" as="geometry" />
        </mxCell>
        <mxCell id="_QYD-WO2QvrmHmzMgkhw-99" value="L" style="whiteSpace=wrap;html=1;aspect=fixed;hachureGap=4;fontFamily=Courier New;fontSize=30;sketch=1;curveFitting=1;jiggle=2;rounded=0;fontStyle=1;fillColor=#f5f5f5;strokeColor=#666666;fontColor=#333333;" vertex="1" parent="1">
          <mxGeometry x="1680" y="200" width="40" height="40" as="geometry" />
        </mxCell>
        <mxCell id="_QYD-WO2QvrmHmzMgkhw-100" value="E" style="whiteSpace=wrap;html=1;aspect=fixed;hachureGap=4;fontFamily=Courier New;fontSize=30;sketch=1;curveFitting=1;jiggle=2;rounded=0;fontStyle=1;fillColor=#f5f5f5;strokeColor=#666666;fontColor=#333333;" vertex="1" parent="1">
          <mxGeometry x="1720" y="200" width="40" height="40" as="geometry" />
        </mxCell>
        <mxCell id="_QYD-WO2QvrmHmzMgkhw-101" value="L" style="whiteSpace=wrap;html=1;aspect=fixed;hachureGap=4;fontFamily=Courier New;fontSize=30;sketch=1;curveFitting=1;jiggle=2;rounded=0;fontStyle=1;fillColor=#f5f5f5;strokeColor=#666666;fontColor=#333333;" vertex="1" parent="1">
          <mxGeometry x="1760" y="200" width="40" height="40" as="geometry" />
        </mxCell>
        <mxCell id="_QYD-WO2QvrmHmzMgkhw-102" value="E" style="whiteSpace=wrap;html=1;aspect=fixed;hachureGap=4;fontFamily=Courier New;fontSize=30;sketch=1;curveFitting=1;jiggle=2;rounded=0;fontStyle=1;fillColor=#f5f5f5;strokeColor=#666666;fontColor=#333333;" vertex="1" parent="1">
          <mxGeometry x="1800" y="200" width="40" height="40" as="geometry" />
        </mxCell>
        <mxCell id="_QYD-WO2QvrmHmzMgkhw-103" value="L" style="whiteSpace=wrap;html=1;aspect=fixed;hachureGap=4;fontFamily=Courier New;fontSize=30;sketch=1;curveFitting=1;jiggle=2;rounded=0;fontStyle=1;fillColor=#f5f5f5;strokeColor=#666666;fontColor=#333333;" vertex="1" parent="1">
          <mxGeometry x="2080" y="200" width="40" height="40" as="geometry" />
        </mxCell>
        <mxCell id="_QYD-WO2QvrmHmzMgkhw-104" value="E" style="whiteSpace=wrap;html=1;aspect=fixed;hachureGap=4;fontFamily=Courier New;fontSize=30;sketch=1;curveFitting=1;jiggle=2;rounded=0;fontStyle=1;fillColor=#f5f5f5;strokeColor=#666666;fontColor=#333333;" vertex="1" parent="1">
          <mxGeometry x="2120" y="200" width="40" height="40" as="geometry" />
        </mxCell>
        <mxCell id="_QYD-WO2QvrmHmzMgkhw-105" value="_" style="whiteSpace=wrap;html=1;aspect=fixed;hachureGap=4;fontFamily=Courier New;fontSize=30;sketch=1;curveFitting=1;jiggle=2;rounded=0;fontStyle=1;fillColor=#f5f5f5;strokeColor=#666666;fontColor=#333333;" vertex="1" parent="1">
          <mxGeometry x="1840" y="200" width="40" height="40" as="geometry" />
        </mxCell>
        <mxCell id="_QYD-WO2QvrmHmzMgkhw-106" value="E" style="whiteSpace=wrap;html=1;aspect=fixed;hachureGap=4;fontFamily=Courier New;fontSize=30;sketch=1;curveFitting=1;jiggle=2;rounded=0;fontStyle=1;fillColor=#f5f5f5;strokeColor=#666666;fontColor=#333333;" vertex="1" parent="1">
          <mxGeometry x="1880" y="200" width="40" height="40" as="geometry" />
        </mxCell>
        <mxCell id="_QYD-WO2QvrmHmzMgkhw-107" value="X" style="whiteSpace=wrap;html=1;aspect=fixed;hachureGap=4;fontFamily=Courier New;fontSize=30;sketch=1;curveFitting=1;jiggle=2;rounded=0;fontStyle=1;fillColor=#f5f5f5;strokeColor=#666666;fontColor=#333333;" vertex="1" parent="1">
          <mxGeometry x="1920" y="200" width="40" height="40" as="geometry" />
        </mxCell>
        <mxCell id="_QYD-WO2QvrmHmzMgkhw-108" value="A" style="whiteSpace=wrap;html=1;aspect=fixed;hachureGap=4;fontFamily=Courier New;fontSize=30;sketch=1;curveFitting=1;jiggle=2;rounded=0;fontStyle=1;fillColor=#f5f5f5;strokeColor=#666666;fontColor=#333333;" vertex="1" parent="1">
          <mxGeometry x="1960" y="200" width="40" height="40" as="geometry" />
        </mxCell>
        <mxCell id="_QYD-WO2QvrmHmzMgkhw-109" value="M" style="whiteSpace=wrap;html=1;aspect=fixed;hachureGap=4;fontFamily=Courier New;fontSize=30;sketch=1;curveFitting=1;jiggle=2;rounded=0;fontStyle=1;fillColor=#f5f5f5;strokeColor=#666666;fontColor=#333333;" vertex="1" parent="1">
          <mxGeometry x="2000" y="200" width="40" height="40" as="geometry" />
        </mxCell>
        <mxCell id="_QYD-WO2QvrmHmzMgkhw-110" value="P" style="whiteSpace=wrap;html=1;aspect=fixed;hachureGap=4;fontFamily=Courier New;fontSize=30;sketch=1;curveFitting=1;jiggle=2;rounded=0;fontStyle=1;fillColor=#f5f5f5;strokeColor=#666666;fontColor=#333333;" vertex="1" parent="1">
          <mxGeometry x="2040" y="200" width="40" height="40" as="geometry" />
        </mxCell>
        <mxCell id="_QYD-WO2QvrmHmzMgkhw-111" value="L" style="whiteSpace=wrap;html=1;aspect=fixed;hachureGap=4;fontFamily=Courier New;fontSize=30;sketch=1;curveFitting=1;jiggle=2;rounded=0;fontStyle=1;fillColor=#f5f5f5;strokeColor=#666666;fontColor=#333333;" vertex="1" parent="1">
          <mxGeometry x="1680" y="265" width="40" height="40" as="geometry" />
        </mxCell>
        <mxCell id="_QYD-WO2QvrmHmzMgkhw-112" value="E" style="whiteSpace=wrap;html=1;aspect=fixed;hachureGap=4;fontFamily=Courier New;fontSize=30;sketch=1;curveFitting=1;jiggle=2;rounded=0;fontStyle=1;fillColor=#f5f5f5;strokeColor=#666666;fontColor=#333333;" vertex="1" parent="1">
          <mxGeometry x="1720" y="265" width="40" height="40" as="geometry" />
        </mxCell>
        <mxCell id="_QYD-WO2QvrmHmzMgkhw-113" value="E" style="whiteSpace=wrap;html=1;aspect=fixed;hachureGap=4;fontFamily=Courier New;fontSize=30;sketch=1;curveFitting=1;jiggle=2;rounded=0;fontStyle=1;fillColor=#f5f5f5;strokeColor=#666666;fontColor=#333333;" vertex="1" parent="1">
          <mxGeometry x="1480" y="265" width="40" height="40" as="geometry" />
        </mxCell>
        <mxCell id="_QYD-WO2QvrmHmzMgkhw-114" value="P0" style="whiteSpace=wrap;html=1;aspect=fixed;hachureGap=4;fontFamily=Courier New;fontSize=30;sketch=1;curveFitting=1;jiggle=2;rounded=0;fontStyle=1;fillColor=#f5f5f5;strokeColor=#666666;fontColor=#333333;" vertex="1" parent="1">
          <mxGeometry x="1520" y="265" width="40" height="40" as="geometry" />
        </mxCell>
        <mxCell id="_QYD-WO2QvrmHmzMgkhw-115" value="A" style="whiteSpace=wrap;html=1;aspect=fixed;hachureGap=4;fontFamily=Courier New;fontSize=30;sketch=1;curveFitting=1;jiggle=2;rounded=0;fontStyle=1;fillColor=#f5f5f5;strokeColor=#666666;fontColor=#333333;" vertex="1" parent="1">
          <mxGeometry x="1560" y="265" width="40" height="40" as="geometry" />
        </mxCell>
        <mxCell id="_QYD-WO2QvrmHmzMgkhw-116" value="M" style="whiteSpace=wrap;html=1;aspect=fixed;hachureGap=4;fontFamily=Courier New;fontSize=30;sketch=1;curveFitting=1;jiggle=2;rounded=0;fontStyle=1;fillColor=#f5f5f5;strokeColor=#666666;fontColor=#333333;" vertex="1" parent="1">
          <mxGeometry x="1600" y="265" width="40" height="40" as="geometry" />
        </mxCell>
        <mxCell id="_QYD-WO2QvrmHmzMgkhw-117" value="P1" style="whiteSpace=wrap;html=1;aspect=fixed;hachureGap=4;fontFamily=Courier New;fontSize=30;sketch=1;curveFitting=1;jiggle=2;rounded=0;fontStyle=1;fillColor=#f5f5f5;strokeColor=#666666;fontColor=#333333;" vertex="1" parent="1">
          <mxGeometry x="1640" y="265" width="40" height="40" as="geometry" />
        </mxCell>
        <mxCell id="_QYD-WO2QvrmHmzMgkhw-118" value="" style="ellipse;whiteSpace=wrap;html=1;sketch=1;hachureGap=4;jiggle=2;curveFitting=1;fontFamily=Architects Daughter;fontSource=https%3A%2F%2Ffonts.googleapis.com%2Fcss%3Ffamily%3DArchitects%2BDaughter;fontSize=20;rotation=90;fillColor=none;strokeColor=#FF0000;" vertex="1" parent="1">
          <mxGeometry x="295" y="200" width="130" height="50" as="geometry" />
        </mxCell>
        <mxCell id="_QYD-WO2QvrmHmzMgkhw-119" value="" style="ellipse;whiteSpace=wrap;html=1;sketch=1;hachureGap=4;jiggle=2;curveFitting=1;fontFamily=Architects Daughter;fontSource=https%3A%2F%2Ffonts.googleapis.com%2Fcss%3Ffamily%3DArchitects%2BDaughter;fontSize=20;rotation=90;fillColor=none;strokeColor=#FF0000;" vertex="1" parent="1">
          <mxGeometry x="1566.25" y="230" width="107.5" height="50" as="geometry" />
        </mxCell>
        <mxCell id="_QYD-WO2QvrmHmzMgkhw-153" value="H" style="whiteSpace=wrap;html=1;aspect=fixed;hachureGap=4;fontFamily=Courier New;fontSize=30;sketch=1;curveFitting=1;jiggle=2;rounded=0;fontStyle=1;fillColor=#f5f5f5;strokeColor=#666666;fontColor=#333333;" vertex="1" parent="1">
          <mxGeometry x="100" y="490" width="40" height="40" as="geometry" />
        </mxCell>
        <mxCell id="_QYD-WO2QvrmHmzMgkhw-154" value="E" style="whiteSpace=wrap;html=1;aspect=fixed;hachureGap=4;fontFamily=Courier New;fontSize=30;sketch=1;curveFitting=1;jiggle=2;rounded=0;fontStyle=1;fillColor=#f5f5f5;strokeColor=#666666;fontColor=#333333;" vertex="1" parent="1">
          <mxGeometry x="140" y="490" width="40" height="40" as="geometry" />
        </mxCell>
        <mxCell id="_QYD-WO2QvrmHmzMgkhw-155" value="R" style="whiteSpace=wrap;html=1;aspect=fixed;hachureGap=4;fontFamily=Courier New;fontSize=30;sketch=1;curveFitting=1;jiggle=2;rounded=0;fontStyle=1;fillColor=#f5f5f5;strokeColor=#666666;fontColor=#333333;" vertex="1" parent="1">
          <mxGeometry x="180" y="490" width="40" height="40" as="geometry" />
        </mxCell>
        <mxCell id="_QYD-WO2QvrmHmzMgkhw-156" value="E" style="whiteSpace=wrap;html=1;aspect=fixed;hachureGap=4;fontFamily=Courier New;fontSize=30;sketch=1;curveFitting=1;jiggle=2;rounded=0;fontStyle=1;fillColor=#f5f5f5;strokeColor=#666666;fontColor=#333333;" vertex="1" parent="1">
          <mxGeometry x="220" y="490" width="40" height="40" as="geometry" />
        </mxCell>
        <mxCell id="_QYD-WO2QvrmHmzMgkhw-157" value="_" style="whiteSpace=wrap;html=1;aspect=fixed;hachureGap=4;fontFamily=Courier New;fontSize=30;sketch=1;curveFitting=1;jiggle=2;rounded=0;fontStyle=1;fillColor=#f5f5f5;strokeColor=#666666;fontColor=#333333;" vertex="1" parent="1">
          <mxGeometry x="260" y="490" width="40" height="40" as="geometry" />
        </mxCell>
        <mxCell id="_QYD-WO2QvrmHmzMgkhw-158" value="I" style="whiteSpace=wrap;html=1;aspect=fixed;hachureGap=4;fontFamily=Courier New;fontSize=30;sketch=1;curveFitting=1;jiggle=2;rounded=0;fontStyle=1;fillColor=#f5f5f5;strokeColor=#666666;fontColor=#333333;" vertex="1" parent="1">
          <mxGeometry x="300" y="490" width="40" height="40" as="geometry" />
        </mxCell>
        <mxCell id="_QYD-WO2QvrmHmzMgkhw-159" value="S" style="whiteSpace=wrap;html=1;aspect=fixed;hachureGap=4;fontFamily=Courier New;fontSize=30;sketch=1;curveFitting=1;jiggle=2;rounded=0;fontStyle=1;fillColor=#f5f5f5;strokeColor=#666666;fontColor=#333333;" vertex="1" parent="1">
          <mxGeometry x="340" y="490" width="40" height="40" as="geometry" />
        </mxCell>
        <mxCell id="_QYD-WO2QvrmHmzMgkhw-160" value="_" style="whiteSpace=wrap;html=1;aspect=fixed;hachureGap=4;fontFamily=Courier New;fontSize=30;sketch=1;curveFitting=1;jiggle=2;rounded=0;fontStyle=1;fillColor=#f5f5f5;strokeColor=#666666;fontColor=#333333;" vertex="1" parent="1">
          <mxGeometry x="380" y="490" width="40" height="40" as="geometry" />
        </mxCell>
        <mxCell id="_QYD-WO2QvrmHmzMgkhw-161" value="A" style="whiteSpace=wrap;html=1;aspect=fixed;hachureGap=4;fontFamily=Courier New;fontSize=30;sketch=1;curveFitting=1;jiggle=2;rounded=0;fontStyle=1;fillColor=#f5f5f5;strokeColor=#666666;fontColor=#333333;" vertex="1" parent="1">
          <mxGeometry x="420" y="490" width="40" height="40" as="geometry" />
        </mxCell>
        <mxCell id="_QYD-WO2QvrmHmzMgkhw-162" value="_" style="whiteSpace=wrap;html=1;aspect=fixed;hachureGap=4;fontFamily=Courier New;fontSize=30;sketch=1;curveFitting=1;jiggle=2;rounded=0;fontStyle=1;fillColor=#f5f5f5;strokeColor=#666666;fontColor=#333333;" vertex="1" parent="1">
          <mxGeometry x="460" y="490" width="40" height="40" as="geometry" />
        </mxCell>
        <mxCell id="_QYD-WO2QvrmHmzMgkhw-163" value="S" style="whiteSpace=wrap;html=1;aspect=fixed;hachureGap=4;fontFamily=Courier New;fontSize=30;sketch=1;curveFitting=1;jiggle=2;rounded=0;fontStyle=1;fillColor=#f5f5f5;strokeColor=#666666;fontColor=#333333;" vertex="1" parent="1">
          <mxGeometry x="500" y="490" width="40" height="40" as="geometry" />
        </mxCell>
        <mxCell id="_QYD-WO2QvrmHmzMgkhw-164" value="I" style="whiteSpace=wrap;html=1;aspect=fixed;hachureGap=4;fontFamily=Courier New;fontSize=30;sketch=1;curveFitting=1;jiggle=2;rounded=0;fontStyle=1;fillColor=#f5f5f5;strokeColor=#666666;fontColor=#333333;" vertex="1" parent="1">
          <mxGeometry x="540" y="490" width="40" height="40" as="geometry" />
        </mxCell>
        <mxCell id="_QYD-WO2QvrmHmzMgkhw-165" value="M" style="whiteSpace=wrap;html=1;aspect=fixed;hachureGap=4;fontFamily=Courier New;fontSize=30;sketch=1;curveFitting=1;jiggle=2;rounded=0;fontStyle=1;fillColor=#f5f5f5;strokeColor=#666666;fontColor=#333333;" vertex="1" parent="1">
          <mxGeometry x="580" y="490" width="40" height="40" as="geometry" />
        </mxCell>
        <mxCell id="_QYD-WO2QvrmHmzMgkhw-166" value="P" style="whiteSpace=wrap;html=1;aspect=fixed;hachureGap=4;fontFamily=Courier New;fontSize=30;sketch=1;curveFitting=1;jiggle=2;rounded=0;fontStyle=1;fillColor=#f5f5f5;strokeColor=#666666;fontColor=#333333;" vertex="1" parent="1">
          <mxGeometry x="620" y="490" width="40" height="40" as="geometry" />
        </mxCell>
        <mxCell id="_QYD-WO2QvrmHmzMgkhw-167" value="L" style="whiteSpace=wrap;html=1;aspect=fixed;hachureGap=4;fontFamily=Courier New;fontSize=30;sketch=1;curveFitting=1;jiggle=2;rounded=0;fontStyle=1;fillColor=#f5f5f5;strokeColor=#666666;fontColor=#333333;" vertex="1" parent="1">
          <mxGeometry x="660" y="490" width="40" height="40" as="geometry" />
        </mxCell>
        <mxCell id="_QYD-WO2QvrmHmzMgkhw-168" value="E" style="whiteSpace=wrap;html=1;aspect=fixed;hachureGap=4;fontFamily=Courier New;fontSize=30;sketch=1;curveFitting=1;jiggle=2;rounded=0;fontStyle=1;fillColor=#f5f5f5;strokeColor=#666666;fontColor=#333333;" vertex="1" parent="1">
          <mxGeometry x="700" y="490" width="40" height="40" as="geometry" />
        </mxCell>
        <mxCell id="_QYD-WO2QvrmHmzMgkhw-169" value="L" style="whiteSpace=wrap;html=1;aspect=fixed;hachureGap=4;fontFamily=Courier New;fontSize=30;sketch=1;curveFitting=1;jiggle=2;rounded=0;fontStyle=1;fillColor=#f5f5f5;strokeColor=#666666;fontColor=#333333;" vertex="1" parent="1">
          <mxGeometry x="980" y="490" width="40" height="40" as="geometry" />
        </mxCell>
        <mxCell id="_QYD-WO2QvrmHmzMgkhw-170" value="E" style="whiteSpace=wrap;html=1;aspect=fixed;hachureGap=4;fontFamily=Courier New;fontSize=30;sketch=1;curveFitting=1;jiggle=2;rounded=0;fontStyle=1;fillColor=#f5f5f5;strokeColor=#666666;fontColor=#333333;" vertex="1" parent="1">
          <mxGeometry x="1020" y="490" width="40" height="40" as="geometry" />
        </mxCell>
        <mxCell id="_QYD-WO2QvrmHmzMgkhw-171" value="_" style="whiteSpace=wrap;html=1;aspect=fixed;hachureGap=4;fontFamily=Courier New;fontSize=30;sketch=1;curveFitting=1;jiggle=2;rounded=0;fontStyle=1;fillColor=#f5f5f5;strokeColor=#666666;fontColor=#333333;" vertex="1" parent="1">
          <mxGeometry x="740" y="490" width="40" height="40" as="geometry" />
        </mxCell>
        <mxCell id="_QYD-WO2QvrmHmzMgkhw-172" value="E" style="whiteSpace=wrap;html=1;aspect=fixed;hachureGap=4;fontFamily=Courier New;fontSize=30;sketch=1;curveFitting=1;jiggle=2;rounded=0;fontStyle=1;fillColor=#f5f5f5;strokeColor=#666666;fontColor=#333333;" vertex="1" parent="1">
          <mxGeometry x="780" y="490" width="40" height="40" as="geometry" />
        </mxCell>
        <mxCell id="_QYD-WO2QvrmHmzMgkhw-173" value="X" style="whiteSpace=wrap;html=1;aspect=fixed;hachureGap=4;fontFamily=Courier New;fontSize=30;sketch=1;curveFitting=1;jiggle=2;rounded=0;fontStyle=1;fillColor=#f5f5f5;strokeColor=#666666;fontColor=#333333;" vertex="1" parent="1">
          <mxGeometry x="820" y="490" width="40" height="40" as="geometry" />
        </mxCell>
        <mxCell id="_QYD-WO2QvrmHmzMgkhw-174" value="A" style="whiteSpace=wrap;html=1;aspect=fixed;hachureGap=4;fontFamily=Courier New;fontSize=30;sketch=1;curveFitting=1;jiggle=2;rounded=0;fontStyle=1;fillColor=#f5f5f5;strokeColor=#666666;fontColor=#333333;" vertex="1" parent="1">
          <mxGeometry x="860" y="490" width="40" height="40" as="geometry" />
        </mxCell>
        <mxCell id="_QYD-WO2QvrmHmzMgkhw-175" value="M" style="whiteSpace=wrap;html=1;aspect=fixed;hachureGap=4;fontFamily=Courier New;fontSize=30;sketch=1;curveFitting=1;jiggle=2;rounded=0;fontStyle=1;fillColor=#f5f5f5;strokeColor=#666666;fontColor=#333333;" vertex="1" parent="1">
          <mxGeometry x="900" y="490" width="40" height="40" as="geometry" />
        </mxCell>
        <mxCell id="_QYD-WO2QvrmHmzMgkhw-176" value="P" style="whiteSpace=wrap;html=1;aspect=fixed;hachureGap=4;fontFamily=Courier New;fontSize=30;sketch=1;curveFitting=1;jiggle=2;rounded=0;fontStyle=1;fillColor=#f5f5f5;strokeColor=#666666;fontColor=#333333;" vertex="1" parent="1">
          <mxGeometry x="940" y="490" width="40" height="40" as="geometry" />
        </mxCell>
        <mxCell id="_QYD-WO2QvrmHmzMgkhw-177" value="L" style="whiteSpace=wrap;html=1;aspect=fixed;hachureGap=4;fontFamily=Courier New;fontSize=30;sketch=1;curveFitting=1;jiggle=2;rounded=0;fontStyle=1;fillColor=#f5f5f5;strokeColor=#666666;fontColor=#333333;" vertex="1" parent="1">
          <mxGeometry x="660" y="555" width="40" height="40" as="geometry" />
        </mxCell>
        <mxCell id="_QYD-WO2QvrmHmzMgkhw-178" value="E" style="whiteSpace=wrap;html=1;aspect=fixed;hachureGap=4;fontFamily=Courier New;fontSize=30;sketch=1;curveFitting=1;jiggle=2;rounded=0;fontStyle=1;fillColor=#f5f5f5;strokeColor=#666666;fontColor=#333333;" vertex="1" parent="1">
          <mxGeometry x="700" y="555" width="40" height="40" as="geometry" />
        </mxCell>
        <mxCell id="_QYD-WO2QvrmHmzMgkhw-179" value="E" style="whiteSpace=wrap;html=1;aspect=fixed;hachureGap=4;fontFamily=Courier New;fontSize=30;sketch=1;curveFitting=1;jiggle=2;rounded=0;fontStyle=1;fillColor=#f5f5f5;strokeColor=#666666;fontColor=#333333;" vertex="1" parent="1">
          <mxGeometry x="460" y="555" width="40" height="40" as="geometry" />
        </mxCell>
        <mxCell id="_QYD-WO2QvrmHmzMgkhw-180" value="X" style="whiteSpace=wrap;html=1;aspect=fixed;hachureGap=4;fontFamily=Courier New;fontSize=30;sketch=1;curveFitting=1;jiggle=2;rounded=0;fontStyle=1;fillColor=#f5f5f5;strokeColor=#666666;fontColor=#333333;" vertex="1" parent="1">
          <mxGeometry x="500" y="555" width="40" height="40" as="geometry" />
        </mxCell>
        <mxCell id="_QYD-WO2QvrmHmzMgkhw-181" value="A" style="whiteSpace=wrap;html=1;aspect=fixed;hachureGap=4;fontFamily=Courier New;fontSize=30;sketch=1;curveFitting=1;jiggle=2;rounded=0;fontStyle=1;fillColor=#f5f5f5;strokeColor=#666666;fontColor=#333333;" vertex="1" parent="1">
          <mxGeometry x="540" y="555" width="40" height="40" as="geometry" />
        </mxCell>
        <mxCell id="_QYD-WO2QvrmHmzMgkhw-182" value="M" style="whiteSpace=wrap;html=1;aspect=fixed;hachureGap=4;fontFamily=Courier New;fontSize=30;sketch=1;curveFitting=1;jiggle=2;rounded=0;fontStyle=1;fillColor=#f5f5f5;strokeColor=#666666;fontColor=#333333;" vertex="1" parent="1">
          <mxGeometry x="580" y="555" width="40" height="40" as="geometry" />
        </mxCell>
        <mxCell id="_QYD-WO2QvrmHmzMgkhw-183" value="P" style="whiteSpace=wrap;html=1;aspect=fixed;hachureGap=4;fontFamily=Courier New;fontSize=30;sketch=1;curveFitting=1;jiggle=2;rounded=0;fontStyle=1;fillColor=#f5f5f5;strokeColor=#666666;fontColor=#333333;" vertex="1" parent="1">
          <mxGeometry x="620" y="555" width="40" height="40" as="geometry" />
        </mxCell>
        <mxCell id="_QYD-WO2QvrmHmzMgkhw-185" value="" style="ellipse;whiteSpace=wrap;html=1;sketch=1;hachureGap=4;jiggle=2;curveFitting=1;fontFamily=Architects Daughter;fontSource=https%3A%2F%2Ffonts.googleapis.com%2Fcss%3Ffamily%3DArchitects%2BDaughter;fontSize=20;rotation=90;fillColor=none;strokeColor=#80FF00;" vertex="1" parent="1">
          <mxGeometry x="575" y="520" width="130" height="50" as="geometry" />
        </mxCell>
        <mxCell id="_QYD-WO2QvrmHmzMgkhw-193" value="H" style="whiteSpace=wrap;html=1;aspect=fixed;hachureGap=4;fontFamily=Courier New;fontSize=30;sketch=1;curveFitting=1;jiggle=2;rounded=0;fontStyle=1;fillColor=#f5f5f5;strokeColor=#666666;fontColor=#333333;" vertex="1" parent="1">
          <mxGeometry x="100" y="770" width="40" height="40" as="geometry" />
        </mxCell>
        <mxCell id="_QYD-WO2QvrmHmzMgkhw-194" value="E" style="whiteSpace=wrap;html=1;aspect=fixed;hachureGap=4;fontFamily=Courier New;fontSize=30;sketch=1;curveFitting=1;jiggle=2;rounded=0;fontStyle=1;fillColor=#f5f5f5;strokeColor=#666666;fontColor=#333333;" vertex="1" parent="1">
          <mxGeometry x="140" y="770" width="40" height="40" as="geometry" />
        </mxCell>
        <mxCell id="_QYD-WO2QvrmHmzMgkhw-195" value="R" style="whiteSpace=wrap;html=1;aspect=fixed;hachureGap=4;fontFamily=Courier New;fontSize=30;sketch=1;curveFitting=1;jiggle=2;rounded=0;fontStyle=1;fillColor=#f5f5f5;strokeColor=#666666;fontColor=#333333;" vertex="1" parent="1">
          <mxGeometry x="180" y="770" width="40" height="40" as="geometry" />
        </mxCell>
        <mxCell id="_QYD-WO2QvrmHmzMgkhw-196" value="E" style="whiteSpace=wrap;html=1;aspect=fixed;hachureGap=4;fontFamily=Courier New;fontSize=30;sketch=1;curveFitting=1;jiggle=2;rounded=0;fontStyle=1;fillColor=#f5f5f5;strokeColor=#666666;fontColor=#333333;" vertex="1" parent="1">
          <mxGeometry x="220" y="770" width="40" height="40" as="geometry" />
        </mxCell>
        <mxCell id="_QYD-WO2QvrmHmzMgkhw-197" value="_" style="whiteSpace=wrap;html=1;aspect=fixed;hachureGap=4;fontFamily=Courier New;fontSize=30;sketch=1;curveFitting=1;jiggle=2;rounded=0;fontStyle=1;fillColor=#f5f5f5;strokeColor=#666666;fontColor=#333333;" vertex="1" parent="1">
          <mxGeometry x="260" y="770" width="40" height="40" as="geometry" />
        </mxCell>
        <mxCell id="_QYD-WO2QvrmHmzMgkhw-198" value="I" style="whiteSpace=wrap;html=1;aspect=fixed;hachureGap=4;fontFamily=Courier New;fontSize=30;sketch=1;curveFitting=1;jiggle=2;rounded=0;fontStyle=1;fillColor=#f5f5f5;strokeColor=#666666;fontColor=#333333;" vertex="1" parent="1">
          <mxGeometry x="300" y="770" width="40" height="40" as="geometry" />
        </mxCell>
        <mxCell id="_QYD-WO2QvrmHmzMgkhw-199" value="S" style="whiteSpace=wrap;html=1;aspect=fixed;hachureGap=4;fontFamily=Courier New;fontSize=30;sketch=1;curveFitting=1;jiggle=2;rounded=0;fontStyle=1;fillColor=#f5f5f5;strokeColor=#666666;fontColor=#333333;" vertex="1" parent="1">
          <mxGeometry x="340" y="770" width="40" height="40" as="geometry" />
        </mxCell>
        <mxCell id="_QYD-WO2QvrmHmzMgkhw-200" value="_" style="whiteSpace=wrap;html=1;aspect=fixed;hachureGap=4;fontFamily=Courier New;fontSize=30;sketch=1;curveFitting=1;jiggle=2;rounded=0;fontStyle=1;fillColor=#f5f5f5;strokeColor=#666666;fontColor=#333333;" vertex="1" parent="1">
          <mxGeometry x="380" y="770" width="40" height="40" as="geometry" />
        </mxCell>
        <mxCell id="_QYD-WO2QvrmHmzMgkhw-201" value="A" style="whiteSpace=wrap;html=1;aspect=fixed;hachureGap=4;fontFamily=Courier New;fontSize=30;sketch=1;curveFitting=1;jiggle=2;rounded=0;fontStyle=1;fillColor=#f5f5f5;strokeColor=#666666;fontColor=#333333;" vertex="1" parent="1">
          <mxGeometry x="420" y="770" width="40" height="40" as="geometry" />
        </mxCell>
        <mxCell id="_QYD-WO2QvrmHmzMgkhw-202" value="_" style="whiteSpace=wrap;html=1;aspect=fixed;hachureGap=4;fontFamily=Courier New;fontSize=30;sketch=1;curveFitting=1;jiggle=2;rounded=0;fontStyle=1;fillColor=#f5f5f5;strokeColor=#666666;fontColor=#333333;" vertex="1" parent="1">
          <mxGeometry x="460" y="770" width="40" height="40" as="geometry" />
        </mxCell>
        <mxCell id="_QYD-WO2QvrmHmzMgkhw-203" value="S" style="whiteSpace=wrap;html=1;aspect=fixed;hachureGap=4;fontFamily=Courier New;fontSize=30;sketch=1;curveFitting=1;jiggle=2;rounded=0;fontStyle=1;fillColor=#f5f5f5;strokeColor=#666666;fontColor=#333333;" vertex="1" parent="1">
          <mxGeometry x="500" y="770" width="40" height="40" as="geometry" />
        </mxCell>
        <mxCell id="_QYD-WO2QvrmHmzMgkhw-204" value="I" style="whiteSpace=wrap;html=1;aspect=fixed;hachureGap=4;fontFamily=Courier New;fontSize=30;sketch=1;curveFitting=1;jiggle=2;rounded=0;fontStyle=1;fillColor=#f5f5f5;strokeColor=#666666;fontColor=#333333;" vertex="1" parent="1">
          <mxGeometry x="540" y="770" width="40" height="40" as="geometry" />
        </mxCell>
        <mxCell id="_QYD-WO2QvrmHmzMgkhw-205" value="M" style="whiteSpace=wrap;html=1;aspect=fixed;hachureGap=4;fontFamily=Courier New;fontSize=30;sketch=1;curveFitting=1;jiggle=2;rounded=0;fontStyle=1;fillColor=#f5f5f5;strokeColor=#666666;fontColor=#333333;" vertex="1" parent="1">
          <mxGeometry x="580" y="770" width="40" height="40" as="geometry" />
        </mxCell>
        <mxCell id="_QYD-WO2QvrmHmzMgkhw-206" value="P" style="whiteSpace=wrap;html=1;aspect=fixed;hachureGap=4;fontFamily=Courier New;fontSize=30;sketch=1;curveFitting=1;jiggle=2;rounded=0;fontStyle=1;fillColor=#f5f5f5;strokeColor=#666666;fontColor=#333333;" vertex="1" parent="1">
          <mxGeometry x="620" y="770" width="40" height="40" as="geometry" />
        </mxCell>
        <mxCell id="_QYD-WO2QvrmHmzMgkhw-207" value="L" style="whiteSpace=wrap;html=1;aspect=fixed;hachureGap=4;fontFamily=Courier New;fontSize=30;sketch=1;curveFitting=1;jiggle=2;rounded=0;fontStyle=1;fillColor=#f5f5f5;strokeColor=#666666;fontColor=#333333;" vertex="1" parent="1">
          <mxGeometry x="660" y="770" width="40" height="40" as="geometry" />
        </mxCell>
        <mxCell id="_QYD-WO2QvrmHmzMgkhw-208" value="E" style="whiteSpace=wrap;html=1;aspect=fixed;hachureGap=4;fontFamily=Courier New;fontSize=30;sketch=1;curveFitting=1;jiggle=2;rounded=0;fontStyle=1;fillColor=#f5f5f5;strokeColor=#666666;fontColor=#333333;" vertex="1" parent="1">
          <mxGeometry x="700" y="770" width="40" height="40" as="geometry" />
        </mxCell>
        <mxCell id="_QYD-WO2QvrmHmzMgkhw-209" value="L" style="whiteSpace=wrap;html=1;aspect=fixed;hachureGap=4;fontFamily=Courier New;fontSize=30;sketch=1;curveFitting=1;jiggle=2;rounded=0;fontStyle=1;fillColor=#f5f5f5;strokeColor=#666666;fontColor=#333333;" vertex="1" parent="1">
          <mxGeometry x="980" y="770" width="40" height="40" as="geometry" />
        </mxCell>
        <mxCell id="_QYD-WO2QvrmHmzMgkhw-210" value="E" style="whiteSpace=wrap;html=1;aspect=fixed;hachureGap=4;fontFamily=Courier New;fontSize=30;sketch=1;curveFitting=1;jiggle=2;rounded=0;fontStyle=1;fillColor=#f5f5f5;strokeColor=#666666;fontColor=#333333;" vertex="1" parent="1">
          <mxGeometry x="1020" y="770" width="40" height="40" as="geometry" />
        </mxCell>
        <mxCell id="_QYD-WO2QvrmHmzMgkhw-211" value="_" style="whiteSpace=wrap;html=1;aspect=fixed;hachureGap=4;fontFamily=Courier New;fontSize=30;sketch=1;curveFitting=1;jiggle=2;rounded=0;fontStyle=1;fillColor=#f5f5f5;strokeColor=#666666;fontColor=#333333;" vertex="1" parent="1">
          <mxGeometry x="740" y="770" width="40" height="40" as="geometry" />
        </mxCell>
        <mxCell id="_QYD-WO2QvrmHmzMgkhw-212" value="E" style="whiteSpace=wrap;html=1;aspect=fixed;hachureGap=4;fontFamily=Courier New;fontSize=30;sketch=1;curveFitting=1;jiggle=2;rounded=0;fontStyle=1;fillColor=#f5f5f5;strokeColor=#666666;fontColor=#333333;" vertex="1" parent="1">
          <mxGeometry x="780" y="770" width="40" height="40" as="geometry" />
        </mxCell>
        <mxCell id="_QYD-WO2QvrmHmzMgkhw-213" value="X" style="whiteSpace=wrap;html=1;aspect=fixed;hachureGap=4;fontFamily=Courier New;fontSize=30;sketch=1;curveFitting=1;jiggle=2;rounded=0;fontStyle=1;fillColor=#f5f5f5;strokeColor=#666666;fontColor=#333333;" vertex="1" parent="1">
          <mxGeometry x="820" y="770" width="40" height="40" as="geometry" />
        </mxCell>
        <mxCell id="_QYD-WO2QvrmHmzMgkhw-214" value="A" style="whiteSpace=wrap;html=1;aspect=fixed;hachureGap=4;fontFamily=Courier New;fontSize=30;sketch=1;curveFitting=1;jiggle=2;rounded=0;fontStyle=1;fillColor=#f5f5f5;strokeColor=#666666;fontColor=#333333;" vertex="1" parent="1">
          <mxGeometry x="860" y="770" width="40" height="40" as="geometry" />
        </mxCell>
        <mxCell id="_QYD-WO2QvrmHmzMgkhw-215" value="M" style="whiteSpace=wrap;html=1;aspect=fixed;hachureGap=4;fontFamily=Courier New;fontSize=30;sketch=1;curveFitting=1;jiggle=2;rounded=0;fontStyle=1;fillColor=#f5f5f5;strokeColor=#666666;fontColor=#333333;" vertex="1" parent="1">
          <mxGeometry x="900" y="770" width="40" height="40" as="geometry" />
        </mxCell>
        <mxCell id="_QYD-WO2QvrmHmzMgkhw-216" value="P" style="whiteSpace=wrap;html=1;aspect=fixed;hachureGap=4;fontFamily=Courier New;fontSize=30;sketch=1;curveFitting=1;jiggle=2;rounded=0;fontStyle=1;fillColor=#f5f5f5;strokeColor=#666666;fontColor=#333333;" vertex="1" parent="1">
          <mxGeometry x="940" y="770" width="40" height="40" as="geometry" />
        </mxCell>
        <mxCell id="_QYD-WO2QvrmHmzMgkhw-217" value="L" style="whiteSpace=wrap;html=1;aspect=fixed;hachureGap=4;fontFamily=Courier New;fontSize=30;sketch=1;curveFitting=1;jiggle=2;rounded=0;fontStyle=1;fillColor=#f5f5f5;strokeColor=#666666;fontColor=#333333;" vertex="1" parent="1">
          <mxGeometry x="660" y="835" width="40" height="40" as="geometry" />
        </mxCell>
        <mxCell id="_QYD-WO2QvrmHmzMgkhw-218" value="E" style="whiteSpace=wrap;html=1;aspect=fixed;hachureGap=4;fontFamily=Courier New;fontSize=30;sketch=1;curveFitting=1;jiggle=2;rounded=0;fontStyle=1;fillColor=#f5f5f5;strokeColor=#666666;fontColor=#333333;" vertex="1" parent="1">
          <mxGeometry x="700" y="835" width="40" height="40" as="geometry" />
        </mxCell>
        <mxCell id="_QYD-WO2QvrmHmzMgkhw-219" value="E" style="whiteSpace=wrap;html=1;aspect=fixed;hachureGap=4;fontFamily=Courier New;fontSize=30;sketch=1;curveFitting=1;jiggle=2;rounded=0;fontStyle=1;fillColor=#f5f5f5;strokeColor=#666666;fontColor=#333333;" vertex="1" parent="1">
          <mxGeometry x="460" y="835" width="40" height="40" as="geometry" />
        </mxCell>
        <mxCell id="_QYD-WO2QvrmHmzMgkhw-220" value="X" style="whiteSpace=wrap;html=1;aspect=fixed;hachureGap=4;fontFamily=Courier New;fontSize=30;sketch=1;curveFitting=1;jiggle=2;rounded=0;fontStyle=1;fillColor=#f5f5f5;strokeColor=#666666;fontColor=#333333;" vertex="1" parent="1">
          <mxGeometry x="500" y="835" width="40" height="40" as="geometry" />
        </mxCell>
        <mxCell id="_QYD-WO2QvrmHmzMgkhw-221" value="A" style="whiteSpace=wrap;html=1;aspect=fixed;hachureGap=4;fontFamily=Courier New;fontSize=30;sketch=1;curveFitting=1;jiggle=2;rounded=0;fontStyle=1;fillColor=#f5f5f5;strokeColor=#666666;fontColor=#333333;" vertex="1" parent="1">
          <mxGeometry x="540" y="835" width="40" height="40" as="geometry" />
        </mxCell>
        <mxCell id="_QYD-WO2QvrmHmzMgkhw-222" value="M" style="whiteSpace=wrap;html=1;aspect=fixed;hachureGap=4;fontFamily=Courier New;fontSize=30;sketch=1;curveFitting=1;jiggle=2;rounded=0;fontStyle=1;fillColor=#f5f5f5;strokeColor=#666666;fontColor=#333333;" vertex="1" parent="1">
          <mxGeometry x="580" y="835" width="40" height="40" as="geometry" />
        </mxCell>
        <mxCell id="_QYD-WO2QvrmHmzMgkhw-223" value="P" style="whiteSpace=wrap;html=1;aspect=fixed;hachureGap=4;fontFamily=Courier New;fontSize=30;sketch=1;curveFitting=1;jiggle=2;rounded=0;fontStyle=1;fillColor=#f5f5f5;strokeColor=#666666;fontColor=#333333;" vertex="1" parent="1">
          <mxGeometry x="620" y="835" width="40" height="40" as="geometry" />
        </mxCell>
        <mxCell id="_QYD-WO2QvrmHmzMgkhw-225" value="" style="ellipse;whiteSpace=wrap;html=1;sketch=1;hachureGap=4;jiggle=2;curveFitting=1;fontFamily=Architects Daughter;fontSource=https%3A%2F%2Ffonts.googleapis.com%2Fcss%3Ffamily%3DArchitects%2BDaughter;fontSize=20;rotation=90;fillColor=none;strokeColor=#FF0000;" vertex="1" parent="1">
          <mxGeometry x="495" y="800" width="130" height="50" as="geometry" />
        </mxCell>
        <mxCell id="_QYD-WO2QvrmHmzMgkhw-227" value="" style="rounded=1;whiteSpace=wrap;html=1;sketch=1;hachureGap=4;jiggle=2;curveFitting=1;fontFamily=Architects Daughter;fontSource=https%3A%2F%2Ffonts.googleapis.com%2Fcss%3Ffamily%3DArchitects%2BDaughter;fontSize=20;fillColor=none;strokeColor=#007FFF;strokeWidth=1;" vertex="1" parent="1">
          <mxGeometry x="580" y="765" width="160" height="50" as="geometry" />
        </mxCell>
        <mxCell id="_QYD-WO2QvrmHmzMgkhw-228" value="" style="rounded=1;whiteSpace=wrap;html=1;sketch=1;hachureGap=4;jiggle=2;curveFitting=1;fontFamily=Architects Daughter;fontSource=https%3A%2F%2Ffonts.googleapis.com%2Fcss%3Ffamily%3DArchitects%2BDaughter;fontSize=20;fillColor=none;strokeColor=#007FFF;strokeWidth=1;" vertex="1" parent="1">
          <mxGeometry x="580" y="830" width="160" height="50" as="geometry" />
        </mxCell>
        <mxCell id="_QYD-WO2QvrmHmzMgkhw-263" value="H" style="whiteSpace=wrap;html=1;aspect=fixed;hachureGap=4;fontFamily=Courier New;fontSize=30;sketch=1;curveFitting=1;jiggle=2;rounded=0;fontStyle=1;fillColor=#f5f5f5;strokeColor=#666666;fontColor=#333333;" vertex="1" parent="1">
          <mxGeometry x="100" y="1345" width="40" height="40" as="geometry" />
        </mxCell>
        <mxCell id="_QYD-WO2QvrmHmzMgkhw-264" value="E" style="whiteSpace=wrap;html=1;aspect=fixed;hachureGap=4;fontFamily=Courier New;fontSize=30;sketch=1;curveFitting=1;jiggle=2;rounded=0;fontStyle=1;fillColor=#f5f5f5;strokeColor=#666666;fontColor=#333333;" vertex="1" parent="1">
          <mxGeometry x="140" y="1345" width="40" height="40" as="geometry" />
        </mxCell>
        <mxCell id="_QYD-WO2QvrmHmzMgkhw-265" value="R" style="whiteSpace=wrap;html=1;aspect=fixed;hachureGap=4;fontFamily=Courier New;fontSize=30;sketch=1;curveFitting=1;jiggle=2;rounded=0;fontStyle=1;fillColor=#f5f5f5;strokeColor=#666666;fontColor=#333333;" vertex="1" parent="1">
          <mxGeometry x="180" y="1345" width="40" height="40" as="geometry" />
        </mxCell>
        <mxCell id="_QYD-WO2QvrmHmzMgkhw-266" value="E" style="whiteSpace=wrap;html=1;aspect=fixed;hachureGap=4;fontFamily=Courier New;fontSize=30;sketch=1;curveFitting=1;jiggle=2;rounded=0;fontStyle=1;fillColor=#f5f5f5;strokeColor=#666666;fontColor=#333333;" vertex="1" parent="1">
          <mxGeometry x="220" y="1345" width="40" height="40" as="geometry" />
        </mxCell>
        <mxCell id="_QYD-WO2QvrmHmzMgkhw-267" value="_" style="whiteSpace=wrap;html=1;aspect=fixed;hachureGap=4;fontFamily=Courier New;fontSize=30;sketch=1;curveFitting=1;jiggle=2;rounded=0;fontStyle=1;fillColor=#f5f5f5;strokeColor=#666666;fontColor=#333333;" vertex="1" parent="1">
          <mxGeometry x="260" y="1345" width="40" height="40" as="geometry" />
        </mxCell>
        <mxCell id="_QYD-WO2QvrmHmzMgkhw-268" value="I" style="whiteSpace=wrap;html=1;aspect=fixed;hachureGap=4;fontFamily=Courier New;fontSize=30;sketch=1;curveFitting=1;jiggle=2;rounded=0;fontStyle=1;fillColor=#f5f5f5;strokeColor=#666666;fontColor=#333333;" vertex="1" parent="1">
          <mxGeometry x="300" y="1345" width="40" height="40" as="geometry" />
        </mxCell>
        <mxCell id="_QYD-WO2QvrmHmzMgkhw-269" value="S" style="whiteSpace=wrap;html=1;aspect=fixed;hachureGap=4;fontFamily=Courier New;fontSize=30;sketch=1;curveFitting=1;jiggle=2;rounded=0;fontStyle=1;fillColor=#f5f5f5;strokeColor=#666666;fontColor=#333333;" vertex="1" parent="1">
          <mxGeometry x="340" y="1345" width="40" height="40" as="geometry" />
        </mxCell>
        <mxCell id="_QYD-WO2QvrmHmzMgkhw-270" value="_" style="whiteSpace=wrap;html=1;aspect=fixed;hachureGap=4;fontFamily=Courier New;fontSize=30;sketch=1;curveFitting=1;jiggle=2;rounded=0;fontStyle=1;fillColor=#f5f5f5;strokeColor=#666666;fontColor=#333333;" vertex="1" parent="1">
          <mxGeometry x="380" y="1345" width="40" height="40" as="geometry" />
        </mxCell>
        <mxCell id="_QYD-WO2QvrmHmzMgkhw-271" value="A" style="whiteSpace=wrap;html=1;aspect=fixed;hachureGap=4;fontFamily=Courier New;fontSize=30;sketch=1;curveFitting=1;jiggle=2;rounded=0;fontStyle=1;fillColor=#f5f5f5;strokeColor=#666666;fontColor=#333333;" vertex="1" parent="1">
          <mxGeometry x="420" y="1345" width="40" height="40" as="geometry" />
        </mxCell>
        <mxCell id="_QYD-WO2QvrmHmzMgkhw-272" value="_" style="whiteSpace=wrap;html=1;aspect=fixed;hachureGap=4;fontFamily=Courier New;fontSize=30;sketch=1;curveFitting=1;jiggle=2;rounded=0;fontStyle=1;fillColor=#f5f5f5;strokeColor=#666666;fontColor=#333333;" vertex="1" parent="1">
          <mxGeometry x="460" y="1345" width="40" height="40" as="geometry" />
        </mxCell>
        <mxCell id="_QYD-WO2QvrmHmzMgkhw-273" value="S" style="whiteSpace=wrap;html=1;aspect=fixed;hachureGap=4;fontFamily=Courier New;fontSize=30;sketch=1;curveFitting=1;jiggle=2;rounded=0;fontStyle=1;fillColor=#f5f5f5;strokeColor=#666666;fontColor=#333333;" vertex="1" parent="1">
          <mxGeometry x="500" y="1345" width="40" height="40" as="geometry" />
        </mxCell>
        <mxCell id="_QYD-WO2QvrmHmzMgkhw-274" value="I" style="whiteSpace=wrap;html=1;aspect=fixed;hachureGap=4;fontFamily=Courier New;fontSize=30;sketch=1;curveFitting=1;jiggle=2;rounded=0;fontStyle=1;fillColor=#f5f5f5;strokeColor=#666666;fontColor=#333333;" vertex="1" parent="1">
          <mxGeometry x="540" y="1345" width="40" height="40" as="geometry" />
        </mxCell>
        <mxCell id="_QYD-WO2QvrmHmzMgkhw-275" value="M" style="whiteSpace=wrap;html=1;aspect=fixed;hachureGap=4;fontFamily=Courier New;fontSize=30;sketch=1;curveFitting=1;jiggle=2;rounded=0;fontStyle=1;fillColor=#f5f5f5;strokeColor=#666666;fontColor=#333333;" vertex="1" parent="1">
          <mxGeometry x="580" y="1345" width="40" height="40" as="geometry" />
        </mxCell>
        <mxCell id="_QYD-WO2QvrmHmzMgkhw-276" value="P" style="whiteSpace=wrap;html=1;aspect=fixed;hachureGap=4;fontFamily=Courier New;fontSize=30;sketch=1;curveFitting=1;jiggle=2;rounded=0;fontStyle=1;fillColor=#f5f5f5;strokeColor=#666666;fontColor=#333333;" vertex="1" parent="1">
          <mxGeometry x="620" y="1345" width="40" height="40" as="geometry" />
        </mxCell>
        <mxCell id="_QYD-WO2QvrmHmzMgkhw-277" value="L" style="whiteSpace=wrap;html=1;aspect=fixed;hachureGap=4;fontFamily=Courier New;fontSize=30;sketch=1;curveFitting=1;jiggle=2;rounded=0;fontStyle=1;fillColor=#f5f5f5;strokeColor=#666666;fontColor=#333333;" vertex="1" parent="1">
          <mxGeometry x="660" y="1345" width="40" height="40" as="geometry" />
        </mxCell>
        <mxCell id="_QYD-WO2QvrmHmzMgkhw-278" value="E" style="whiteSpace=wrap;html=1;aspect=fixed;hachureGap=4;fontFamily=Courier New;fontSize=30;sketch=1;curveFitting=1;jiggle=2;rounded=0;fontStyle=1;fillColor=#f5f5f5;strokeColor=#666666;fontColor=#333333;" vertex="1" parent="1">
          <mxGeometry x="700" y="1345" width="40" height="40" as="geometry" />
        </mxCell>
        <mxCell id="_QYD-WO2QvrmHmzMgkhw-279" value="L" style="whiteSpace=wrap;html=1;aspect=fixed;hachureGap=4;fontFamily=Courier New;fontSize=30;sketch=1;curveFitting=1;jiggle=2;rounded=0;fontStyle=1;fillColor=#f5f5f5;strokeColor=#666666;fontColor=#333333;" vertex="1" parent="1">
          <mxGeometry x="980" y="1345" width="40" height="40" as="geometry" />
        </mxCell>
        <mxCell id="_QYD-WO2QvrmHmzMgkhw-280" value="E" style="whiteSpace=wrap;html=1;aspect=fixed;hachureGap=4;fontFamily=Courier New;fontSize=30;sketch=1;curveFitting=1;jiggle=2;rounded=0;fontStyle=1;fillColor=#f5f5f5;strokeColor=#666666;fontColor=#333333;" vertex="1" parent="1">
          <mxGeometry x="1020" y="1345" width="40" height="40" as="geometry" />
        </mxCell>
        <mxCell id="_QYD-WO2QvrmHmzMgkhw-281" value="_" style="whiteSpace=wrap;html=1;aspect=fixed;hachureGap=4;fontFamily=Courier New;fontSize=30;sketch=1;curveFitting=1;jiggle=2;rounded=0;fontStyle=1;fillColor=#f5f5f5;strokeColor=#666666;fontColor=#333333;" vertex="1" parent="1">
          <mxGeometry x="740" y="1345" width="40" height="40" as="geometry" />
        </mxCell>
        <mxCell id="_QYD-WO2QvrmHmzMgkhw-282" value="E" style="whiteSpace=wrap;html=1;aspect=fixed;hachureGap=4;fontFamily=Courier New;fontSize=30;sketch=1;curveFitting=1;jiggle=2;rounded=0;fontStyle=1;fillColor=#f5f5f5;strokeColor=#666666;fontColor=#333333;" vertex="1" parent="1">
          <mxGeometry x="780" y="1345" width="40" height="40" as="geometry" />
        </mxCell>
        <mxCell id="_QYD-WO2QvrmHmzMgkhw-283" value="X" style="whiteSpace=wrap;html=1;aspect=fixed;hachureGap=4;fontFamily=Courier New;fontSize=30;sketch=1;curveFitting=1;jiggle=2;rounded=0;fontStyle=1;fillColor=#f5f5f5;strokeColor=#666666;fontColor=#333333;" vertex="1" parent="1">
          <mxGeometry x="820" y="1345" width="40" height="40" as="geometry" />
        </mxCell>
        <mxCell id="_QYD-WO2QvrmHmzMgkhw-284" value="A" style="whiteSpace=wrap;html=1;aspect=fixed;hachureGap=4;fontFamily=Courier New;fontSize=30;sketch=1;curveFitting=1;jiggle=2;rounded=0;fontStyle=1;fillColor=#f5f5f5;strokeColor=#666666;fontColor=#333333;" vertex="1" parent="1">
          <mxGeometry x="860" y="1345" width="40" height="40" as="geometry" />
        </mxCell>
        <mxCell id="_QYD-WO2QvrmHmzMgkhw-285" value="M" style="whiteSpace=wrap;html=1;aspect=fixed;hachureGap=4;fontFamily=Courier New;fontSize=30;sketch=1;curveFitting=1;jiggle=2;rounded=0;fontStyle=1;fillColor=#f5f5f5;strokeColor=#666666;fontColor=#333333;" vertex="1" parent="1">
          <mxGeometry x="900" y="1345" width="40" height="40" as="geometry" />
        </mxCell>
        <mxCell id="_QYD-WO2QvrmHmzMgkhw-286" value="P" style="whiteSpace=wrap;html=1;aspect=fixed;hachureGap=4;fontFamily=Courier New;fontSize=30;sketch=1;curveFitting=1;jiggle=2;rounded=0;fontStyle=1;fillColor=#f5f5f5;strokeColor=#666666;fontColor=#333333;" vertex="1" parent="1">
          <mxGeometry x="940" y="1345" width="40" height="40" as="geometry" />
        </mxCell>
        <mxCell id="_QYD-WO2QvrmHmzMgkhw-287" value="L" style="whiteSpace=wrap;html=1;aspect=fixed;hachureGap=4;fontFamily=Courier New;fontSize=30;sketch=1;curveFitting=1;jiggle=2;rounded=0;fontStyle=1;fillColor=#f5f5f5;strokeColor=#666666;fontColor=#333333;" vertex="1" parent="1">
          <mxGeometry x="780" y="1265" width="40" height="40" as="geometry" />
        </mxCell>
        <mxCell id="_QYD-WO2QvrmHmzMgkhw-288" value="E" style="whiteSpace=wrap;html=1;aspect=fixed;hachureGap=4;fontFamily=Courier New;fontSize=30;sketch=1;curveFitting=1;jiggle=2;rounded=0;fontStyle=1;fillColor=#f5f5f5;strokeColor=#666666;fontColor=#333333;" vertex="1" parent="1">
          <mxGeometry x="820" y="1265" width="40" height="40" as="geometry" />
        </mxCell>
        <mxCell id="_QYD-WO2QvrmHmzMgkhw-289" value="E" style="whiteSpace=wrap;html=1;aspect=fixed;hachureGap=4;fontFamily=Courier New;fontSize=30;sketch=1;curveFitting=1;jiggle=2;rounded=0;fontStyle=1;fillColor=#f5f5f5;strokeColor=#666666;fontColor=#333333;" vertex="1" parent="1">
          <mxGeometry x="580" y="1265" width="40" height="40" as="geometry" />
        </mxCell>
        <mxCell id="_QYD-WO2QvrmHmzMgkhw-290" value="X" style="whiteSpace=wrap;html=1;aspect=fixed;hachureGap=4;fontFamily=Courier New;fontSize=30;sketch=1;curveFitting=1;jiggle=2;rounded=0;fontStyle=1;fillColor=#f5f5f5;strokeColor=#666666;fontColor=#333333;" vertex="1" parent="1">
          <mxGeometry x="620" y="1265" width="40" height="40" as="geometry" />
        </mxCell>
        <mxCell id="_QYD-WO2QvrmHmzMgkhw-291" value="A" style="whiteSpace=wrap;html=1;aspect=fixed;hachureGap=4;fontFamily=Courier New;fontSize=30;sketch=1;curveFitting=1;jiggle=2;rounded=0;fontStyle=1;fillColor=#f5f5f5;strokeColor=#666666;fontColor=#333333;" vertex="1" parent="1">
          <mxGeometry x="660" y="1265" width="40" height="40" as="geometry" />
        </mxCell>
        <mxCell id="_QYD-WO2QvrmHmzMgkhw-292" value="M" style="whiteSpace=wrap;html=1;aspect=fixed;hachureGap=4;fontFamily=Courier New;fontSize=30;sketch=1;curveFitting=1;jiggle=2;rounded=0;fontStyle=1;fillColor=#f5f5f5;strokeColor=#666666;fontColor=#333333;" vertex="1" parent="1">
          <mxGeometry x="700" y="1265" width="40" height="40" as="geometry" />
        </mxCell>
        <mxCell id="_QYD-WO2QvrmHmzMgkhw-293" value="P" style="whiteSpace=wrap;html=1;aspect=fixed;hachureGap=4;fontFamily=Courier New;fontSize=30;sketch=1;curveFitting=1;jiggle=2;rounded=0;fontStyle=1;fillColor=#f5f5f5;strokeColor=#666666;fontColor=#333333;" vertex="1" parent="1">
          <mxGeometry x="740" y="1265" width="40" height="40" as="geometry" />
        </mxCell>
        <mxCell id="_QYD-WO2QvrmHmzMgkhw-295" value="" style="rounded=1;whiteSpace=wrap;html=1;sketch=1;hachureGap=4;jiggle=2;curveFitting=1;fontFamily=Architects Daughter;fontSource=https%3A%2F%2Ffonts.googleapis.com%2Fcss%3Ffamily%3DArchitects%2BDaughter;fontSize=20;fillColor=none;strokeColor=#007FFF;strokeWidth=1;" vertex="1" parent="1">
          <mxGeometry x="580" y="1340" width="160" height="50" as="geometry" />
        </mxCell>
        <mxCell id="_QYD-WO2QvrmHmzMgkhw-296" value="" style="rounded=1;whiteSpace=wrap;html=1;sketch=1;hachureGap=4;jiggle=2;curveFitting=1;fontFamily=Architects Daughter;fontSource=https%3A%2F%2Ffonts.googleapis.com%2Fcss%3Ffamily%3DArchitects%2BDaughter;fontSize=20;fillColor=none;strokeColor=#007FFF;strokeWidth=1;" vertex="1" parent="1">
          <mxGeometry x="700" y="1260" width="160" height="50" as="geometry" />
        </mxCell>
        <mxCell id="_QYD-WO2QvrmHmzMgkhw-297" value="" style="ellipse;whiteSpace=wrap;html=1;aspect=fixed;sketch=1;hachureGap=4;jiggle=2;curveFitting=1;fontFamily=Architects Daughter;fontSource=https%3A%2F%2Ffonts.googleapis.com%2Fcss%3Ffamily%3DArchitects%2BDaughter;fontSize=20;fillColor=none;strokeColor=#FF0000;" vertex="1" parent="1">
          <mxGeometry x="535" y="1340" width="50" height="50" as="geometry" />
        </mxCell>
        <mxCell id="_QYD-WO2QvrmHmzMgkhw-298" value="" style="ellipse;whiteSpace=wrap;html=1;aspect=fixed;sketch=1;hachureGap=4;jiggle=2;curveFitting=1;fontFamily=Architects Daughter;fontSource=https%3A%2F%2Ffonts.googleapis.com%2Fcss%3Ffamily%3DArchitects%2BDaughter;fontSize=20;fillColor=none;strokeColor=#FF0000;" vertex="1" parent="1">
          <mxGeometry x="655" y="1260" width="50" height="50" as="geometry" />
        </mxCell>
        <mxCell id="_QYD-WO2QvrmHmzMgkhw-299" value="L" style="whiteSpace=wrap;html=1;aspect=fixed;hachureGap=4;fontFamily=Courier New;fontSize=30;sketch=1;curveFitting=1;jiggle=2;rounded=0;fontStyle=1;fillColor=#f5f5f5;strokeColor=#666666;fontColor=#333333;" vertex="1" parent="1">
          <mxGeometry x="900" y="1425" width="40" height="40" as="geometry" />
        </mxCell>
        <mxCell id="_QYD-WO2QvrmHmzMgkhw-300" value="E" style="whiteSpace=wrap;html=1;aspect=fixed;hachureGap=4;fontFamily=Courier New;fontSize=30;sketch=1;curveFitting=1;jiggle=2;rounded=0;fontStyle=1;fillColor=#f5f5f5;strokeColor=#666666;fontColor=#333333;" vertex="1" parent="1">
          <mxGeometry x="940" y="1425" width="40" height="40" as="geometry" />
        </mxCell>
        <mxCell id="_QYD-WO2QvrmHmzMgkhw-301" value="E" style="whiteSpace=wrap;html=1;aspect=fixed;hachureGap=4;fontFamily=Courier New;fontSize=30;sketch=1;curveFitting=1;jiggle=2;rounded=0;fontStyle=1;fillColor=#f5f5f5;strokeColor=#666666;fontColor=#333333;" vertex="1" parent="1">
          <mxGeometry x="700" y="1425" width="40" height="40" as="geometry" />
        </mxCell>
        <mxCell id="_QYD-WO2QvrmHmzMgkhw-302" value="X" style="whiteSpace=wrap;html=1;aspect=fixed;hachureGap=4;fontFamily=Courier New;fontSize=30;sketch=1;curveFitting=1;jiggle=2;rounded=0;fontStyle=1;fillColor=#f5f5f5;strokeColor=#666666;fontColor=#333333;" vertex="1" parent="1">
          <mxGeometry x="740" y="1425" width="40" height="40" as="geometry" />
        </mxCell>
        <mxCell id="_QYD-WO2QvrmHmzMgkhw-303" value="A" style="whiteSpace=wrap;html=1;aspect=fixed;hachureGap=4;fontFamily=Courier New;fontSize=30;sketch=1;curveFitting=1;jiggle=2;rounded=0;fontStyle=1;fillColor=#f5f5f5;strokeColor=#666666;fontColor=#333333;" vertex="1" parent="1">
          <mxGeometry x="780" y="1425" width="40" height="40" as="geometry" />
        </mxCell>
        <mxCell id="_QYD-WO2QvrmHmzMgkhw-304" value="M" style="whiteSpace=wrap;html=1;aspect=fixed;hachureGap=4;fontFamily=Courier New;fontSize=30;sketch=1;curveFitting=1;jiggle=2;rounded=0;fontStyle=1;fillColor=#f5f5f5;strokeColor=#666666;fontColor=#333333;" vertex="1" parent="1">
          <mxGeometry x="820" y="1425" width="40" height="40" as="geometry" />
        </mxCell>
        <mxCell id="_QYD-WO2QvrmHmzMgkhw-305" value="P" style="whiteSpace=wrap;html=1;aspect=fixed;hachureGap=4;fontFamily=Courier New;fontSize=30;sketch=1;curveFitting=1;jiggle=2;rounded=0;fontStyle=1;fillColor=#f5f5f5;strokeColor=#666666;fontColor=#333333;" vertex="1" parent="1">
          <mxGeometry x="860" y="1425" width="40" height="40" as="geometry" />
        </mxCell>
        <mxCell id="_QYD-WO2QvrmHmzMgkhw-308" value="" style="ellipse;whiteSpace=wrap;html=1;aspect=fixed;hachureGap=4;fontFamily=Architects Daughter;fontSource=https%3A%2F%2Ffonts.googleapis.com%2Fcss%3Ffamily%3DArchitects%2BDaughter;fontSize=20;fillColor=none;strokeColor=#00CC00;sketch=1;curveFitting=1;jiggle=2;" vertex="1" parent="1">
          <mxGeometry x="695" y="830" width="50" height="50" as="geometry" />
        </mxCell>
        <mxCell id="_QYD-WO2QvrmHmzMgkhw-309" value="" style="ellipse;whiteSpace=wrap;html=1;aspect=fixed;hachureGap=4;fontFamily=Architects Daughter;fontSource=https%3A%2F%2Ffonts.googleapis.com%2Fcss%3Ffamily%3DArchitects%2BDaughter;fontSize=20;fillColor=none;strokeColor=#00CC00;sketch=1;curveFitting=1;jiggle=2;" vertex="1" parent="1">
          <mxGeometry x="695" y="765" width="50" height="50" as="geometry" />
        </mxCell>
        <mxCell id="_QYD-WO2QvrmHmzMgkhw-311" value="" style="ellipse;whiteSpace=wrap;html=1;aspect=fixed;hachureGap=4;fontFamily=Architects Daughter;fontSource=https%3A%2F%2Ffonts.googleapis.com%2Fcss%3Ffamily%3DArchitects%2BDaughter;fontSize=20;fillColor=none;strokeColor=#00CC00;sketch=1;curveFitting=1;jiggle=2;" vertex="1" parent="1">
          <mxGeometry x="455" y="830" width="50" height="50" as="geometry" />
        </mxCell>
        <mxCell id="_QYD-WO2QvrmHmzMgkhw-312" value="" style="ellipse;whiteSpace=wrap;html=1;aspect=fixed;hachureGap=4;fontFamily=Architects Daughter;fontSource=https%3A%2F%2Ffonts.googleapis.com%2Fcss%3Ffamily%3DArchitects%2BDaughter;fontSize=20;fillColor=none;strokeColor=#00CC00;sketch=1;curveFitting=1;jiggle=2;" vertex="1" parent="1">
          <mxGeometry x="695" y="1340" width="50" height="50" as="geometry" />
        </mxCell>
        <mxCell id="_QYD-WO2QvrmHmzMgkhw-313" value="" style="ellipse;whiteSpace=wrap;html=1;aspect=fixed;hachureGap=4;fontFamily=Architects Daughter;fontSource=https%3A%2F%2Ffonts.googleapis.com%2Fcss%3Ffamily%3DArchitects%2BDaughter;fontSize=20;fillColor=none;strokeColor=#00CC00;sketch=1;curveFitting=1;jiggle=2;" vertex="1" parent="1">
          <mxGeometry x="695" y="1420" width="50" height="50" as="geometry" />
        </mxCell>
        <mxCell id="_QYD-WO2QvrmHmzMgkhw-314" value="" style="ellipse;whiteSpace=wrap;html=1;aspect=fixed;hachureGap=4;fontFamily=Architects Daughter;fontSource=https%3A%2F%2Ffonts.googleapis.com%2Fcss%3Ffamily%3DArchitects%2BDaughter;fontSize=20;fillColor=none;strokeColor=#00CC00;sketch=1;curveFitting=1;jiggle=2;" vertex="1" parent="1">
          <mxGeometry x="935" y="1420" width="50" height="50" as="geometry" />
        </mxCell>
        <mxCell id="_QYD-WO2QvrmHmzMgkhw-316" value="L" style="whiteSpace=wrap;html=1;aspect=fixed;hachureGap=4;fontFamily=Courier New;fontSize=30;sketch=1;curveFitting=1;jiggle=2;rounded=0;fontStyle=1;fillColor=#f5f5f5;strokeColor=#666666;fontColor=#333333;" vertex="1" parent="1">
          <mxGeometry x="660" y="1505" width="40" height="40" as="geometry" />
        </mxCell>
        <mxCell id="_QYD-WO2QvrmHmzMgkhw-317" value="E" style="whiteSpace=wrap;html=1;aspect=fixed;hachureGap=4;fontFamily=Courier New;fontSize=30;sketch=1;curveFitting=1;jiggle=2;rounded=0;fontStyle=1;fillColor=#f5f5f5;strokeColor=#666666;fontColor=#333333;" vertex="1" parent="1">
          <mxGeometry x="700" y="1505" width="40" height="40" as="geometry" />
        </mxCell>
        <mxCell id="_QYD-WO2QvrmHmzMgkhw-318" value="E" style="whiteSpace=wrap;html=1;aspect=fixed;hachureGap=4;fontFamily=Courier New;fontSize=30;sketch=1;curveFitting=1;jiggle=2;rounded=0;fontStyle=1;fillColor=#f5f5f5;strokeColor=#666666;fontColor=#333333;" vertex="1" parent="1">
          <mxGeometry x="460" y="1505" width="40" height="40" as="geometry" />
        </mxCell>
        <mxCell id="_QYD-WO2QvrmHmzMgkhw-319" value="X" style="whiteSpace=wrap;html=1;aspect=fixed;hachureGap=4;fontFamily=Courier New;fontSize=30;sketch=1;curveFitting=1;jiggle=2;rounded=0;fontStyle=1;fillColor=#f5f5f5;strokeColor=#666666;fontColor=#333333;" vertex="1" parent="1">
          <mxGeometry x="500" y="1505" width="40" height="40" as="geometry" />
        </mxCell>
        <mxCell id="_QYD-WO2QvrmHmzMgkhw-320" value="A" style="whiteSpace=wrap;html=1;aspect=fixed;hachureGap=4;fontFamily=Courier New;fontSize=30;sketch=1;curveFitting=1;jiggle=2;rounded=0;fontStyle=1;fillColor=#f5f5f5;strokeColor=#666666;fontColor=#333333;" vertex="1" parent="1">
          <mxGeometry x="540" y="1505" width="40" height="40" as="geometry" />
        </mxCell>
        <mxCell id="_QYD-WO2QvrmHmzMgkhw-321" value="M" style="whiteSpace=wrap;html=1;aspect=fixed;hachureGap=4;fontFamily=Courier New;fontSize=30;sketch=1;curveFitting=1;jiggle=2;rounded=0;fontStyle=1;fillColor=#f5f5f5;strokeColor=#666666;fontColor=#333333;" vertex="1" parent="1">
          <mxGeometry x="580" y="1505" width="40" height="40" as="geometry" />
        </mxCell>
        <mxCell id="_QYD-WO2QvrmHmzMgkhw-322" value="P" style="whiteSpace=wrap;html=1;aspect=fixed;hachureGap=4;fontFamily=Courier New;fontSize=30;sketch=1;curveFitting=1;jiggle=2;rounded=0;fontStyle=1;fillColor=#f5f5f5;strokeColor=#666666;fontColor=#333333;" vertex="1" parent="1">
          <mxGeometry x="620" y="1505" width="40" height="40" as="geometry" />
        </mxCell>
        <mxCell id="_QYD-WO2QvrmHmzMgkhw-323" value="" style="rounded=1;whiteSpace=wrap;html=1;sketch=1;hachureGap=4;jiggle=2;curveFitting=1;fontFamily=Architects Daughter;fontSource=https%3A%2F%2Ffonts.googleapis.com%2Fcss%3Ffamily%3DArchitects%2BDaughter;fontSize=20;fillColor=none;strokeColor=#007FFF;strokeWidth=1;" vertex="1" parent="1">
          <mxGeometry x="580" y="1500" width="160" height="50" as="geometry" />
        </mxCell>
        <mxCell id="_QYD-WO2QvrmHmzMgkhw-324" value="" style="ellipse;whiteSpace=wrap;html=1;aspect=fixed;hachureGap=4;fontFamily=Architects Daughter;fontSource=https%3A%2F%2Ffonts.googleapis.com%2Fcss%3Ffamily%3DArchitects%2BDaughter;fontSize=20;fillColor=none;strokeColor=#00CC00;sketch=1;curveFitting=1;jiggle=2;" vertex="1" parent="1">
          <mxGeometry x="695" y="1500" width="50" height="50" as="geometry" />
        </mxCell>
        <mxCell id="_QYD-WO2QvrmHmzMgkhw-325" value="" style="ellipse;whiteSpace=wrap;html=1;aspect=fixed;hachureGap=4;fontFamily=Architects Daughter;fontSource=https%3A%2F%2Ffonts.googleapis.com%2Fcss%3Ffamily%3DArchitects%2BDaughter;fontSize=20;fillColor=none;strokeColor=#00CC00;sketch=1;curveFitting=1;jiggle=2;" vertex="1" parent="1">
          <mxGeometry x="455" y="1500" width="50" height="50" as="geometry" />
        </mxCell>
        <mxCell id="_QYD-WO2QvrmHmzMgkhw-327" value="" style="endArrow=none;dashed=1;html=1;rounded=0;strokeWidth=3;startSize=2;endSize=3;hachureGap=4;fontFamily=Architects Daughter;fontSource=https%3A%2F%2Ffonts.googleapis.com%2Fcss%3Ffamily%3DArchitects%2BDaughter;fontSize=16;jumpSize=5;strokeColor=#FF0000;" edge="1" parent="1">
          <mxGeometry width="50" height="50" relative="1" as="geometry">
            <mxPoint x="460.00000000000006" y="1575" as="sourcePoint" />
            <mxPoint x="460" y="1230" as="targetPoint" />
          </mxGeometry>
        </mxCell>
        <mxCell id="_QYD-WO2QvrmHmzMgkhw-328" value="" style="ellipse;whiteSpace=wrap;html=1;aspect=fixed;sketch=1;hachureGap=4;jiggle=2;curveFitting=1;fontFamily=Architects Daughter;fontSource=https%3A%2F%2Ffonts.googleapis.com%2Fcss%3Ffamily%3DArchitects%2BDaughter;fontSize=20;fillColor=none;strokeColor=#FF0000;" vertex="1" parent="1">
          <mxGeometry x="535" y="1500" width="50" height="50" as="geometry" />
        </mxCell>
        <mxCell id="_QYD-WO2QvrmHmzMgkhw-329" value="" style="endArrow=none;dashed=1;html=1;rounded=0;strokeWidth=3;startSize=2;endSize=3;hachureGap=4;fontFamily=Architects Daughter;fontSource=https%3A%2F%2Ffonts.googleapis.com%2Fcss%3Ffamily%3DArchitects%2BDaughter;fontSize=16;jumpSize=5;strokeColor=#FFD966;" edge="1" parent="1">
          <mxGeometry width="50" height="50" relative="1" as="geometry">
            <mxPoint x="580" y="1575" as="sourcePoint" />
            <mxPoint x="580" y="1220" as="targetPoint" />
          </mxGeometry>
        </mxCell>
        <mxCell id="_QYD-WO2QvrmHmzMgkhw-330" value="" style="endArrow=none;dashed=1;html=1;rounded=0;strokeWidth=3;startSize=2;endSize=3;hachureGap=4;fontFamily=Architects Daughter;fontSource=https%3A%2F%2Ffonts.googleapis.com%2Fcss%3Ffamily%3DArchitects%2BDaughter;fontSize=16;jumpSize=5;strokeColor=#FF0000;" edge="1" parent="1">
          <mxGeometry width="50" height="50" relative="1" as="geometry">
            <mxPoint x="700" y="1575" as="sourcePoint" />
            <mxPoint x="700" y="1220" as="targetPoint" />
          </mxGeometry>
        </mxCell>
        <mxCell id="_QYD-WO2QvrmHmzMgkhw-331" value="" style="endArrow=classic;html=1;sketch=1;hachureGap=4;jiggle=2;curveFitting=1;fontFamily=Architects Daughter;fontSource=https%3A%2F%2Ffonts.googleapis.com%2Fcss%3Ffamily%3DArchitects%2BDaughter;fontSize=16;startArrow=baseDash;startFill=0;strokeWidth=2;strokeColor=#FFD966;" edge="1" parent="1">
          <mxGeometry width="50" height="50" relative="1" as="geometry">
            <mxPoint x="460" y="1280" as="sourcePoint" />
            <mxPoint x="580" y="1280" as="targetPoint" />
          </mxGeometry>
        </mxCell>
        <mxCell id="_QYD-WO2QvrmHmzMgkhw-332" value="" style="endArrow=classic;html=1;sketch=1;hachureGap=4;jiggle=2;curveFitting=1;fontFamily=Architects Daughter;fontSource=https%3A%2F%2Ffonts.googleapis.com%2Fcss%3Ffamily%3DArchitects%2BDaughter;fontSize=16;startArrow=baseDash;startFill=0;strokeWidth=2;strokeColor=#FF0000;entryX=0;entryY=0.5;entryDx=0;entryDy=0;" edge="1" parent="1" target="_QYD-WO2QvrmHmzMgkhw-313">
          <mxGeometry width="50" height="50" relative="1" as="geometry">
            <mxPoint x="460" y="1444.58" as="sourcePoint" />
            <mxPoint x="580" y="1444.58" as="targetPoint" />
          </mxGeometry>
        </mxCell>
        <mxCell id="_QYD-WO2QvrmHmzMgkhw-333" value="3bits" style="text;html=1;strokeColor=none;fillColor=none;align=center;verticalAlign=middle;whiteSpace=wrap;rounded=0;fontSize=20;fontFamily=Architects Daughter;fontStyle=1" vertex="1" parent="1">
          <mxGeometry x="490" y="1250" width="60" height="30" as="geometry" />
        </mxCell>
        <mxCell id="_QYD-WO2QvrmHmzMgkhw-334" value="6bits" style="text;html=1;strokeColor=none;fillColor=none;align=center;verticalAlign=middle;whiteSpace=wrap;rounded=0;fontSize=20;fontFamily=Architects Daughter;fontStyle=1" vertex="1" parent="1">
          <mxGeometry x="495" y="1420" width="60" height="30" as="geometry" />
        </mxCell>
        <mxCell id="_QYD-WO2QvrmHmzMgkhw-338" value="" style="endArrow=classic;html=1;sketch=1;hachureGap=4;jiggle=2;curveFitting=1;fontFamily=Architects Daughter;fontSource=https%3A%2F%2Ffonts.googleapis.com%2Fcss%3Ffamily%3DArchitects%2BDaughter;fontSize=16;" edge="1" parent="1">
          <mxGeometry width="50" height="50" relative="1" as="geometry">
            <mxPoint x="420" y="-200" as="sourcePoint" />
            <mxPoint x="419.83" y="-160" as="targetPoint" />
          </mxGeometry>
        </mxCell>
        <mxCell id="_QYD-WO2QvrmHmzMgkhw-339" value="" style="group" vertex="1" connectable="0" parent="1">
          <mxGeometry x="345" y="80" width="30" height="70" as="geometry" />
        </mxCell>
        <mxCell id="_QYD-WO2QvrmHmzMgkhw-335" value="i" style="text;html=1;strokeColor=none;fillColor=none;align=center;verticalAlign=middle;whiteSpace=wrap;rounded=0;fontSize=25;fontFamily=Courier New;fontStyle=1;fontColor=#FF0000;" vertex="1" parent="_QYD-WO2QvrmHmzMgkhw-339">
          <mxGeometry width="30" height="30" as="geometry" />
        </mxCell>
        <mxCell id="_QYD-WO2QvrmHmzMgkhw-337" value="" style="endArrow=classic;html=1;sketch=1;hachureGap=4;jiggle=2;curveFitting=1;fontFamily=Architects Daughter;fontSource=https%3A%2F%2Ffonts.googleapis.com%2Fcss%3Ffamily%3DArchitects%2BDaughter;fontSize=16;strokeWidth=2;strokeColor=#FF3333;" edge="1" parent="_QYD-WO2QvrmHmzMgkhw-339">
          <mxGeometry width="50" height="50" relative="1" as="geometry">
            <mxPoint x="15" y="30" as="sourcePoint" />
            <mxPoint x="14.829999999999984" y="70" as="targetPoint" />
          </mxGeometry>
        </mxCell>
        <mxCell id="_QYD-WO2QvrmHmzMgkhw-341" value="" style="group" vertex="1" connectable="0" parent="1">
          <mxGeometry x="470" y="-340" width="30" height="70" as="geometry" />
        </mxCell>
        <mxCell id="_QYD-WO2QvrmHmzMgkhw-342" value="j" style="text;html=1;strokeColor=none;fillColor=none;align=center;verticalAlign=middle;whiteSpace=wrap;rounded=0;fontSize=25;fontFamily=Courier New;fontStyle=1;fontColor=#FF0000;" vertex="1" parent="_QYD-WO2QvrmHmzMgkhw-341">
          <mxGeometry width="30" height="30" as="geometry" />
        </mxCell>
        <mxCell id="_QYD-WO2QvrmHmzMgkhw-343" value="" style="endArrow=classic;html=1;sketch=1;hachureGap=4;jiggle=2;curveFitting=1;fontFamily=Architects Daughter;fontSource=https%3A%2F%2Ffonts.googleapis.com%2Fcss%3Ffamily%3DArchitects%2BDaughter;fontSize=16;strokeWidth=2;strokeColor=#FF3333;" edge="1" parent="_QYD-WO2QvrmHmzMgkhw-341">
          <mxGeometry width="50" height="50" relative="1" as="geometry">
            <mxPoint x="15" y="30" as="sourcePoint" />
            <mxPoint x="14.829999999999984" y="70" as="targetPoint" />
          </mxGeometry>
        </mxCell>
        <mxCell id="_QYD-WO2QvrmHmzMgkhw-349" value="" style="group" vertex="1" connectable="0" parent="1">
          <mxGeometry x="705" y="610" width="30" height="90" as="geometry" />
        </mxCell>
        <mxCell id="_QYD-WO2QvrmHmzMgkhw-345" value="j" style="text;html=1;strokeColor=none;fillColor=none;align=center;verticalAlign=middle;whiteSpace=wrap;rounded=0;fontSize=25;fontFamily=Courier New;fontStyle=1;fontColor=#FF0000;" vertex="1" parent="_QYD-WO2QvrmHmzMgkhw-349">
          <mxGeometry y="40" width="30" height="30" as="geometry" />
        </mxCell>
        <mxCell id="_QYD-WO2QvrmHmzMgkhw-346" value="" style="endArrow=classic;html=1;sketch=1;hachureGap=4;jiggle=2;curveFitting=1;fontFamily=Architects Daughter;fontSource=https%3A%2F%2Ffonts.googleapis.com%2Fcss%3Ffamily%3DArchitects%2BDaughter;fontSize=16;strokeWidth=2;strokeColor=#FF3333;" edge="1" parent="_QYD-WO2QvrmHmzMgkhw-349">
          <mxGeometry width="50" height="50" relative="1" as="geometry">
            <mxPoint x="15.169999999999959" y="40" as="sourcePoint" />
            <mxPoint x="14.999999999999886" as="targetPoint" />
          </mxGeometry>
        </mxCell>
        <mxCell id="_QYD-WO2QvrmHmzMgkhw-351" value="" style="group" vertex="1" connectable="0" parent="1">
          <mxGeometry x="890" y="-495" width="30" height="70" as="geometry" />
        </mxCell>
        <mxCell id="_QYD-WO2QvrmHmzMgkhw-352" value="j" style="text;html=1;strokeColor=none;fillColor=none;align=center;verticalAlign=middle;whiteSpace=wrap;rounded=0;fontSize=25;fontFamily=Courier New;fontStyle=1;fontColor=#FF0000;" vertex="1" parent="_QYD-WO2QvrmHmzMgkhw-351">
          <mxGeometry y="40" width="30" height="30" as="geometry" />
        </mxCell>
        <mxCell id="_QYD-WO2QvrmHmzMgkhw-353" value="" style="endArrow=classic;html=1;sketch=1;hachureGap=4;jiggle=2;curveFitting=1;fontFamily=Architects Daughter;fontSource=https%3A%2F%2Ffonts.googleapis.com%2Fcss%3Ffamily%3DArchitects%2BDaughter;fontSize=16;strokeWidth=2;strokeColor=#FF3333;" edge="1" parent="_QYD-WO2QvrmHmzMgkhw-351">
          <mxGeometry width="50" height="50" relative="1" as="geometry">
            <mxPoint x="15.169999999999959" y="40" as="sourcePoint" />
            <mxPoint x="14.999999999999886" as="targetPoint" />
          </mxGeometry>
        </mxCell>
        <mxCell id="_QYD-WO2QvrmHmzMgkhw-354" value="" style="group" vertex="1" connectable="0" parent="1">
          <mxGeometry x="930" y="-495" width="30" height="70" as="geometry" />
        </mxCell>
        <mxCell id="_QYD-WO2QvrmHmzMgkhw-355" value="i" style="text;html=1;strokeColor=none;fillColor=none;align=center;verticalAlign=middle;whiteSpace=wrap;rounded=0;fontSize=25;fontFamily=Courier New;fontStyle=1;fontColor=#FF0000;" vertex="1" parent="_QYD-WO2QvrmHmzMgkhw-354">
          <mxGeometry width="30" height="30" as="geometry" />
        </mxCell>
        <mxCell id="_QYD-WO2QvrmHmzMgkhw-356" value="" style="endArrow=classic;html=1;sketch=1;hachureGap=4;jiggle=2;curveFitting=1;fontFamily=Architects Daughter;fontSource=https%3A%2F%2Ffonts.googleapis.com%2Fcss%3Ffamily%3DArchitects%2BDaughter;fontSize=16;strokeWidth=2;strokeColor=#FF3333;" edge="1" parent="_QYD-WO2QvrmHmzMgkhw-354">
          <mxGeometry width="50" height="50" relative="1" as="geometry">
            <mxPoint x="15" y="30" as="sourcePoint" />
            <mxPoint x="14.829999999999984" y="70" as="targetPoint" />
          </mxGeometry>
        </mxCell>
        <mxCell id="_QYD-WO2QvrmHmzMgkhw-539" value="" style="ellipse;whiteSpace=wrap;html=1;aspect=fixed;hachureGap=4;fontFamily=Architects Daughter;fontSource=https%3A%2F%2Ffonts.googleapis.com%2Fcss%3Ffamily%3DArchitects%2BDaughter;fontSize=20;fillColor=none;strokeColor=#00CC00;sketch=1;curveFitting=1;jiggle=2;" vertex="1" parent="1">
          <mxGeometry x="1755" y="60" width="50" height="50" as="geometry" />
        </mxCell>
        <mxCell id="_QYD-WO2QvrmHmzMgkhw-540" value="" style="ellipse;whiteSpace=wrap;html=1;aspect=fixed;hachureGap=4;fontFamily=Architects Daughter;fontSource=https%3A%2F%2Ffonts.googleapis.com%2Fcss%3Ffamily%3DArchitects%2BDaughter;fontSize=20;fillColor=none;strokeColor=#00CC00;sketch=1;curveFitting=1;jiggle=2;" vertex="1" parent="1">
          <mxGeometry x="1635" y="260" width="50" height="50" as="geometry" />
        </mxCell>
        <mxCell id="_QYD-WO2QvrmHmzMgkhw-544" value="" style="group" vertex="1" connectable="0" parent="1">
          <mxGeometry x="700" y="400" width="50" height="70" as="geometry" />
        </mxCell>
        <mxCell id="_QYD-WO2QvrmHmzMgkhw-545" value="i+2" style="text;html=1;strokeColor=none;fillColor=none;align=center;verticalAlign=middle;whiteSpace=wrap;rounded=0;fontSize=25;fontFamily=Courier New;fontStyle=1;fontColor=#FF0000;" vertex="1" parent="_QYD-WO2QvrmHmzMgkhw-544">
          <mxGeometry x="-10" width="50" height="30" as="geometry" />
        </mxCell>
        <mxCell id="_QYD-WO2QvrmHmzMgkhw-546" value="" style="endArrow=classic;html=1;sketch=1;hachureGap=4;jiggle=2;curveFitting=1;fontFamily=Architects Daughter;fontSource=https%3A%2F%2Ffonts.googleapis.com%2Fcss%3Ffamily%3DArchitects%2BDaughter;fontSize=16;strokeWidth=2;strokeColor=#FF3333;" edge="1" parent="_QYD-WO2QvrmHmzMgkhw-544">
          <mxGeometry width="50" height="50" relative="1" as="geometry">
            <mxPoint x="15" y="30" as="sourcePoint" />
            <mxPoint x="14.829999999999984" y="70" as="targetPoint" />
          </mxGeometry>
        </mxCell>
        <mxCell id="_QYD-WO2QvrmHmzMgkhw-547" value="" style="group" vertex="1" connectable="0" parent="1">
          <mxGeometry x="355" y="310" width="30" height="70" as="geometry" />
        </mxCell>
        <mxCell id="_QYD-WO2QvrmHmzMgkhw-548" value="j" style="text;html=1;strokeColor=none;fillColor=none;align=center;verticalAlign=middle;whiteSpace=wrap;rounded=0;fontSize=25;fontFamily=Courier New;fontStyle=1;fontColor=#FF0000;" vertex="1" parent="_QYD-WO2QvrmHmzMgkhw-547">
          <mxGeometry y="40" width="30" height="30" as="geometry" />
        </mxCell>
        <mxCell id="_QYD-WO2QvrmHmzMgkhw-549" value="" style="endArrow=classic;html=1;sketch=1;hachureGap=4;jiggle=2;curveFitting=1;fontFamily=Architects Daughter;fontSource=https%3A%2F%2Ffonts.googleapis.com%2Fcss%3Ffamily%3DArchitects%2BDaughter;fontSize=16;strokeWidth=2;strokeColor=#FF3333;" edge="1" parent="_QYD-WO2QvrmHmzMgkhw-547">
          <mxGeometry width="50" height="50" relative="1" as="geometry">
            <mxPoint x="15.169999999999959" y="40" as="sourcePoint" />
            <mxPoint x="14.999999999999886" as="targetPoint" />
          </mxGeometry>
        </mxCell>
        <mxCell id="_QYD-WO2QvrmHmzMgkhw-550" value="" style="group;" vertex="1" connectable="0" parent="1">
          <mxGeometry x="710" y="680" width="30" height="70" as="geometry" />
        </mxCell>
        <mxCell id="_QYD-WO2QvrmHmzMgkhw-551" value="i" style="text;html=1;strokeColor=none;fillColor=none;align=center;verticalAlign=middle;whiteSpace=wrap;rounded=0;fontSize=25;fontFamily=Courier New;fontStyle=1;fontColor=#999999;" vertex="1" parent="_QYD-WO2QvrmHmzMgkhw-550">
          <mxGeometry width="30" height="30" as="geometry" />
        </mxCell>
        <mxCell id="_QYD-WO2QvrmHmzMgkhw-552" value="" style="endArrow=classic;html=1;sketch=1;hachureGap=4;jiggle=2;curveFitting=1;fontFamily=Architects Daughter;fontSource=https%3A%2F%2Ffonts.googleapis.com%2Fcss%3Ffamily%3DArchitects%2BDaughter;fontSize=16;strokeWidth=2;strokeColor=#999999;fillColor=#f5f5f5;" edge="1" parent="_QYD-WO2QvrmHmzMgkhw-550">
          <mxGeometry width="50" height="50" relative="1" as="geometry">
            <mxPoint x="15" y="30" as="sourcePoint" />
            <mxPoint x="14.829999999999984" y="70" as="targetPoint" />
          </mxGeometry>
        </mxCell>
        <mxCell id="_QYD-WO2QvrmHmzMgkhw-557" value="" style="group;" vertex="1" connectable="0" parent="1">
          <mxGeometry x="670" y="680" width="30" height="70" as="geometry" />
        </mxCell>
        <mxCell id="_QYD-WO2QvrmHmzMgkhw-558" value="i" style="text;html=1;strokeColor=none;fillColor=none;align=center;verticalAlign=middle;whiteSpace=wrap;rounded=0;fontSize=25;fontFamily=Courier New;fontStyle=1;fontColor=#999999;" vertex="1" parent="_QYD-WO2QvrmHmzMgkhw-557">
          <mxGeometry width="30" height="30" as="geometry" />
        </mxCell>
        <mxCell id="_QYD-WO2QvrmHmzMgkhw-559" value="" style="endArrow=classic;html=1;sketch=1;hachureGap=4;jiggle=2;curveFitting=1;fontFamily=Architects Daughter;fontSource=https%3A%2F%2Ffonts.googleapis.com%2Fcss%3Ffamily%3DArchitects%2BDaughter;fontSize=16;strokeWidth=2;strokeColor=#999999;fillColor=#f5f5f5;" edge="1" parent="_QYD-WO2QvrmHmzMgkhw-557">
          <mxGeometry width="50" height="50" relative="1" as="geometry">
            <mxPoint x="15" y="30" as="sourcePoint" />
            <mxPoint x="14.829999999999984" y="70" as="targetPoint" />
          </mxGeometry>
        </mxCell>
        <mxCell id="_QYD-WO2QvrmHmzMgkhw-560" value="" style="group;" vertex="1" connectable="0" parent="1">
          <mxGeometry x="630" y="680" width="30" height="70" as="geometry" />
        </mxCell>
        <mxCell id="_QYD-WO2QvrmHmzMgkhw-561" value="i" style="text;html=1;strokeColor=none;fillColor=none;align=center;verticalAlign=middle;whiteSpace=wrap;rounded=0;fontSize=25;fontFamily=Courier New;fontStyle=1;fontColor=#999999;" vertex="1" parent="_QYD-WO2QvrmHmzMgkhw-560">
          <mxGeometry width="30" height="30" as="geometry" />
        </mxCell>
        <mxCell id="_QYD-WO2QvrmHmzMgkhw-562" value="" style="endArrow=classic;html=1;sketch=1;hachureGap=4;jiggle=2;curveFitting=1;fontFamily=Architects Daughter;fontSource=https%3A%2F%2Ffonts.googleapis.com%2Fcss%3Ffamily%3DArchitects%2BDaughter;fontSize=16;strokeWidth=2;strokeColor=#999999;fillColor=#f5f5f5;" edge="1" parent="_QYD-WO2QvrmHmzMgkhw-560">
          <mxGeometry width="50" height="50" relative="1" as="geometry">
            <mxPoint x="15" y="30" as="sourcePoint" />
            <mxPoint x="14.829999999999984" y="70" as="targetPoint" />
          </mxGeometry>
        </mxCell>
        <mxCell id="_QYD-WO2QvrmHmzMgkhw-565" value="" style="group;" vertex="1" connectable="0" parent="1">
          <mxGeometry x="590" y="680" width="30" height="70" as="geometry" />
        </mxCell>
        <mxCell id="_QYD-WO2QvrmHmzMgkhw-566" value="i" style="text;html=1;strokeColor=none;fillColor=none;align=center;verticalAlign=middle;whiteSpace=wrap;rounded=0;fontSize=25;fontFamily=Courier New;fontStyle=1;fontColor=#999999;" vertex="1" parent="_QYD-WO2QvrmHmzMgkhw-565">
          <mxGeometry width="30" height="30" as="geometry" />
        </mxCell>
        <mxCell id="_QYD-WO2QvrmHmzMgkhw-567" value="" style="endArrow=classic;html=1;sketch=1;hachureGap=4;jiggle=2;curveFitting=1;fontFamily=Architects Daughter;fontSource=https%3A%2F%2Ffonts.googleapis.com%2Fcss%3Ffamily%3DArchitects%2BDaughter;fontSize=16;strokeWidth=2;strokeColor=#999999;fillColor=#f5f5f5;" edge="1" parent="_QYD-WO2QvrmHmzMgkhw-565">
          <mxGeometry width="50" height="50" relative="1" as="geometry">
            <mxPoint x="15" y="30" as="sourcePoint" />
            <mxPoint x="14.829999999999984" y="70" as="targetPoint" />
          </mxGeometry>
        </mxCell>
        <mxCell id="_QYD-WO2QvrmHmzMgkhw-568" value="" style="group" vertex="1" connectable="0" parent="1">
          <mxGeometry x="700" y="900" width="30" height="70" as="geometry" />
        </mxCell>
        <mxCell id="_QYD-WO2QvrmHmzMgkhw-569" value="j" style="text;html=1;strokeColor=none;fillColor=none;align=center;verticalAlign=middle;whiteSpace=wrap;rounded=0;fontSize=25;fontFamily=Courier New;fontStyle=1;fontColor=#999999;" vertex="1" parent="_QYD-WO2QvrmHmzMgkhw-568">
          <mxGeometry y="40" width="30" height="30" as="geometry" />
        </mxCell>
        <mxCell id="_QYD-WO2QvrmHmzMgkhw-570" value="" style="endArrow=classic;html=1;sketch=1;hachureGap=4;jiggle=2;curveFitting=1;fontFamily=Architects Daughter;fontSource=https%3A%2F%2Ffonts.googleapis.com%2Fcss%3Ffamily%3DArchitects%2BDaughter;fontSize=16;strokeWidth=2;strokeColor=#999999;" edge="1" parent="_QYD-WO2QvrmHmzMgkhw-568">
          <mxGeometry width="50" height="50" relative="1" as="geometry">
            <mxPoint x="15.169999999999959" y="40" as="sourcePoint" />
            <mxPoint x="14.999999999999886" as="targetPoint" />
          </mxGeometry>
        </mxCell>
        <mxCell id="_QYD-WO2QvrmHmzMgkhw-574" value="" style="group" vertex="1" connectable="0" parent="1">
          <mxGeometry x="625" y="900" width="30" height="70" as="geometry" />
        </mxCell>
        <mxCell id="_QYD-WO2QvrmHmzMgkhw-575" value="j" style="text;html=1;strokeColor=none;fillColor=none;align=center;verticalAlign=middle;whiteSpace=wrap;rounded=0;fontSize=25;fontFamily=Courier New;fontStyle=1;fontColor=#999999;" vertex="1" parent="_QYD-WO2QvrmHmzMgkhw-574">
          <mxGeometry y="40" width="30" height="30" as="geometry" />
        </mxCell>
        <mxCell id="_QYD-WO2QvrmHmzMgkhw-576" value="" style="endArrow=classic;html=1;sketch=1;hachureGap=4;jiggle=2;curveFitting=1;fontFamily=Architects Daughter;fontSource=https%3A%2F%2Ffonts.googleapis.com%2Fcss%3Ffamily%3DArchitects%2BDaughter;fontSize=16;strokeWidth=2;strokeColor=#999999;" edge="1" parent="_QYD-WO2QvrmHmzMgkhw-574">
          <mxGeometry width="50" height="50" relative="1" as="geometry">
            <mxPoint x="15.169999999999959" y="40" as="sourcePoint" />
            <mxPoint x="14.999999999999886" as="targetPoint" />
          </mxGeometry>
        </mxCell>
        <mxCell id="_QYD-WO2QvrmHmzMgkhw-577" value="" style="group" vertex="1" connectable="0" parent="1">
          <mxGeometry x="660" y="900" width="30" height="70" as="geometry" />
        </mxCell>
        <mxCell id="_QYD-WO2QvrmHmzMgkhw-578" value="j" style="text;html=1;strokeColor=none;fillColor=none;align=center;verticalAlign=middle;whiteSpace=wrap;rounded=0;fontSize=25;fontFamily=Courier New;fontStyle=1;fontColor=#999999;" vertex="1" parent="_QYD-WO2QvrmHmzMgkhw-577">
          <mxGeometry y="40" width="30" height="30" as="geometry" />
        </mxCell>
        <mxCell id="_QYD-WO2QvrmHmzMgkhw-579" value="" style="endArrow=classic;html=1;sketch=1;hachureGap=4;jiggle=2;curveFitting=1;fontFamily=Architects Daughter;fontSource=https%3A%2F%2Ffonts.googleapis.com%2Fcss%3Ffamily%3DArchitects%2BDaughter;fontSize=16;strokeWidth=2;strokeColor=#999999;" edge="1" parent="_QYD-WO2QvrmHmzMgkhw-577">
          <mxGeometry width="50" height="50" relative="1" as="geometry">
            <mxPoint x="15.169999999999959" y="40" as="sourcePoint" />
            <mxPoint x="14.999999999999886" as="targetPoint" />
          </mxGeometry>
        </mxCell>
        <mxCell id="_QYD-WO2QvrmHmzMgkhw-580" value="" style="group" vertex="1" connectable="0" parent="1">
          <mxGeometry x="590" y="900" width="30" height="70" as="geometry" />
        </mxCell>
        <mxCell id="_QYD-WO2QvrmHmzMgkhw-581" value="j" style="text;html=1;strokeColor=none;fillColor=none;align=center;verticalAlign=middle;whiteSpace=wrap;rounded=0;fontSize=25;fontFamily=Courier New;fontStyle=1;fontColor=#999999;" vertex="1" parent="_QYD-WO2QvrmHmzMgkhw-580">
          <mxGeometry y="40" width="30" height="30" as="geometry" />
        </mxCell>
        <mxCell id="_QYD-WO2QvrmHmzMgkhw-582" value="" style="endArrow=classic;html=1;sketch=1;hachureGap=4;jiggle=2;curveFitting=1;fontFamily=Architects Daughter;fontSource=https%3A%2F%2Ffonts.googleapis.com%2Fcss%3Ffamily%3DArchitects%2BDaughter;fontSize=16;strokeWidth=2;strokeColor=#999999;" edge="1" parent="_QYD-WO2QvrmHmzMgkhw-580">
          <mxGeometry width="50" height="50" relative="1" as="geometry">
            <mxPoint x="15.169999999999959" y="40" as="sourcePoint" />
            <mxPoint x="14.999999999999886" as="targetPoint" />
          </mxGeometry>
        </mxCell>
        <mxCell id="_QYD-WO2QvrmHmzMgkhw-583" value="" style="group" vertex="1" connectable="0" parent="1">
          <mxGeometry x="550" y="680" width="30" height="70" as="geometry" />
        </mxCell>
        <mxCell id="_QYD-WO2QvrmHmzMgkhw-584" value="i" style="text;html=1;strokeColor=none;fillColor=none;align=center;verticalAlign=middle;whiteSpace=wrap;rounded=0;fontSize=25;fontFamily=Courier New;fontStyle=1;fontColor=#FF0000;" vertex="1" parent="_QYD-WO2QvrmHmzMgkhw-583">
          <mxGeometry width="30" height="30" as="geometry" />
        </mxCell>
        <mxCell id="_QYD-WO2QvrmHmzMgkhw-585" value="" style="endArrow=classic;html=1;sketch=1;hachureGap=4;jiggle=2;curveFitting=1;fontFamily=Architects Daughter;fontSource=https%3A%2F%2Ffonts.googleapis.com%2Fcss%3Ffamily%3DArchitects%2BDaughter;fontSize=16;strokeWidth=2;strokeColor=#FF3333;" edge="1" parent="_QYD-WO2QvrmHmzMgkhw-583">
          <mxGeometry width="50" height="50" relative="1" as="geometry">
            <mxPoint x="15" y="30" as="sourcePoint" />
            <mxPoint x="14.829999999999984" y="70" as="targetPoint" />
          </mxGeometry>
        </mxCell>
        <mxCell id="_QYD-WO2QvrmHmzMgkhw-589" value="" style="group" vertex="1" connectable="0" parent="1">
          <mxGeometry x="550" y="900" width="30" height="70" as="geometry" />
        </mxCell>
        <mxCell id="_QYD-WO2QvrmHmzMgkhw-590" value="j" style="text;html=1;strokeColor=none;fillColor=none;align=center;verticalAlign=middle;whiteSpace=wrap;rounded=0;fontSize=25;fontFamily=Courier New;fontStyle=1;fontColor=#FF0000;" vertex="1" parent="_QYD-WO2QvrmHmzMgkhw-589">
          <mxGeometry y="40" width="30" height="30" as="geometry" />
        </mxCell>
        <mxCell id="_QYD-WO2QvrmHmzMgkhw-591" value="" style="endArrow=classic;html=1;sketch=1;hachureGap=4;jiggle=2;curveFitting=1;fontFamily=Architects Daughter;fontSource=https%3A%2F%2Ffonts.googleapis.com%2Fcss%3Ffamily%3DArchitects%2BDaughter;fontSize=16;strokeWidth=2;strokeColor=#FF3333;" edge="1" parent="_QYD-WO2QvrmHmzMgkhw-589">
          <mxGeometry width="50" height="50" relative="1" as="geometry">
            <mxPoint x="15.169999999999959" y="40" as="sourcePoint" />
            <mxPoint x="14.999999999999886" as="targetPoint" />
          </mxGeometry>
        </mxCell>
        <mxCell id="_QYD-WO2QvrmHmzMgkhw-586" value="" style="group" vertex="1" connectable="0" parent="1">
          <mxGeometry x="885" y="555" width="30" height="70" as="geometry" />
        </mxCell>
        <mxCell id="_QYD-WO2QvrmHmzMgkhw-587" value="j" style="text;html=1;strokeColor=none;fillColor=none;align=center;verticalAlign=middle;whiteSpace=wrap;rounded=0;fontSize=25;fontFamily=Courier New;fontStyle=1;fontColor=#FF0000;" vertex="1" parent="_QYD-WO2QvrmHmzMgkhw-586">
          <mxGeometry y="40" width="30" height="30" as="geometry" />
        </mxCell>
        <mxCell id="_QYD-WO2QvrmHmzMgkhw-588" value="" style="endArrow=classic;html=1;sketch=1;hachureGap=4;jiggle=2;curveFitting=1;fontFamily=Architects Daughter;fontSource=https%3A%2F%2Ffonts.googleapis.com%2Fcss%3Ffamily%3DArchitects%2BDaughter;fontSize=16;strokeWidth=2;strokeColor=#FF3333;" edge="1" parent="_QYD-WO2QvrmHmzMgkhw-586">
          <mxGeometry width="50" height="50" relative="1" as="geometry">
            <mxPoint x="15.169999999999959" y="40" as="sourcePoint" />
            <mxPoint x="14.999999999999886" as="targetPoint" />
          </mxGeometry>
        </mxCell>
        <mxCell id="_QYD-WO2QvrmHmzMgkhw-599" value="" style="group;" vertex="1" connectable="0" parent="1">
          <mxGeometry x="1610" y="50" width="30" height="70" as="geometry" />
        </mxCell>
        <mxCell id="_QYD-WO2QvrmHmzMgkhw-600" value="i" style="text;html=1;strokeColor=none;fillColor=none;align=center;verticalAlign=middle;whiteSpace=wrap;rounded=0;fontSize=25;fontFamily=Courier New;fontStyle=1;fontColor=#999999;" vertex="1" parent="_QYD-WO2QvrmHmzMgkhw-599">
          <mxGeometry width="30" height="30" as="geometry" />
        </mxCell>
        <mxCell id="_QYD-WO2QvrmHmzMgkhw-601" value="" style="endArrow=classic;html=1;sketch=1;hachureGap=4;jiggle=2;curveFitting=1;fontFamily=Architects Daughter;fontSource=https%3A%2F%2Ffonts.googleapis.com%2Fcss%3Ffamily%3DArchitects%2BDaughter;fontSize=16;strokeWidth=2;strokeColor=#999999;fillColor=#f5f5f5;" edge="1" parent="_QYD-WO2QvrmHmzMgkhw-599">
          <mxGeometry width="50" height="50" relative="1" as="geometry">
            <mxPoint x="15" y="30" as="sourcePoint" />
            <mxPoint x="14.829999999999984" y="70" as="targetPoint" />
          </mxGeometry>
        </mxCell>
        <mxCell id="_QYD-WO2QvrmHmzMgkhw-604" value="" style="group;" vertex="1" connectable="0" parent="1">
          <mxGeometry x="620" y="400" width="30" height="70" as="geometry" />
        </mxCell>
        <mxCell id="_QYD-WO2QvrmHmzMgkhw-605" value="i" style="text;html=1;strokeColor=none;fillColor=none;align=center;verticalAlign=middle;whiteSpace=wrap;rounded=0;fontSize=25;fontFamily=Courier New;fontStyle=1;fontColor=#999999;" vertex="1" parent="_QYD-WO2QvrmHmzMgkhw-604">
          <mxGeometry width="30" height="30" as="geometry" />
        </mxCell>
        <mxCell id="_QYD-WO2QvrmHmzMgkhw-606" value="" style="endArrow=classic;html=1;sketch=1;hachureGap=4;jiggle=2;curveFitting=1;fontFamily=Architects Daughter;fontSource=https%3A%2F%2Ffonts.googleapis.com%2Fcss%3Ffamily%3DArchitects%2BDaughter;fontSize=16;strokeWidth=2;strokeColor=#999999;fillColor=#f5f5f5;" edge="1" parent="_QYD-WO2QvrmHmzMgkhw-604">
          <mxGeometry width="50" height="50" relative="1" as="geometry">
            <mxPoint x="15" y="30" as="sourcePoint" />
            <mxPoint x="14.829999999999984" y="70" as="targetPoint" />
          </mxGeometry>
        </mxCell>
        <mxCell id="_QYD-WO2QvrmHmzMgkhw-610" value="" style="group" vertex="1" connectable="0" parent="1">
          <mxGeometry x="540" y="1180" width="30" height="150" as="geometry" />
        </mxCell>
        <mxCell id="_QYD-WO2QvrmHmzMgkhw-608" value="i" style="text;html=1;strokeColor=none;fillColor=none;align=center;verticalAlign=middle;whiteSpace=wrap;rounded=0;fontSize=25;fontFamily=Courier New;fontStyle=1;fontColor=#999999;" vertex="1" parent="_QYD-WO2QvrmHmzMgkhw-610">
          <mxGeometry width="30" height="31.578947368421055" as="geometry" />
        </mxCell>
        <mxCell id="_QYD-WO2QvrmHmzMgkhw-609" value="" style="endArrow=classic;html=1;sketch=1;hachureGap=4;jiggle=2;curveFitting=1;fontFamily=Architects Daughter;fontSource=https%3A%2F%2Ffonts.googleapis.com%2Fcss%3Ffamily%3DArchitects%2BDaughter;fontSize=16;strokeWidth=2;strokeColor=#999999;fillColor=#f5f5f5;" edge="1" parent="_QYD-WO2QvrmHmzMgkhw-610">
          <mxGeometry width="50" height="50" relative="1" as="geometry">
            <mxPoint x="15" y="31.578947368421055" as="sourcePoint" />
            <mxPoint x="14.829999999999927" y="150" as="targetPoint" />
          </mxGeometry>
        </mxCell>
        <mxCell id="_QYD-WO2QvrmHmzMgkhw-611" value="" style="group" vertex="1" connectable="0" parent="1">
          <mxGeometry x="815" y="1180" width="30" height="70" as="geometry" />
        </mxCell>
        <mxCell id="_QYD-WO2QvrmHmzMgkhw-612" value="i+7" style="text;html=1;strokeColor=none;fillColor=none;align=center;verticalAlign=middle;whiteSpace=wrap;rounded=0;fontSize=25;fontFamily=Courier New;fontStyle=1;fontColor=#FF0000;" vertex="1" parent="_QYD-WO2QvrmHmzMgkhw-611">
          <mxGeometry width="30" height="30" as="geometry" />
        </mxCell>
        <mxCell id="_QYD-WO2QvrmHmzMgkhw-613" value="" style="endArrow=classic;html=1;sketch=1;hachureGap=4;jiggle=2;curveFitting=1;fontFamily=Architects Daughter;fontSource=https%3A%2F%2Ffonts.googleapis.com%2Fcss%3Ffamily%3DArchitects%2BDaughter;fontSize=16;strokeWidth=2;strokeColor=#FF3333;" edge="1" parent="_QYD-WO2QvrmHmzMgkhw-611">
          <mxGeometry width="50" height="50" relative="1" as="geometry">
            <mxPoint x="15" y="30" as="sourcePoint" />
            <mxPoint x="14.829999999999984" y="70" as="targetPoint" />
          </mxGeometry>
        </mxCell>
        <mxCell id="_QYD-WO2QvrmHmzMgkhw-617" value="" style="group" vertex="1" connectable="0" parent="1">
          <mxGeometry x="940" y="1180" width="50" height="150" as="geometry" />
        </mxCell>
        <mxCell id="_QYD-WO2QvrmHmzMgkhw-618" value="i+10" style="text;html=1;strokeColor=none;fillColor=none;align=center;verticalAlign=middle;whiteSpace=wrap;rounded=0;fontSize=25;fontFamily=Courier New;fontStyle=1;fontColor=#FF0000;" vertex="1" parent="_QYD-WO2QvrmHmzMgkhw-617">
          <mxGeometry x="-10" width="60" height="31.58" as="geometry" />
        </mxCell>
        <mxCell id="_QYD-WO2QvrmHmzMgkhw-619" value="" style="endArrow=classic;html=1;sketch=1;hachureGap=4;jiggle=2;curveFitting=1;fontFamily=Architects Daughter;fontSource=https%3A%2F%2Ffonts.googleapis.com%2Fcss%3Ffamily%3DArchitects%2BDaughter;fontSize=16;strokeWidth=2;strokeColor=#FF3333;fillColor=#f5f5f5;" edge="1" parent="_QYD-WO2QvrmHmzMgkhw-617">
          <mxGeometry width="50" height="50" relative="1" as="geometry">
            <mxPoint x="15" y="31.578947368421055" as="sourcePoint" />
            <mxPoint x="14.829999999999927" y="150" as="targetPoint" />
          </mxGeometry>
        </mxCell>
        <mxCell id="_QYD-WO2QvrmHmzMgkhw-624" value="" style="group" vertex="1" connectable="0" parent="1">
          <mxGeometry x="545" y="1570" width="30" height="70" as="geometry" />
        </mxCell>
        <mxCell id="_QYD-WO2QvrmHmzMgkhw-625" value="j" style="text;html=1;strokeColor=none;fillColor=none;align=center;verticalAlign=middle;whiteSpace=wrap;rounded=0;fontSize=25;fontFamily=Courier New;fontStyle=1;fontColor=#999999;" vertex="1" parent="_QYD-WO2QvrmHmzMgkhw-624">
          <mxGeometry y="40" width="30" height="30" as="geometry" />
        </mxCell>
        <mxCell id="_QYD-WO2QvrmHmzMgkhw-626" value="" style="endArrow=classic;html=1;sketch=1;hachureGap=4;jiggle=2;curveFitting=1;fontFamily=Architects Daughter;fontSource=https%3A%2F%2Ffonts.googleapis.com%2Fcss%3Ffamily%3DArchitects%2BDaughter;fontSize=16;strokeWidth=2;strokeColor=#999999;" edge="1" parent="_QYD-WO2QvrmHmzMgkhw-624">
          <mxGeometry width="50" height="50" relative="1" as="geometry">
            <mxPoint x="15.169999999999959" y="40" as="sourcePoint" />
            <mxPoint x="14.999999999999886" as="targetPoint" />
          </mxGeometry>
        </mxCell>
        <mxCell id="_QYD-WO2QvrmHmzMgkhw-630" value="H" style="whiteSpace=wrap;html=1;aspect=fixed;hachureGap=4;fontFamily=Courier New;fontSize=30;sketch=1;curveFitting=1;jiggle=2;rounded=0;fontStyle=1;fillColor=#f5f5f5;strokeColor=#666666;fontColor=#333333;" vertex="1" parent="1">
          <mxGeometry x="1150" y="-330" width="40" height="40" as="geometry" />
        </mxCell>
        <mxCell id="_QYD-WO2QvrmHmzMgkhw-631" value="E" style="whiteSpace=wrap;html=1;aspect=fixed;hachureGap=4;fontFamily=Courier New;fontSize=30;sketch=1;curveFitting=1;jiggle=2;rounded=0;fontStyle=1;fillColor=#f5f5f5;strokeColor=#666666;fontColor=#333333;" vertex="1" parent="1">
          <mxGeometry x="1190" y="-330" width="40" height="40" as="geometry" />
        </mxCell>
        <mxCell id="_QYD-WO2QvrmHmzMgkhw-632" value="R" style="whiteSpace=wrap;html=1;aspect=fixed;hachureGap=4;fontFamily=Courier New;fontSize=30;sketch=1;curveFitting=1;jiggle=2;rounded=0;fontStyle=1;fillColor=#f5f5f5;strokeColor=#666666;fontColor=#333333;" vertex="1" parent="1">
          <mxGeometry x="1230" y="-330" width="40" height="40" as="geometry" />
        </mxCell>
        <mxCell id="_QYD-WO2QvrmHmzMgkhw-633" value="E" style="whiteSpace=wrap;html=1;aspect=fixed;hachureGap=4;fontFamily=Courier New;fontSize=30;sketch=1;curveFitting=1;jiggle=2;rounded=0;fontStyle=1;fillColor=#f5f5f5;strokeColor=#666666;fontColor=#333333;" vertex="1" parent="1">
          <mxGeometry x="1270" y="-330" width="40" height="40" as="geometry" />
        </mxCell>
        <mxCell id="_QYD-WO2QvrmHmzMgkhw-634" value="_" style="whiteSpace=wrap;html=1;aspect=fixed;hachureGap=4;fontFamily=Courier New;fontSize=30;sketch=1;curveFitting=1;jiggle=2;rounded=0;fontStyle=1;fillColor=#f5f5f5;strokeColor=#666666;fontColor=#333333;" vertex="1" parent="1">
          <mxGeometry x="1310" y="-330" width="40" height="40" as="geometry" />
        </mxCell>
        <mxCell id="_QYD-WO2QvrmHmzMgkhw-635" value="I" style="whiteSpace=wrap;html=1;aspect=fixed;hachureGap=4;fontFamily=Courier New;fontSize=30;sketch=1;curveFitting=1;jiggle=2;rounded=0;fontStyle=1;fillColor=#f5f5f5;strokeColor=#666666;fontColor=#333333;" vertex="1" parent="1">
          <mxGeometry x="1350" y="-330" width="40" height="40" as="geometry" />
        </mxCell>
        <mxCell id="_QYD-WO2QvrmHmzMgkhw-636" value="S" style="whiteSpace=wrap;html=1;aspect=fixed;hachureGap=4;fontFamily=Courier New;fontSize=30;sketch=1;curveFitting=1;jiggle=2;rounded=0;fontStyle=1;fillColor=#f5f5f5;strokeColor=#666666;fontColor=#333333;" vertex="1" parent="1">
          <mxGeometry x="1390" y="-330" width="40" height="40" as="geometry" />
        </mxCell>
        <mxCell id="_QYD-WO2QvrmHmzMgkhw-637" value="_" style="whiteSpace=wrap;html=1;aspect=fixed;hachureGap=4;fontFamily=Courier New;fontSize=30;sketch=1;curveFitting=1;jiggle=2;rounded=0;fontStyle=1;fillColor=#f5f5f5;strokeColor=#666666;fontColor=#333333;" vertex="1" parent="1">
          <mxGeometry x="1430" y="-330" width="40" height="40" as="geometry" />
        </mxCell>
        <mxCell id="_QYD-WO2QvrmHmzMgkhw-638" value="A" style="whiteSpace=wrap;html=1;aspect=fixed;hachureGap=4;fontFamily=Courier New;fontSize=30;sketch=1;curveFitting=1;jiggle=2;rounded=0;fontStyle=1;fillColor=#f5f5f5;strokeColor=#666666;fontColor=#333333;" vertex="1" parent="1">
          <mxGeometry x="1470" y="-330" width="40" height="40" as="geometry" />
        </mxCell>
        <mxCell id="_QYD-WO2QvrmHmzMgkhw-639" value="_" style="whiteSpace=wrap;html=1;aspect=fixed;hachureGap=4;fontFamily=Courier New;fontSize=30;sketch=1;curveFitting=1;jiggle=2;rounded=0;fontStyle=1;fillColor=#f5f5f5;strokeColor=#666666;fontColor=#333333;" vertex="1" parent="1">
          <mxGeometry x="1510" y="-330" width="40" height="40" as="geometry" />
        </mxCell>
        <mxCell id="_QYD-WO2QvrmHmzMgkhw-640" value="S" style="whiteSpace=wrap;html=1;aspect=fixed;hachureGap=4;fontFamily=Courier New;fontSize=30;sketch=1;curveFitting=1;jiggle=2;rounded=0;fontStyle=1;fillColor=#f5f5f5;strokeColor=#666666;fontColor=#333333;" vertex="1" parent="1">
          <mxGeometry x="1550" y="-330" width="40" height="40" as="geometry" />
        </mxCell>
        <mxCell id="_QYD-WO2QvrmHmzMgkhw-641" value="I" style="whiteSpace=wrap;html=1;aspect=fixed;hachureGap=4;fontFamily=Courier New;fontSize=30;sketch=1;curveFitting=1;jiggle=2;rounded=0;fontStyle=1;fillColor=#f5f5f5;strokeColor=#666666;fontColor=#333333;" vertex="1" parent="1">
          <mxGeometry x="1590" y="-330" width="40" height="40" as="geometry" />
        </mxCell>
        <mxCell id="_QYD-WO2QvrmHmzMgkhw-642" value="M" style="whiteSpace=wrap;html=1;aspect=fixed;hachureGap=4;fontFamily=Courier New;fontSize=30;sketch=1;curveFitting=1;jiggle=2;rounded=0;fontStyle=1;fillColor=#f5f5f5;strokeColor=#666666;fontColor=#333333;" vertex="1" parent="1">
          <mxGeometry x="1630" y="-330" width="40" height="40" as="geometry" />
        </mxCell>
        <mxCell id="_QYD-WO2QvrmHmzMgkhw-643" value="P" style="whiteSpace=wrap;html=1;aspect=fixed;hachureGap=4;fontFamily=Courier New;fontSize=30;sketch=1;curveFitting=1;jiggle=2;rounded=0;fontStyle=1;fillColor=#f5f5f5;strokeColor=#666666;fontColor=#333333;" vertex="1" parent="1">
          <mxGeometry x="1670" y="-330" width="40" height="40" as="geometry" />
        </mxCell>
        <mxCell id="_QYD-WO2QvrmHmzMgkhw-644" value="L" style="whiteSpace=wrap;html=1;aspect=fixed;hachureGap=4;fontFamily=Courier New;fontSize=30;sketch=1;curveFitting=1;jiggle=2;rounded=0;fontStyle=1;fillColor=#f5f5f5;strokeColor=#666666;fontColor=#333333;" vertex="1" parent="1">
          <mxGeometry x="1710" y="-330" width="40" height="40" as="geometry" />
        </mxCell>
        <mxCell id="_QYD-WO2QvrmHmzMgkhw-645" value="E" style="whiteSpace=wrap;html=1;aspect=fixed;hachureGap=4;fontFamily=Courier New;fontSize=30;sketch=1;curveFitting=1;jiggle=2;rounded=0;fontStyle=1;fillColor=#f5f5f5;strokeColor=#666666;fontColor=#333333;" vertex="1" parent="1">
          <mxGeometry x="1750" y="-330" width="40" height="40" as="geometry" />
        </mxCell>
        <mxCell id="_QYD-WO2QvrmHmzMgkhw-646" value="L" style="whiteSpace=wrap;html=1;aspect=fixed;hachureGap=4;fontFamily=Courier New;fontSize=30;sketch=1;curveFitting=1;jiggle=2;rounded=0;fontStyle=1;fillColor=#f5f5f5;strokeColor=#666666;fontColor=#333333;" vertex="1" parent="1">
          <mxGeometry x="2030" y="-330" width="40" height="40" as="geometry" />
        </mxCell>
        <mxCell id="_QYD-WO2QvrmHmzMgkhw-647" value="E" style="whiteSpace=wrap;html=1;aspect=fixed;hachureGap=4;fontFamily=Courier New;fontSize=30;sketch=1;curveFitting=1;jiggle=2;rounded=0;fontStyle=1;fillColor=#f5f5f5;strokeColor=#666666;fontColor=#333333;" vertex="1" parent="1">
          <mxGeometry x="2070" y="-330" width="40" height="40" as="geometry" />
        </mxCell>
        <mxCell id="_QYD-WO2QvrmHmzMgkhw-648" value="_" style="whiteSpace=wrap;html=1;aspect=fixed;hachureGap=4;fontFamily=Courier New;fontSize=30;sketch=1;curveFitting=1;jiggle=2;rounded=0;fontStyle=1;fillColor=#f5f5f5;strokeColor=#666666;fontColor=#333333;" vertex="1" parent="1">
          <mxGeometry x="1790" y="-330" width="40" height="40" as="geometry" />
        </mxCell>
        <mxCell id="_QYD-WO2QvrmHmzMgkhw-649" value="E" style="whiteSpace=wrap;html=1;aspect=fixed;hachureGap=4;fontFamily=Courier New;fontSize=30;sketch=1;curveFitting=1;jiggle=2;rounded=0;fontStyle=1;fillColor=#f5f5f5;strokeColor=#666666;fontColor=#333333;" vertex="1" parent="1">
          <mxGeometry x="1830" y="-330" width="40" height="40" as="geometry" />
        </mxCell>
        <mxCell id="_QYD-WO2QvrmHmzMgkhw-650" value="X" style="whiteSpace=wrap;html=1;aspect=fixed;hachureGap=4;fontFamily=Courier New;fontSize=30;sketch=1;curveFitting=1;jiggle=2;rounded=0;fontStyle=1;fillColor=#f5f5f5;strokeColor=#666666;fontColor=#333333;" vertex="1" parent="1">
          <mxGeometry x="1870" y="-330" width="40" height="40" as="geometry" />
        </mxCell>
        <mxCell id="_QYD-WO2QvrmHmzMgkhw-651" value="A" style="whiteSpace=wrap;html=1;aspect=fixed;hachureGap=4;fontFamily=Courier New;fontSize=30;sketch=1;curveFitting=1;jiggle=2;rounded=0;fontStyle=1;fillColor=#f5f5f5;strokeColor=#666666;fontColor=#333333;" vertex="1" parent="1">
          <mxGeometry x="1910" y="-330" width="40" height="40" as="geometry" />
        </mxCell>
        <mxCell id="_QYD-WO2QvrmHmzMgkhw-652" value="M" style="whiteSpace=wrap;html=1;aspect=fixed;hachureGap=4;fontFamily=Courier New;fontSize=30;sketch=1;curveFitting=1;jiggle=2;rounded=0;fontStyle=1;fillColor=#f5f5f5;strokeColor=#666666;fontColor=#333333;" vertex="1" parent="1">
          <mxGeometry x="1950" y="-330" width="40" height="40" as="geometry" />
        </mxCell>
        <mxCell id="_QYD-WO2QvrmHmzMgkhw-653" value="P" style="whiteSpace=wrap;html=1;aspect=fixed;hachureGap=4;fontFamily=Courier New;fontSize=30;sketch=1;curveFitting=1;jiggle=2;rounded=0;fontStyle=1;fillColor=#f5f5f5;strokeColor=#666666;fontColor=#333333;" vertex="1" parent="1">
          <mxGeometry x="1990" y="-330" width="40" height="40" as="geometry" />
        </mxCell>
        <mxCell id="_QYD-WO2QvrmHmzMgkhw-654" value="L" style="whiteSpace=wrap;html=1;aspect=fixed;hachureGap=4;fontFamily=Courier New;fontSize=30;sketch=1;curveFitting=1;jiggle=2;rounded=0;fontStyle=1;fillColor=#f5f5f5;strokeColor=#666666;fontColor=#333333;" vertex="1" parent="1">
          <mxGeometry x="1350" y="-200" width="40" height="40" as="geometry" />
        </mxCell>
        <mxCell id="_QYD-WO2QvrmHmzMgkhw-655" value="E" style="whiteSpace=wrap;html=1;aspect=fixed;hachureGap=4;fontFamily=Courier New;fontSize=30;sketch=1;curveFitting=1;jiggle=2;rounded=0;fontStyle=1;fillColor=#f5f5f5;strokeColor=#666666;fontColor=#333333;" vertex="1" parent="1">
          <mxGeometry x="1390" y="-200" width="40" height="40" as="geometry" />
        </mxCell>
        <mxCell id="_QYD-WO2QvrmHmzMgkhw-656" value="E" style="whiteSpace=wrap;html=1;aspect=fixed;hachureGap=4;fontFamily=Courier New;fontSize=30;sketch=1;curveFitting=1;jiggle=2;rounded=0;fontStyle=1;fillColor=#f5f5f5;strokeColor=#666666;fontColor=#333333;" vertex="1" parent="1">
          <mxGeometry x="1150" y="-200" width="40" height="40" as="geometry" />
        </mxCell>
        <mxCell id="_QYD-WO2QvrmHmzMgkhw-657" value="X" style="whiteSpace=wrap;html=1;aspect=fixed;hachureGap=4;fontFamily=Courier New;fontSize=30;sketch=1;curveFitting=1;jiggle=2;rounded=0;fontStyle=1;fillColor=#f5f5f5;strokeColor=#666666;fontColor=#333333;" vertex="1" parent="1">
          <mxGeometry x="1190" y="-200" width="40" height="40" as="geometry" />
        </mxCell>
        <mxCell id="_QYD-WO2QvrmHmzMgkhw-658" value="A" style="whiteSpace=wrap;html=1;aspect=fixed;hachureGap=4;fontFamily=Courier New;fontSize=30;sketch=1;curveFitting=1;jiggle=2;rounded=0;fontStyle=1;fillColor=#f5f5f5;strokeColor=#666666;fontColor=#333333;" vertex="1" parent="1">
          <mxGeometry x="1230" y="-200" width="40" height="40" as="geometry" />
        </mxCell>
        <mxCell id="_QYD-WO2QvrmHmzMgkhw-659" value="M" style="whiteSpace=wrap;html=1;aspect=fixed;hachureGap=4;fontFamily=Courier New;fontSize=30;sketch=1;curveFitting=1;jiggle=2;rounded=0;fontStyle=1;fillColor=#f5f5f5;strokeColor=#666666;fontColor=#333333;" vertex="1" parent="1">
          <mxGeometry x="1270" y="-200" width="40" height="40" as="geometry" />
        </mxCell>
        <mxCell id="_QYD-WO2QvrmHmzMgkhw-660" value="P" style="whiteSpace=wrap;html=1;aspect=fixed;hachureGap=4;fontFamily=Courier New;fontSize=30;sketch=1;curveFitting=1;jiggle=2;rounded=0;fontStyle=1;fillColor=#f5f5f5;strokeColor=#666666;fontColor=#333333;" vertex="1" parent="1">
          <mxGeometry x="1310" y="-200" width="40" height="40" as="geometry" />
        </mxCell>
        <mxCell id="_QYD-WO2QvrmHmzMgkhw-661" value="p串" style="text;html=1;strokeColor=none;fillColor=none;align=center;verticalAlign=middle;whiteSpace=wrap;rounded=0;fontSize=22;fontFamily=Lucida Console;fontColor=default;fontStyle=1;" vertex="1" parent="1">
          <mxGeometry x="1060" y="-195" width="60" height="30" as="geometry" />
        </mxCell>
        <mxCell id="_QYD-WO2QvrmHmzMgkhw-669" value="t串" style="text;html=1;strokeColor=none;fillColor=none;align=center;verticalAlign=middle;whiteSpace=wrap;rounded=0;fontSize=22;fontFamily=Lucida Console;fontColor=default;fontStyle=1;" vertex="1" parent="1">
          <mxGeometry x="1060" y="-325" width="60" height="30" as="geometry" />
        </mxCell>
        <mxCell id="_QYD-WO2QvrmHmzMgkhw-677" value="5" style="whiteSpace=wrap;html=1;aspect=fixed;hachureGap=4;fontFamily=Courier New;fontSize=25;sketch=1;curveFitting=1;jiggle=2;rounded=0;fontStyle=1;fillColor=#f5f5f5;strokeColor=#666666;fontColor=#333333;" vertex="1" parent="1">
          <mxGeometry x="1680" y="305" width="40" height="40" as="geometry" />
        </mxCell>
        <mxCell id="_QYD-WO2QvrmHmzMgkhw-678" value="6" style="whiteSpace=wrap;html=1;aspect=fixed;hachureGap=4;fontFamily=Courier New;fontSize=25;sketch=1;curveFitting=1;jiggle=2;rounded=0;fontStyle=1;fillColor=#f5f5f5;strokeColor=#666666;fontColor=#333333;" vertex="1" parent="1">
          <mxGeometry x="1720" y="305" width="40" height="40" as="geometry" />
        </mxCell>
        <mxCell id="_QYD-WO2QvrmHmzMgkhw-679" value="0" style="whiteSpace=wrap;html=1;aspect=fixed;hachureGap=4;fontFamily=Courier New;fontSize=25;sketch=1;curveFitting=1;jiggle=2;rounded=0;fontStyle=1;fillColor=#f5f5f5;strokeColor=#666666;fontColor=#333333;" vertex="1" parent="1">
          <mxGeometry x="1480" y="305" width="40" height="40" as="geometry" />
        </mxCell>
        <mxCell id="_QYD-WO2QvrmHmzMgkhw-680" value="1" style="whiteSpace=wrap;html=1;aspect=fixed;hachureGap=4;fontFamily=Courier New;fontSize=25;sketch=1;curveFitting=1;jiggle=2;rounded=0;fontStyle=1;fillColor=#f5f5f5;strokeColor=#666666;fontColor=#FF0000;" vertex="1" parent="1">
          <mxGeometry x="1520" y="305" width="40" height="40" as="geometry" />
        </mxCell>
        <mxCell id="_QYD-WO2QvrmHmzMgkhw-681" value="2" style="whiteSpace=wrap;html=1;aspect=fixed;hachureGap=4;fontFamily=Courier New;fontSize=25;sketch=1;curveFitting=1;jiggle=2;rounded=0;fontStyle=1;fillColor=#f5f5f5;strokeColor=#666666;fontColor=#333333;" vertex="1" parent="1">
          <mxGeometry x="1560" y="305" width="40" height="40" as="geometry" />
        </mxCell>
        <mxCell id="_QYD-WO2QvrmHmzMgkhw-682" value="3" style="whiteSpace=wrap;html=1;aspect=fixed;hachureGap=4;fontFamily=Courier New;fontSize=25;sketch=1;curveFitting=1;jiggle=2;rounded=0;fontStyle=1;fillColor=#f5f5f5;strokeColor=#666666;fontColor=#333333;" vertex="1" parent="1">
          <mxGeometry x="1600" y="305" width="40" height="40" as="geometry" />
        </mxCell>
        <mxCell id="_QYD-WO2QvrmHmzMgkhw-683" value="4" style="whiteSpace=wrap;html=1;aspect=fixed;hachureGap=4;fontFamily=Courier New;fontSize=25;sketch=1;curveFitting=1;jiggle=2;rounded=0;fontStyle=1;fillColor=#f5f5f5;strokeColor=#666666;fontColor=#FF0000;" vertex="1" parent="1">
          <mxGeometry x="1640" y="305" width="40" height="40" as="geometry" />
        </mxCell>
        <mxCell id="_QYD-WO2QvrmHmzMgkhw-684" value="" style="ellipse;whiteSpace=wrap;html=1;aspect=fixed;hachureGap=4;fontFamily=Architects Daughter;fontSource=https%3A%2F%2Ffonts.googleapis.com%2Fcss%3Ffamily%3DArchitects%2BDaughter;fontSize=20;fillColor=none;strokeColor=#00CC00;sketch=1;curveFitting=1;jiggle=2;" vertex="1" parent="1">
          <mxGeometry x="1515" y="260" width="50" height="50" as="geometry" />
        </mxCell>
        <mxCell id="_QYD-WO2QvrmHmzMgkhw-694" value="L" style="whiteSpace=wrap;html=1;aspect=fixed;hachureGap=4;fontFamily=Courier New;fontSize=30;sketch=1;curveFitting=1;jiggle=2;rounded=0;fontStyle=1;fillColor=#f5f5f5;strokeColor=#666666;fontColor=#333333;" vertex="1" parent="1">
          <mxGeometry x="1760" y="360" width="40" height="40" as="geometry" />
        </mxCell>
        <mxCell id="_QYD-WO2QvrmHmzMgkhw-695" value="E" style="whiteSpace=wrap;html=1;aspect=fixed;hachureGap=4;fontFamily=Courier New;fontSize=30;sketch=1;curveFitting=1;jiggle=2;rounded=0;fontStyle=1;fillColor=#f5f5f5;strokeColor=#666666;fontColor=#333333;" vertex="1" parent="1">
          <mxGeometry x="1800" y="360" width="40" height="40" as="geometry" />
        </mxCell>
        <mxCell id="_QYD-WO2QvrmHmzMgkhw-696" value="E" style="whiteSpace=wrap;html=1;aspect=fixed;hachureGap=4;fontFamily=Courier New;fontSize=30;sketch=1;curveFitting=1;jiggle=2;rounded=0;fontStyle=1;fillColor=#f5f5f5;strokeColor=#666666;fontColor=#333333;" vertex="1" parent="1">
          <mxGeometry x="1560" y="360" width="40" height="40" as="geometry" />
        </mxCell>
        <mxCell id="_QYD-WO2QvrmHmzMgkhw-697" value="P0" style="whiteSpace=wrap;html=1;aspect=fixed;hachureGap=4;fontFamily=Courier New;fontSize=30;sketch=1;curveFitting=1;jiggle=2;rounded=0;fontStyle=1;fillColor=#f5f5f5;strokeColor=#666666;fontColor=#333333;" vertex="1" parent="1">
          <mxGeometry x="1600" y="360" width="40" height="40" as="geometry" />
        </mxCell>
        <mxCell id="_QYD-WO2QvrmHmzMgkhw-698" value="A" style="whiteSpace=wrap;html=1;aspect=fixed;hachureGap=4;fontFamily=Courier New;fontSize=30;sketch=1;curveFitting=1;jiggle=2;rounded=0;fontStyle=1;fillColor=#f5f5f5;strokeColor=#666666;fontColor=#333333;" vertex="1" parent="1">
          <mxGeometry x="1640" y="360" width="40" height="40" as="geometry" />
        </mxCell>
        <mxCell id="_QYD-WO2QvrmHmzMgkhw-699" value="M" style="whiteSpace=wrap;html=1;aspect=fixed;hachureGap=4;fontFamily=Courier New;fontSize=30;sketch=1;curveFitting=1;jiggle=2;rounded=0;fontStyle=1;fillColor=#f5f5f5;strokeColor=#666666;fontColor=#333333;" vertex="1" parent="1">
          <mxGeometry x="1680" y="360" width="40" height="40" as="geometry" />
        </mxCell>
        <mxCell id="_QYD-WO2QvrmHmzMgkhw-700" value="P1" style="whiteSpace=wrap;html=1;aspect=fixed;hachureGap=4;fontFamily=Courier New;fontSize=30;sketch=1;curveFitting=1;jiggle=2;rounded=0;fontStyle=1;fillColor=#f5f5f5;strokeColor=#666666;fontColor=#333333;" vertex="1" parent="1">
          <mxGeometry x="1720" y="360" width="40" height="40" as="geometry" />
        </mxCell>
        <mxCell id="_QYD-WO2QvrmHmzMgkhw-701" value="L" style="whiteSpace=wrap;html=1;aspect=fixed;hachureGap=4;fontFamily=Courier New;fontSize=30;sketch=1;curveFitting=1;jiggle=2;rounded=0;fontStyle=1;fillColor=#f5f5f5;strokeColor=#666666;fontColor=#333333;" vertex="1" parent="1">
          <mxGeometry x="1840" y="415" width="40" height="40" as="geometry" />
        </mxCell>
        <mxCell id="_QYD-WO2QvrmHmzMgkhw-702" value="E" style="whiteSpace=wrap;html=1;aspect=fixed;hachureGap=4;fontFamily=Courier New;fontSize=30;sketch=1;curveFitting=1;jiggle=2;rounded=0;fontStyle=1;fillColor=#f5f5f5;strokeColor=#666666;fontColor=#333333;" vertex="1" parent="1">
          <mxGeometry x="1880" y="415" width="40" height="40" as="geometry" />
        </mxCell>
        <mxCell id="_QYD-WO2QvrmHmzMgkhw-703" value="E" style="whiteSpace=wrap;html=1;aspect=fixed;hachureGap=4;fontFamily=Courier New;fontSize=30;sketch=1;curveFitting=1;jiggle=2;rounded=0;fontStyle=1;fillColor=#f5f5f5;strokeColor=#666666;fontColor=#333333;" vertex="1" parent="1">
          <mxGeometry x="1640" y="415" width="40" height="40" as="geometry" />
        </mxCell>
        <mxCell id="_QYD-WO2QvrmHmzMgkhw-704" value="X" style="whiteSpace=wrap;html=1;aspect=fixed;hachureGap=4;fontFamily=Courier New;fontSize=30;sketch=1;curveFitting=1;jiggle=2;rounded=0;fontStyle=1;fillColor=#f5f5f5;strokeColor=#666666;fontColor=#333333;" vertex="1" parent="1">
          <mxGeometry x="1680" y="415" width="40" height="40" as="geometry" />
        </mxCell>
        <mxCell id="_QYD-WO2QvrmHmzMgkhw-705" value="P0" style="whiteSpace=wrap;html=1;aspect=fixed;hachureGap=4;fontFamily=Courier New;fontSize=30;sketch=1;curveFitting=1;jiggle=2;rounded=0;fontStyle=1;fillColor=#f5f5f5;strokeColor=#666666;fontColor=#333333;" vertex="1" parent="1">
          <mxGeometry x="1720" y="415" width="40" height="40" as="geometry" />
        </mxCell>
        <mxCell id="_QYD-WO2QvrmHmzMgkhw-706" value="M" style="whiteSpace=wrap;html=1;aspect=fixed;hachureGap=4;fontFamily=Courier New;fontSize=30;sketch=1;curveFitting=1;jiggle=2;rounded=0;fontStyle=1;fillColor=#f5f5f5;strokeColor=#666666;fontColor=#333333;" vertex="1" parent="1">
          <mxGeometry x="1760" y="415" width="40" height="40" as="geometry" />
        </mxCell>
        <mxCell id="_QYD-WO2QvrmHmzMgkhw-707" value="P1" style="whiteSpace=wrap;html=1;aspect=fixed;hachureGap=4;fontFamily=Courier New;fontSize=30;sketch=1;curveFitting=1;jiggle=2;rounded=0;fontStyle=1;fillColor=#f5f5f5;strokeColor=#666666;fontColor=#333333;" vertex="1" parent="1">
          <mxGeometry x="1800" y="415" width="40" height="40" as="geometry" />
        </mxCell>
        <mxCell id="_QYD-WO2QvrmHmzMgkhw-708" value="b1" style="text;html=1;strokeColor=none;fillColor=none;align=center;verticalAlign=middle;whiteSpace=wrap;rounded=0;fontSize=19;fontFamily=Lucida Console;fontColor=default;" vertex="1" parent="1">
          <mxGeometry x="1440" y="365" width="40" height="30" as="geometry" />
        </mxCell>
        <mxCell id="_QYD-WO2QvrmHmzMgkhw-710" value="b0" style="text;html=1;strokeColor=none;fillColor=none;align=center;verticalAlign=middle;whiteSpace=wrap;rounded=0;fontSize=19;fontFamily=Lucida Console;fontColor=default;" vertex="1" parent="1">
          <mxGeometry x="1445" y="420" width="30" height="30" as="geometry" />
        </mxCell>
        <mxCell id="_QYD-WO2QvrmHmzMgkhw-711" value="" style="ellipse;whiteSpace=wrap;html=1;aspect=fixed;hachureGap=4;fontFamily=Architects Daughter;fontSource=https%3A%2F%2Ffonts.googleapis.com%2Fcss%3Ffamily%3DArchitects%2BDaughter;fontSize=20;fillColor=none;strokeColor=#00CC00;sketch=1;curveFitting=1;jiggle=2;" vertex="1" parent="1">
          <mxGeometry x="1715" y="355" width="50" height="50" as="geometry" />
        </mxCell>
        <mxCell id="_QYD-WO2QvrmHmzMgkhw-712" value="" style="ellipse;whiteSpace=wrap;html=1;aspect=fixed;hachureGap=4;fontFamily=Architects Daughter;fontSource=https%3A%2F%2Ffonts.googleapis.com%2Fcss%3Ffamily%3DArchitects%2BDaughter;fontSize=20;fillColor=none;strokeColor=#00CC00;sketch=1;curveFitting=1;jiggle=2;" vertex="1" parent="1">
          <mxGeometry x="1715" y="410" width="50" height="50" as="geometry" />
        </mxCell>
        <mxCell id="_QYD-WO2QvrmHmzMgkhw-713" value="" style="endArrow=classic;html=1;sketch=1;hachureGap=4;jiggle=2;curveFitting=1;fontFamily=Helvetica;fontSource=https%3A%2F%2Ffonts.googleapis.com%2Fcss%3Ffamily%3DArchitects%2BDaughter;fontSize=12;fontColor=default;entryX=0;entryY=0.5;entryDx=0;entryDy=0;startArrow=baseDash;startFill=0;" edge="1" parent="1" target="_QYD-WO2QvrmHmzMgkhw-696">
          <mxGeometry width="50" height="50" relative="1" as="geometry">
            <mxPoint x="1480" y="380" as="sourcePoint" />
            <mxPoint x="1540" y="380" as="targetPoint" />
          </mxGeometry>
        </mxCell>
        <mxCell id="_QYD-WO2QvrmHmzMgkhw-714" value="" style="endArrow=classic;html=1;sketch=1;hachureGap=4;jiggle=2;curveFitting=1;fontFamily=Helvetica;fontSource=https%3A%2F%2Ffonts.googleapis.com%2Fcss%3Ffamily%3DArchitects%2BDaughter;fontSize=12;fontColor=default;entryX=0;entryY=0.5;entryDx=0;entryDy=0;startArrow=baseDash;startFill=0;" edge="1" parent="1" target="_QYD-WO2QvrmHmzMgkhw-703">
          <mxGeometry width="50" height="50" relative="1" as="geometry">
            <mxPoint x="1480" y="435" as="sourcePoint" />
            <mxPoint x="1572.5" y="434.65999999999997" as="targetPoint" />
          </mxGeometry>
        </mxCell>
        <mxCell id="_QYD-WO2QvrmHmzMgkhw-715" value="" style="endArrow=none;dashed=1;html=1;rounded=0;strokeWidth=3;startSize=2;endSize=3;hachureGap=4;fontFamily=Architects Daughter;fontSource=https%3A%2F%2Ffonts.googleapis.com%2Fcss%3Ffamily%3DArchitects%2BDaughter;fontSize=16;jumpSize=5;strokeColor=#FF0000;" edge="1" parent="1">
          <mxGeometry width="50" height="50" relative="1" as="geometry">
            <mxPoint x="1479" y="475" as="sourcePoint" />
            <mxPoint x="1479" y="250" as="targetPoint" />
          </mxGeometry>
        </mxCell>
        <mxCell id="_QYD-WO2QvrmHmzMgkhw-716" value="&lt;font style=&quot;font-size: 13px;&quot;&gt;2bits&lt;/font&gt;" style="text;html=1;strokeColor=none;fillColor=none;align=center;verticalAlign=middle;whiteSpace=wrap;rounded=0;fontSize=12;fontFamily=Lucida Console;fontColor=default;" vertex="1" parent="1">
          <mxGeometry x="1490" y="355" width="60" height="30" as="geometry" />
        </mxCell>
        <mxCell id="_QYD-WO2QvrmHmzMgkhw-717" value="4bits" style="text;html=1;strokeColor=none;fillColor=none;align=center;verticalAlign=middle;whiteSpace=wrap;rounded=0;fontSize=13;fontFamily=Lucida Console;fontColor=default;" vertex="1" parent="1">
          <mxGeometry x="1490" y="410" width="60" height="30" as="geometry" />
        </mxCell>
        <mxCell id="_QYD-WO2QvrmHmzMgkhw-729" value="i+2" style="text;html=1;strokeColor=none;fillColor=none;align=center;verticalAlign=middle;whiteSpace=wrap;rounded=0;fontSize=25;fontFamily=Courier New;fontStyle=1;fontColor=#FF0000;" vertex="1" parent="1">
          <mxGeometry x="1785" y="120" width="70" height="30" as="geometry" />
        </mxCell>
        <mxCell id="_QYD-WO2QvrmHmzMgkhw-730" value="" style="endArrow=classic;html=1;sketch=1;hachureGap=4;jiggle=2;curveFitting=1;fontFamily=Architects Daughter;fontSource=https%3A%2F%2Ffonts.googleapis.com%2Fcss%3Ffamily%3DArchitects%2BDaughter;fontSize=16;strokeWidth=2;strokeColor=#FF3333;" edge="1" parent="1">
          <mxGeometry width="50" height="50" relative="1" as="geometry">
            <mxPoint x="1820" y="150" as="sourcePoint" />
            <mxPoint x="1819.83" y="190" as="targetPoint" />
          </mxGeometry>
        </mxCell>
        <mxCell id="_QYD-WO2QvrmHmzMgkhw-733" value="j" style="text;html=1;strokeColor=none;fillColor=none;align=center;verticalAlign=middle;whiteSpace=wrap;rounded=0;fontSize=25;fontFamily=Courier New;fontStyle=1;fontColor=#FF0000;" vertex="1" parent="1">
          <mxGeometry x="1802.5" y="280" width="35" height="30" as="geometry" />
        </mxCell>
        <mxCell id="_QYD-WO2QvrmHmzMgkhw-734" value="" style="endArrow=classic;html=1;sketch=1;hachureGap=4;jiggle=2;curveFitting=1;fontFamily=Architects Daughter;fontSource=https%3A%2F%2Ffonts.googleapis.com%2Fcss%3Ffamily%3DArchitects%2BDaughter;fontSize=16;strokeWidth=2;strokeColor=#FF3333;" edge="1" parent="1">
          <mxGeometry width="50" height="50" relative="1" as="geometry">
            <mxPoint x="1820" y="310" as="sourcePoint" />
            <mxPoint x="1819.83" y="350" as="targetPoint" />
          </mxGeometry>
        </mxCell>
        <mxCell id="_QYD-WO2QvrmHmzMgkhw-735" value="L" style="whiteSpace=wrap;html=1;aspect=fixed;hachureGap=4;fontFamily=Courier New;fontSize=30;sketch=1;curveFitting=1;jiggle=2;rounded=0;fontStyle=1;fillColor=#f5f5f5;strokeColor=#666666;fontColor=#333333;" vertex="1" parent="1">
          <mxGeometry x="1680" y="550" width="40" height="40" as="geometry" />
        </mxCell>
        <mxCell id="_QYD-WO2QvrmHmzMgkhw-736" value="E" style="whiteSpace=wrap;html=1;aspect=fixed;hachureGap=4;fontFamily=Courier New;fontSize=30;sketch=1;curveFitting=1;jiggle=2;rounded=0;fontStyle=1;fillColor=#f5f5f5;strokeColor=#666666;fontColor=#333333;" vertex="1" parent="1">
          <mxGeometry x="1720" y="550" width="40" height="40" as="geometry" />
        </mxCell>
        <mxCell id="_QYD-WO2QvrmHmzMgkhw-737" value="E" style="whiteSpace=wrap;html=1;aspect=fixed;hachureGap=4;fontFamily=Courier New;fontSize=30;sketch=1;curveFitting=1;jiggle=2;rounded=0;fontStyle=1;fillColor=#f5f5f5;strokeColor=#666666;fontColor=#333333;" vertex="1" parent="1">
          <mxGeometry x="1480" y="550" width="40" height="40" as="geometry" />
        </mxCell>
        <mxCell id="_QYD-WO2QvrmHmzMgkhw-738" value="X" style="whiteSpace=wrap;html=1;aspect=fixed;hachureGap=4;fontFamily=Courier New;fontSize=30;sketch=1;curveFitting=1;jiggle=2;rounded=0;fontStyle=1;fillColor=#f5f5f5;strokeColor=#666666;fontColor=#333333;" vertex="1" parent="1">
          <mxGeometry x="1520" y="550" width="40" height="40" as="geometry" />
        </mxCell>
        <mxCell id="_QYD-WO2QvrmHmzMgkhw-739" value="A" style="whiteSpace=wrap;html=1;aspect=fixed;hachureGap=4;fontFamily=Courier New;fontSize=30;sketch=1;curveFitting=1;jiggle=2;rounded=0;fontStyle=1;fillColor=#f5f5f5;strokeColor=#666666;fontColor=#333333;" vertex="1" parent="1">
          <mxGeometry x="1560" y="550" width="40" height="40" as="geometry" />
        </mxCell>
        <mxCell id="_QYD-WO2QvrmHmzMgkhw-740" value="M" style="whiteSpace=wrap;html=1;aspect=fixed;hachureGap=4;fontFamily=Courier New;fontSize=30;sketch=1;curveFitting=1;jiggle=2;rounded=0;fontStyle=1;fillColor=#f5f5f5;strokeColor=#666666;fontColor=#333333;" vertex="1" parent="1">
          <mxGeometry x="1600" y="550" width="40" height="40" as="geometry" />
        </mxCell>
        <mxCell id="_QYD-WO2QvrmHmzMgkhw-741" value="P" style="whiteSpace=wrap;html=1;aspect=fixed;hachureGap=4;fontFamily=Courier New;fontSize=30;sketch=1;curveFitting=1;jiggle=2;rounded=0;fontStyle=1;fillColor=#f5f5f5;strokeColor=#666666;fontColor=#333333;" vertex="1" parent="1">
          <mxGeometry x="1640" y="550" width="40" height="40" as="geometry" />
        </mxCell>
        <mxCell id="_QYD-WO2QvrmHmzMgkhw-749" value="L" style="whiteSpace=wrap;html=1;aspect=fixed;hachureGap=4;fontFamily=Courier New;fontSize=30;sketch=1;curveFitting=1;jiggle=2;rounded=0;fontStyle=1;fillColor=#f5f5f5;strokeColor=#666666;fontColor=#333333;" vertex="1" parent="1">
          <mxGeometry x="1680" y="590" width="40" height="40" as="geometry" />
        </mxCell>
        <mxCell id="_QYD-WO2QvrmHmzMgkhw-750" value="E" style="whiteSpace=wrap;html=1;aspect=fixed;hachureGap=4;fontFamily=Courier New;fontSize=30;sketch=1;curveFitting=1;jiggle=2;rounded=0;fontStyle=1;fillColor=#f5f5f5;strokeColor=#666666;fontColor=#333333;" vertex="1" parent="1">
          <mxGeometry x="1720" y="590" width="40" height="40" as="geometry" />
        </mxCell>
        <mxCell id="_QYD-WO2QvrmHmzMgkhw-751" value="E" style="whiteSpace=wrap;html=1;aspect=fixed;hachureGap=4;fontFamily=Courier New;fontSize=30;sketch=1;curveFitting=1;jiggle=2;rounded=0;fontStyle=1;fillColor=#f5f5f5;strokeColor=#666666;fontColor=#333333;" vertex="1" parent="1">
          <mxGeometry x="1480" y="590" width="40" height="40" as="geometry" />
        </mxCell>
        <mxCell id="_QYD-WO2QvrmHmzMgkhw-752" value="X" style="whiteSpace=wrap;html=1;aspect=fixed;hachureGap=4;fontFamily=Courier New;fontSize=30;sketch=1;curveFitting=1;jiggle=2;rounded=0;fontStyle=1;fillColor=#f5f5f5;strokeColor=#666666;fontColor=#333333;" vertex="1" parent="1">
          <mxGeometry x="1520" y="590" width="40" height="40" as="geometry" />
        </mxCell>
        <mxCell id="_QYD-WO2QvrmHmzMgkhw-753" value="A" style="whiteSpace=wrap;html=1;aspect=fixed;hachureGap=4;fontFamily=Courier New;fontSize=30;sketch=1;curveFitting=1;jiggle=2;rounded=0;fontStyle=1;fillColor=#f5f5f5;strokeColor=#666666;fontColor=#333333;" vertex="1" parent="1">
          <mxGeometry x="1560" y="590" width="40" height="40" as="geometry" />
        </mxCell>
        <mxCell id="_QYD-WO2QvrmHmzMgkhw-754" value="M" style="whiteSpace=wrap;html=1;aspect=fixed;hachureGap=4;fontFamily=Courier New;fontSize=30;sketch=1;curveFitting=1;jiggle=2;rounded=0;fontStyle=1;fillColor=#f5f5f5;strokeColor=#666666;fontColor=#333333;" vertex="1" parent="1">
          <mxGeometry x="1600" y="590" width="40" height="40" as="geometry" />
        </mxCell>
        <mxCell id="_QYD-WO2QvrmHmzMgkhw-755" value="P" style="whiteSpace=wrap;html=1;aspect=fixed;hachureGap=4;fontFamily=Courier New;fontSize=30;sketch=1;curveFitting=1;jiggle=2;rounded=0;fontStyle=1;fillColor=#f5f5f5;strokeColor=#666666;fontColor=#333333;" vertex="1" parent="1">
          <mxGeometry x="1640" y="590" width="40" height="40" as="geometry" />
        </mxCell>
        <mxCell id="_QYD-WO2QvrmHmzMgkhw-761" value="p串" style="rounded=0;whiteSpace=wrap;html=1;sketch=1;hachureGap=4;jiggle=2;curveFitting=1;fontFamily=Architects Daughter;fontSource=https%3A%2F%2Ffonts.googleapis.com%2Fcss%3Ffamily%3DArchitects%2BDaughter;fontSize=20;fillColor=#f8cecc;strokeColor=#b85450;" vertex="1" parent="1">
          <mxGeometry x="1360" y="550" width="120" height="40" as="geometry" />
        </mxCell>
        <mxCell id="_QYD-WO2QvrmHmzMgkhw-762" value="good_shift" style="rounded=0;whiteSpace=wrap;html=1;sketch=1;hachureGap=4;jiggle=2;curveFitting=1;fontFamily=Architects Daughter;fontSource=https%3A%2F%2Ffonts.googleapis.com%2Fcss%3Ffamily%3DArchitects%2BDaughter;fontSize=20;fillColor=#ffe6cc;strokeColor=#d79b00;" vertex="1" parent="1">
          <mxGeometry x="1360" y="590" width="120" height="40" as="geometry" />
        </mxCell>
        <mxCell id="_QYD-WO2QvrmHmzMgkhw-763" value="H" style="whiteSpace=wrap;html=1;aspect=fixed;hachureGap=4;fontFamily=Courier New;fontSize=30;sketch=1;curveFitting=1;jiggle=2;rounded=0;fontStyle=1;fillColor=#f5f5f5;strokeColor=#666666;fontColor=#333333;" vertex="1" parent="1">
          <mxGeometry x="2270" y="215" width="40" height="40" as="geometry" />
        </mxCell>
        <mxCell id="_QYD-WO2QvrmHmzMgkhw-764" value="E" style="whiteSpace=wrap;html=1;aspect=fixed;hachureGap=4;fontFamily=Courier New;fontSize=30;sketch=1;curveFitting=1;jiggle=2;rounded=0;fontStyle=1;fillColor=#f5f5f5;strokeColor=#666666;fontColor=#333333;" vertex="1" parent="1">
          <mxGeometry x="2310" y="215" width="40" height="40" as="geometry" />
        </mxCell>
        <mxCell id="_QYD-WO2QvrmHmzMgkhw-765" value="R" style="whiteSpace=wrap;html=1;aspect=fixed;hachureGap=4;fontFamily=Courier New;fontSize=30;sketch=1;curveFitting=1;jiggle=2;rounded=0;fontStyle=1;fillColor=#f5f5f5;strokeColor=#666666;fontColor=#333333;" vertex="1" parent="1">
          <mxGeometry x="2350" y="215" width="40" height="40" as="geometry" />
        </mxCell>
        <mxCell id="_QYD-WO2QvrmHmzMgkhw-766" value="E" style="whiteSpace=wrap;html=1;aspect=fixed;hachureGap=4;fontFamily=Courier New;fontSize=30;sketch=1;curveFitting=1;jiggle=2;rounded=0;fontStyle=1;fillColor=#f5f5f5;strokeColor=#666666;fontColor=#333333;" vertex="1" parent="1">
          <mxGeometry x="2390" y="215" width="40" height="40" as="geometry" />
        </mxCell>
        <mxCell id="_QYD-WO2QvrmHmzMgkhw-767" value="_" style="whiteSpace=wrap;html=1;aspect=fixed;hachureGap=4;fontFamily=Courier New;fontSize=30;sketch=1;curveFitting=1;jiggle=2;rounded=0;fontStyle=1;fillColor=#f5f5f5;strokeColor=#666666;fontColor=#333333;" vertex="1" parent="1">
          <mxGeometry x="2430" y="215" width="40" height="40" as="geometry" />
        </mxCell>
        <mxCell id="_QYD-WO2QvrmHmzMgkhw-768" value="I" style="whiteSpace=wrap;html=1;aspect=fixed;hachureGap=4;fontFamily=Courier New;fontSize=30;sketch=1;curveFitting=1;jiggle=2;rounded=0;fontStyle=1;fillColor=#f5f5f5;strokeColor=#666666;fontColor=#333333;" vertex="1" parent="1">
          <mxGeometry x="2470" y="215" width="40" height="40" as="geometry" />
        </mxCell>
        <mxCell id="_QYD-WO2QvrmHmzMgkhw-769" value="S" style="whiteSpace=wrap;html=1;aspect=fixed;hachureGap=4;fontFamily=Courier New;fontSize=30;sketch=1;curveFitting=1;jiggle=2;rounded=0;fontStyle=1;fillColor=#f5f5f5;strokeColor=#666666;fontColor=#333333;" vertex="1" parent="1">
          <mxGeometry x="2510" y="215" width="40" height="40" as="geometry" />
        </mxCell>
        <mxCell id="_QYD-WO2QvrmHmzMgkhw-770" value="S" style="whiteSpace=wrap;html=1;aspect=fixed;hachureGap=4;fontFamily=Courier New;fontSize=30;sketch=1;curveFitting=1;jiggle=2;rounded=0;fontStyle=1;fillColor=#f5f5f5;strokeColor=#666666;fontColor=#333333;" vertex="1" parent="1">
          <mxGeometry x="2550" y="215" width="40" height="40" as="geometry" />
        </mxCell>
        <mxCell id="_QYD-WO2QvrmHmzMgkhw-774" value="P" style="whiteSpace=wrap;html=1;aspect=fixed;hachureGap=4;fontFamily=Courier New;fontSize=30;sketch=1;curveFitting=1;jiggle=2;rounded=0;fontStyle=1;fillColor=#f5f5f5;strokeColor=#666666;fontColor=#333333;" vertex="1" parent="1">
          <mxGeometry x="2710" y="215" width="40" height="40" as="geometry" />
        </mxCell>
        <mxCell id="_QYD-WO2QvrmHmzMgkhw-775" value="L" style="whiteSpace=wrap;html=1;aspect=fixed;hachureGap=4;fontFamily=Courier New;fontSize=30;sketch=1;curveFitting=1;jiggle=2;rounded=0;fontStyle=1;fillColor=#f5f5f5;strokeColor=#666666;fontColor=#333333;" vertex="1" parent="1">
          <mxGeometry x="2750" y="215" width="40" height="40" as="geometry" />
        </mxCell>
        <mxCell id="_QYD-WO2QvrmHmzMgkhw-776" value="E" style="whiteSpace=wrap;html=1;aspect=fixed;hachureGap=4;fontFamily=Courier New;fontSize=30;sketch=1;curveFitting=1;jiggle=2;rounded=0;fontStyle=1;fillColor=#f5f5f5;strokeColor=#666666;fontColor=#333333;" vertex="1" parent="1">
          <mxGeometry x="2790" y="215" width="40" height="40" as="geometry" />
        </mxCell>
        <mxCell id="_QYD-WO2QvrmHmzMgkhw-777" value="L" style="whiteSpace=wrap;html=1;aspect=fixed;hachureGap=4;fontFamily=Courier New;fontSize=30;sketch=1;curveFitting=1;jiggle=2;rounded=0;fontStyle=1;fillColor=#f5f5f5;strokeColor=#666666;fontColor=#333333;" vertex="1" parent="1">
          <mxGeometry x="2830" y="215" width="40" height="40" as="geometry" />
        </mxCell>
        <mxCell id="_QYD-WO2QvrmHmzMgkhw-778" value="E" style="whiteSpace=wrap;html=1;aspect=fixed;hachureGap=4;fontFamily=Courier New;fontSize=30;sketch=1;curveFitting=1;jiggle=2;rounded=0;fontStyle=1;fillColor=#f5f5f5;strokeColor=#666666;fontColor=#333333;" vertex="1" parent="1">
          <mxGeometry x="2870" y="215" width="40" height="40" as="geometry" />
        </mxCell>
        <mxCell id="_QYD-WO2QvrmHmzMgkhw-779" value="L" style="whiteSpace=wrap;html=1;aspect=fixed;hachureGap=4;fontFamily=Courier New;fontSize=30;sketch=1;curveFitting=1;jiggle=2;rounded=0;fontStyle=1;fillColor=#f5f5f5;strokeColor=#666666;fontColor=#333333;" vertex="1" parent="1">
          <mxGeometry x="3150" y="215" width="40" height="40" as="geometry" />
        </mxCell>
        <mxCell id="_QYD-WO2QvrmHmzMgkhw-780" value="E" style="whiteSpace=wrap;html=1;aspect=fixed;hachureGap=4;fontFamily=Courier New;fontSize=30;sketch=1;curveFitting=1;jiggle=2;rounded=0;fontStyle=1;fillColor=#f5f5f5;strokeColor=#666666;fontColor=#333333;" vertex="1" parent="1">
          <mxGeometry x="3190" y="215" width="40" height="40" as="geometry" />
        </mxCell>
        <mxCell id="_QYD-WO2QvrmHmzMgkhw-781" value="_" style="whiteSpace=wrap;html=1;aspect=fixed;hachureGap=4;fontFamily=Courier New;fontSize=30;sketch=1;curveFitting=1;jiggle=2;rounded=0;fontStyle=1;fillColor=#f5f5f5;strokeColor=#666666;fontColor=#333333;" vertex="1" parent="1">
          <mxGeometry x="2910" y="215" width="40" height="40" as="geometry" />
        </mxCell>
        <mxCell id="_QYD-WO2QvrmHmzMgkhw-782" value="E" style="whiteSpace=wrap;html=1;aspect=fixed;hachureGap=4;fontFamily=Courier New;fontSize=30;sketch=1;curveFitting=1;jiggle=2;rounded=0;fontStyle=1;fillColor=#f5f5f5;strokeColor=#666666;fontColor=#333333;" vertex="1" parent="1">
          <mxGeometry x="2950" y="215" width="40" height="40" as="geometry" />
        </mxCell>
        <mxCell id="_QYD-WO2QvrmHmzMgkhw-783" value="X" style="whiteSpace=wrap;html=1;aspect=fixed;hachureGap=4;fontFamily=Courier New;fontSize=30;sketch=1;curveFitting=1;jiggle=2;rounded=0;fontStyle=1;fillColor=#f5f5f5;strokeColor=#666666;fontColor=#333333;" vertex="1" parent="1">
          <mxGeometry x="2990" y="215" width="40" height="40" as="geometry" />
        </mxCell>
        <mxCell id="_QYD-WO2QvrmHmzMgkhw-784" value="A" style="whiteSpace=wrap;html=1;aspect=fixed;hachureGap=4;fontFamily=Courier New;fontSize=30;sketch=1;curveFitting=1;jiggle=2;rounded=0;fontStyle=1;fillColor=#f5f5f5;strokeColor=#666666;fontColor=#333333;" vertex="1" parent="1">
          <mxGeometry x="3030" y="215" width="40" height="40" as="geometry" />
        </mxCell>
        <mxCell id="_QYD-WO2QvrmHmzMgkhw-785" value="M" style="whiteSpace=wrap;html=1;aspect=fixed;hachureGap=4;fontFamily=Courier New;fontSize=30;sketch=1;curveFitting=1;jiggle=2;rounded=0;fontStyle=1;fillColor=#f5f5f5;strokeColor=#666666;fontColor=#333333;" vertex="1" parent="1">
          <mxGeometry x="3070" y="215" width="40" height="40" as="geometry" />
        </mxCell>
        <mxCell id="_QYD-WO2QvrmHmzMgkhw-786" value="P" style="whiteSpace=wrap;html=1;aspect=fixed;hachureGap=4;fontFamily=Courier New;fontSize=30;sketch=1;curveFitting=1;jiggle=2;rounded=0;fontStyle=1;fillColor=#f5f5f5;strokeColor=#666666;fontColor=#333333;" vertex="1" parent="1">
          <mxGeometry x="3110" y="215" width="40" height="40" as="geometry" />
        </mxCell>
        <mxCell id="_QYD-WO2QvrmHmzMgkhw-787" value="L" style="whiteSpace=wrap;html=1;aspect=fixed;hachureGap=4;fontFamily=Courier New;fontSize=30;sketch=1;curveFitting=1;jiggle=2;rounded=0;fontStyle=1;fillColor=#f5f5f5;strokeColor=#666666;fontColor=#333333;" vertex="1" parent="1">
          <mxGeometry x="2750" y="280" width="40" height="40" as="geometry" />
        </mxCell>
        <mxCell id="_QYD-WO2QvrmHmzMgkhw-789" value="X" style="whiteSpace=wrap;html=1;aspect=fixed;hachureGap=4;fontFamily=Courier New;fontSize=30;sketch=1;curveFitting=1;jiggle=2;rounded=0;fontStyle=1;fillColor=#f5f5f5;strokeColor=#666666;fontColor=#333333;" vertex="1" parent="1">
          <mxGeometry x="2550" y="280" width="40" height="40" as="geometry" />
        </mxCell>
        <mxCell id="_QYD-WO2QvrmHmzMgkhw-790" value="P0" style="whiteSpace=wrap;html=1;aspect=fixed;hachureGap=4;fontFamily=Courier New;fontSize=30;sketch=1;curveFitting=1;jiggle=2;rounded=0;fontStyle=1;fillColor=#f5f5f5;strokeColor=#666666;fontColor=#333333;" vertex="1" parent="1">
          <mxGeometry x="2390" y="280" width="40" height="40" as="geometry" />
        </mxCell>
        <mxCell id="_QYD-WO2QvrmHmzMgkhw-791" value="A" style="whiteSpace=wrap;html=1;aspect=fixed;hachureGap=4;fontFamily=Courier New;fontSize=30;sketch=1;curveFitting=1;jiggle=2;rounded=0;fontStyle=1;fillColor=#f5f5f5;strokeColor=#666666;fontColor=#333333;" vertex="1" parent="1">
          <mxGeometry x="2630" y="280" width="40" height="40" as="geometry" />
        </mxCell>
        <mxCell id="_QYD-WO2QvrmHmzMgkhw-792" value="M" style="whiteSpace=wrap;html=1;aspect=fixed;hachureGap=4;fontFamily=Courier New;fontSize=30;sketch=1;curveFitting=1;jiggle=2;rounded=0;fontStyle=1;fillColor=#f5f5f5;fontColor=#333333;strokeColor=#666666;" vertex="1" parent="1">
          <mxGeometry x="2670" y="280" width="40" height="40" as="geometry" />
        </mxCell>
        <mxCell id="_QYD-WO2QvrmHmzMgkhw-793" value="P1" style="whiteSpace=wrap;html=1;aspect=fixed;hachureGap=4;fontFamily=Courier New;fontSize=30;sketch=1;curveFitting=1;jiggle=2;rounded=0;fontStyle=1;fillColor=#f5f5f5;strokeColor=#666666;fontColor=#333333;" vertex="1" parent="1">
          <mxGeometry x="2710" y="280" width="40" height="40" as="geometry" />
        </mxCell>
        <mxCell id="_QYD-WO2QvrmHmzMgkhw-795" value="" style="ellipse;whiteSpace=wrap;html=1;aspect=fixed;hachureGap=4;fontFamily=Architects Daughter;fontSource=https%3A%2F%2Ffonts.googleapis.com%2Fcss%3Ffamily%3DArchitects%2BDaughter;fontSize=20;fillColor=none;strokeColor=#00CC00;sketch=1;curveFitting=1;jiggle=2;" vertex="1" parent="1">
          <mxGeometry x="2705" y="275" width="50" height="50" as="geometry" />
        </mxCell>
        <mxCell id="_QYD-WO2QvrmHmzMgkhw-796" value="" style="group;" vertex="1" connectable="0" parent="1">
          <mxGeometry x="2590" y="145" width="30" height="70" as="geometry" />
        </mxCell>
        <mxCell id="_QYD-WO2QvrmHmzMgkhw-797" value="i" style="text;html=1;strokeColor=none;fillColor=none;align=center;verticalAlign=middle;whiteSpace=wrap;rounded=0;fontSize=25;fontFamily=Courier New;fontStyle=1;fontColor=#999999;" vertex="1" parent="_QYD-WO2QvrmHmzMgkhw-796">
          <mxGeometry width="30" height="30" as="geometry" />
        </mxCell>
        <mxCell id="_QYD-WO2QvrmHmzMgkhw-798" value="" style="endArrow=classic;html=1;sketch=1;hachureGap=4;jiggle=2;curveFitting=1;fontFamily=Architects Daughter;fontSource=https%3A%2F%2Ffonts.googleapis.com%2Fcss%3Ffamily%3DArchitects%2BDaughter;fontSize=16;strokeWidth=2;strokeColor=#999999;fillColor=#f5f5f5;" edge="1" parent="_QYD-WO2QvrmHmzMgkhw-796">
          <mxGeometry width="50" height="50" relative="1" as="geometry">
            <mxPoint x="15" y="30" as="sourcePoint" />
            <mxPoint x="14.829999999999984" y="70" as="targetPoint" />
          </mxGeometry>
        </mxCell>
        <mxCell id="_QYD-WO2QvrmHmzMgkhw-799" value="6" style="whiteSpace=wrap;html=1;aspect=fixed;hachureGap=4;fontFamily=Courier New;fontSize=25;sketch=1;curveFitting=1;jiggle=2;rounded=0;fontStyle=1;fillColor=#f5f5f5;strokeColor=#666666;fontColor=#FF0000;" vertex="1" parent="1">
          <mxGeometry x="2590" y="320" width="40" height="40" as="geometry" />
        </mxCell>
        <mxCell id="_QYD-WO2QvrmHmzMgkhw-800" value="7" style="whiteSpace=wrap;html=1;aspect=fixed;hachureGap=4;fontFamily=Courier New;fontSize=25;sketch=1;curveFitting=1;jiggle=2;rounded=0;fontStyle=1;fillColor=#f5f5f5;strokeColor=#666666;fontColor=#333333;" vertex="1" parent="1">
          <mxGeometry x="2630" y="320" width="40" height="40" as="geometry" />
        </mxCell>
        <mxCell id="_QYD-WO2QvrmHmzMgkhw-801" value="0" style="whiteSpace=wrap;html=1;aspect=fixed;hachureGap=4;fontFamily=Courier New;fontSize=25;sketch=1;curveFitting=1;jiggle=2;rounded=0;fontStyle=1;fillColor=#f5f5f5;strokeColor=#666666;fontColor=#333333;" vertex="1" parent="1">
          <mxGeometry x="2350" y="320" width="40" height="40" as="geometry" />
        </mxCell>
        <mxCell id="_QYD-WO2QvrmHmzMgkhw-802" value="1" style="whiteSpace=wrap;html=1;aspect=fixed;hachureGap=4;fontFamily=Courier New;fontSize=25;sketch=1;curveFitting=1;jiggle=2;rounded=0;fontStyle=1;fillColor=#f5f5f5;strokeColor=#666666;fontColor=#00CC00;" vertex="1" parent="1">
          <mxGeometry x="2390" y="320" width="40" height="40" as="geometry" />
        </mxCell>
        <mxCell id="_QYD-WO2QvrmHmzMgkhw-803" value="3" style="whiteSpace=wrap;html=1;aspect=fixed;hachureGap=4;fontFamily=Courier New;fontSize=25;sketch=1;curveFitting=1;jiggle=2;rounded=0;fontStyle=1;fillColor=#f5f5f5;strokeColor=#666666;fontColor=#333333;" vertex="1" parent="1">
          <mxGeometry x="2470" y="320" width="40" height="40" as="geometry" />
        </mxCell>
        <mxCell id="_QYD-WO2QvrmHmzMgkhw-804" value="4" style="whiteSpace=wrap;html=1;aspect=fixed;hachureGap=4;fontFamily=Courier New;fontSize=25;sketch=1;curveFitting=1;jiggle=2;rounded=0;fontStyle=1;fillColor=#f5f5f5;strokeColor=#666666;fontColor=#333333;" vertex="1" parent="1">
          <mxGeometry x="2510" y="320" width="40" height="40" as="geometry" />
        </mxCell>
        <mxCell id="_QYD-WO2QvrmHmzMgkhw-805" value="5" style="whiteSpace=wrap;html=1;aspect=fixed;hachureGap=4;fontFamily=Courier New;fontSize=25;sketch=1;curveFitting=1;jiggle=2;rounded=0;fontStyle=1;fillColor=#f5f5f5;strokeColor=#666666;fontColor=#000000;" vertex="1" parent="1">
          <mxGeometry x="2550" y="320" width="40" height="40" as="geometry" />
        </mxCell>
        <mxCell id="_QYD-WO2QvrmHmzMgkhw-806" value="" style="ellipse;whiteSpace=wrap;html=1;aspect=fixed;hachureGap=4;fontFamily=Architects Daughter;fontSource=https%3A%2F%2Ffonts.googleapis.com%2Fcss%3Ffamily%3DArchitects%2BDaughter;fontSize=20;fillColor=none;strokeColor=#00CC00;sketch=1;curveFitting=1;jiggle=2;" vertex="1" parent="1">
          <mxGeometry x="2385" y="275" width="50" height="50" as="geometry" />
        </mxCell>
        <mxCell id="_QYD-WO2QvrmHmzMgkhw-807" value="L" style="whiteSpace=wrap;html=1;aspect=fixed;hachureGap=4;fontFamily=Courier New;fontSize=30;sketch=1;curveFitting=1;jiggle=2;rounded=0;fontStyle=1;fillColor=#f5f5f5;strokeColor=#666666;fontColor=#333333;" vertex="1" parent="1">
          <mxGeometry x="2830" y="817.5" width="40" height="40" as="geometry" />
        </mxCell>
        <mxCell id="_QYD-WO2QvrmHmzMgkhw-808" value="E" style="whiteSpace=wrap;html=1;aspect=fixed;hachureGap=4;fontFamily=Courier New;fontSize=30;sketch=1;curveFitting=1;jiggle=2;rounded=0;fontStyle=1;fillColor=#f5f5f5;strokeColor=#666666;fontColor=#333333;" vertex="1" parent="1">
          <mxGeometry x="2870" y="817.5" width="40" height="40" as="geometry" />
        </mxCell>
        <mxCell id="_QYD-WO2QvrmHmzMgkhw-809" value="E" style="whiteSpace=wrap;html=1;aspect=fixed;hachureGap=4;fontFamily=Courier New;fontSize=30;sketch=1;curveFitting=1;jiggle=2;rounded=0;fontStyle=1;fillColor=#f5f5f5;strokeColor=#666666;fontColor=#333333;" vertex="1" parent="1">
          <mxGeometry x="2630" y="817.5" width="40" height="40" as="geometry" />
        </mxCell>
        <mxCell id="_QYD-WO2QvrmHmzMgkhw-810" value="P0" style="whiteSpace=wrap;html=1;aspect=fixed;hachureGap=4;fontFamily=Courier New;fontSize=30;sketch=1;curveFitting=1;jiggle=2;rounded=0;fontStyle=1;fillColor=#f5f5f5;strokeColor=#666666;fontColor=#333333;" vertex="1" parent="1">
          <mxGeometry x="2670" y="817.5" width="40" height="40" as="geometry" />
        </mxCell>
        <mxCell id="_QYD-WO2QvrmHmzMgkhw-811" value="A" style="whiteSpace=wrap;html=1;aspect=fixed;hachureGap=4;fontFamily=Courier New;fontSize=30;sketch=1;curveFitting=1;jiggle=2;rounded=0;fontStyle=1;fillColor=#f5f5f5;strokeColor=#666666;fontColor=#333333;" vertex="1" parent="1">
          <mxGeometry x="2710" y="817.5" width="40" height="40" as="geometry" />
        </mxCell>
        <mxCell id="_QYD-WO2QvrmHmzMgkhw-812" value="M" style="whiteSpace=wrap;html=1;aspect=fixed;hachureGap=4;fontFamily=Courier New;fontSize=30;sketch=1;curveFitting=1;jiggle=2;rounded=0;fontStyle=1;fillColor=#f5f5f5;strokeColor=#666666;fontColor=#333333;" vertex="1" parent="1">
          <mxGeometry x="2750" y="817.5" width="40" height="40" as="geometry" />
        </mxCell>
        <mxCell id="_QYD-WO2QvrmHmzMgkhw-813" value="P1" style="whiteSpace=wrap;html=1;aspect=fixed;hachureGap=4;fontFamily=Courier New;fontSize=30;sketch=1;curveFitting=1;jiggle=2;rounded=0;fontStyle=1;fillColor=#f5f5f5;strokeColor=#666666;fontColor=#333333;" vertex="1" parent="1">
          <mxGeometry x="2790" y="817.5" width="40" height="40" as="geometry" />
        </mxCell>
        <mxCell id="_QYD-WO2QvrmHmzMgkhw-814" value="L" style="whiteSpace=wrap;html=1;aspect=fixed;hachureGap=4;fontFamily=Courier New;fontSize=30;sketch=1;curveFitting=1;jiggle=2;rounded=0;fontStyle=1;fillColor=#f5f5f5;strokeColor=#666666;fontColor=#333333;" vertex="1" parent="1">
          <mxGeometry x="2910" y="872.5" width="40" height="40" as="geometry" />
        </mxCell>
        <mxCell id="_QYD-WO2QvrmHmzMgkhw-815" value="E" style="whiteSpace=wrap;html=1;aspect=fixed;hachureGap=4;fontFamily=Courier New;fontSize=30;sketch=1;curveFitting=1;jiggle=2;rounded=0;fontStyle=1;fillColor=#f5f5f5;strokeColor=#666666;fontColor=#333333;" vertex="1" parent="1">
          <mxGeometry x="2950" y="872.5" width="40" height="40" as="geometry" />
        </mxCell>
        <mxCell id="_QYD-WO2QvrmHmzMgkhw-816" value="E" style="whiteSpace=wrap;html=1;aspect=fixed;hachureGap=4;fontFamily=Courier New;fontSize=30;sketch=1;curveFitting=1;jiggle=2;rounded=0;fontStyle=1;fillColor=#f5f5f5;strokeColor=#666666;fontColor=#333333;" vertex="1" parent="1">
          <mxGeometry x="2710" y="872.5" width="40" height="40" as="geometry" />
        </mxCell>
        <mxCell id="_QYD-WO2QvrmHmzMgkhw-817" value="X" style="whiteSpace=wrap;html=1;aspect=fixed;hachureGap=4;fontFamily=Courier New;fontSize=30;sketch=1;curveFitting=1;jiggle=2;rounded=0;fontStyle=1;fillColor=#f5f5f5;strokeColor=#666666;fontColor=#333333;" vertex="1" parent="1">
          <mxGeometry x="2750" y="872.5" width="40" height="40" as="geometry" />
        </mxCell>
        <mxCell id="_QYD-WO2QvrmHmzMgkhw-818" value="P0" style="whiteSpace=wrap;html=1;aspect=fixed;hachureGap=4;fontFamily=Courier New;fontSize=30;sketch=1;curveFitting=1;jiggle=2;rounded=0;fontStyle=1;fillColor=#f5f5f5;strokeColor=#666666;fontColor=#333333;" vertex="1" parent="1">
          <mxGeometry x="2790" y="872.5" width="40" height="40" as="geometry" />
        </mxCell>
        <mxCell id="_QYD-WO2QvrmHmzMgkhw-819" value="M" style="whiteSpace=wrap;html=1;aspect=fixed;hachureGap=4;fontFamily=Courier New;fontSize=30;sketch=1;curveFitting=1;jiggle=2;rounded=0;fontStyle=1;fillColor=#f5f5f5;strokeColor=#666666;fontColor=#333333;" vertex="1" parent="1">
          <mxGeometry x="2830" y="872.5" width="40" height="40" as="geometry" />
        </mxCell>
        <mxCell id="_QYD-WO2QvrmHmzMgkhw-820" value="P1" style="whiteSpace=wrap;html=1;aspect=fixed;hachureGap=4;fontFamily=Courier New;fontSize=30;sketch=1;curveFitting=1;jiggle=2;rounded=0;fontStyle=1;fillColor=#f5f5f5;strokeColor=#666666;fontColor=#333333;" vertex="1" parent="1">
          <mxGeometry x="2870" y="872.5" width="40" height="40" as="geometry" />
        </mxCell>
        <mxCell id="_QYD-WO2QvrmHmzMgkhw-821" value="b1" style="text;html=1;strokeColor=none;fillColor=none;align=center;verticalAlign=middle;whiteSpace=wrap;rounded=0;fontSize=19;fontFamily=Lucida Console;fontColor=default;" vertex="1" parent="1">
          <mxGeometry x="2510" y="822.5" width="40" height="30" as="geometry" />
        </mxCell>
        <mxCell id="_QYD-WO2QvrmHmzMgkhw-822" value="b0" style="text;html=1;strokeColor=none;fillColor=none;align=center;verticalAlign=middle;whiteSpace=wrap;rounded=0;fontSize=19;fontFamily=Lucida Console;fontColor=default;" vertex="1" parent="1">
          <mxGeometry x="2515" y="877.5" width="30" height="30" as="geometry" />
        </mxCell>
        <mxCell id="_QYD-WO2QvrmHmzMgkhw-823" value="" style="ellipse;whiteSpace=wrap;html=1;aspect=fixed;hachureGap=4;fontFamily=Architects Daughter;fontSource=https%3A%2F%2Ffonts.googleapis.com%2Fcss%3Ffamily%3DArchitects%2BDaughter;fontSize=20;fillColor=none;strokeColor=#00CC00;sketch=1;curveFitting=1;jiggle=2;" vertex="1" parent="1">
          <mxGeometry x="2785" y="812.5" width="50" height="50" as="geometry" />
        </mxCell>
        <mxCell id="_QYD-WO2QvrmHmzMgkhw-824" value="" style="ellipse;whiteSpace=wrap;html=1;aspect=fixed;hachureGap=4;fontFamily=Architects Daughter;fontSource=https%3A%2F%2Ffonts.googleapis.com%2Fcss%3Ffamily%3DArchitects%2BDaughter;fontSize=20;fillColor=none;strokeColor=#00CC00;sketch=1;curveFitting=1;jiggle=2;" vertex="1" parent="1">
          <mxGeometry x="2785" y="867.5" width="50" height="50" as="geometry" />
        </mxCell>
        <mxCell id="_QYD-WO2QvrmHmzMgkhw-825" value="" style="endArrow=classic;html=1;sketch=1;hachureGap=4;jiggle=2;curveFitting=1;fontFamily=Helvetica;fontSource=https%3A%2F%2Ffonts.googleapis.com%2Fcss%3Ffamily%3DArchitects%2BDaughter;fontSize=12;fontColor=default;entryX=0;entryY=0.5;entryDx=0;entryDy=0;startArrow=baseDash;startFill=0;" edge="1" parent="1" target="_QYD-WO2QvrmHmzMgkhw-809">
          <mxGeometry width="50" height="50" relative="1" as="geometry">
            <mxPoint x="2550" y="837.5" as="sourcePoint" />
            <mxPoint x="2610" y="837.5" as="targetPoint" />
          </mxGeometry>
        </mxCell>
        <mxCell id="_QYD-WO2QvrmHmzMgkhw-826" value="" style="endArrow=classic;html=1;sketch=1;hachureGap=4;jiggle=2;curveFitting=1;fontFamily=Helvetica;fontSource=https%3A%2F%2Ffonts.googleapis.com%2Fcss%3Ffamily%3DArchitects%2BDaughter;fontSize=12;fontColor=default;entryX=0;entryY=0.5;entryDx=0;entryDy=0;startArrow=baseDash;startFill=0;" edge="1" parent="1" target="_QYD-WO2QvrmHmzMgkhw-816">
          <mxGeometry width="50" height="50" relative="1" as="geometry">
            <mxPoint x="2550" y="892.5" as="sourcePoint" />
            <mxPoint x="2642.5" y="892.16" as="targetPoint" />
          </mxGeometry>
        </mxCell>
        <mxCell id="_QYD-WO2QvrmHmzMgkhw-828" value="&lt;font style=&quot;font-size: 13px;&quot;&gt;2bits&lt;/font&gt;" style="text;html=1;strokeColor=none;fillColor=none;align=center;verticalAlign=middle;whiteSpace=wrap;rounded=0;fontSize=12;fontFamily=Lucida Console;fontColor=default;" vertex="1" parent="1">
          <mxGeometry x="2560" y="812.5" width="60" height="30" as="geometry" />
        </mxCell>
        <mxCell id="_QYD-WO2QvrmHmzMgkhw-829" value="4bits" style="text;html=1;strokeColor=none;fillColor=none;align=center;verticalAlign=middle;whiteSpace=wrap;rounded=0;fontSize=13;fontFamily=Lucida Console;fontColor=default;" vertex="1" parent="1">
          <mxGeometry x="2560" y="867.5" width="60" height="30" as="geometry" />
        </mxCell>
        <mxCell id="_QYD-WO2QvrmHmzMgkhw-830" value="i+2" style="text;html=1;strokeColor=none;fillColor=none;align=center;verticalAlign=middle;whiteSpace=wrap;rounded=0;fontSize=25;fontFamily=Courier New;fontStyle=1;fontColor=#FF0000;" vertex="1" parent="1">
          <mxGeometry x="2855" y="135" width="70" height="30" as="geometry" />
        </mxCell>
        <mxCell id="_QYD-WO2QvrmHmzMgkhw-831" value="" style="endArrow=classic;html=1;sketch=1;hachureGap=4;jiggle=2;curveFitting=1;fontFamily=Architects Daughter;fontSource=https%3A%2F%2Ffonts.googleapis.com%2Fcss%3Ffamily%3DArchitects%2BDaughter;fontSize=16;strokeWidth=2;strokeColor=#FF3333;" edge="1" parent="1">
          <mxGeometry width="50" height="50" relative="1" as="geometry">
            <mxPoint x="2890" y="165" as="sourcePoint" />
            <mxPoint x="2889.83" y="205" as="targetPoint" />
          </mxGeometry>
        </mxCell>
        <mxCell id="_QYD-WO2QvrmHmzMgkhw-834" value="" style="rounded=1;whiteSpace=wrap;html=1;sketch=1;hachureGap=4;jiggle=2;curveFitting=1;fontFamily=Architects Daughter;fontSource=https%3A%2F%2Ffonts.googleapis.com%2Fcss%3Ffamily%3DArchitects%2BDaughter;fontSize=20;fillColor=none;strokeColor=#007FFF;strokeWidth=1;" vertex="1" parent="1">
          <mxGeometry x="2630" y="275" width="160" height="50" as="geometry" />
        </mxCell>
        <mxCell id="_QYD-WO2QvrmHmzMgkhw-835" value="" style="rounded=1;whiteSpace=wrap;html=1;sketch=1;hachureGap=4;jiggle=2;curveFitting=1;fontFamily=Architects Daughter;fontSource=https%3A%2F%2Ffonts.googleapis.com%2Fcss%3Ffamily%3DArchitects%2BDaughter;fontSize=20;fillColor=none;strokeColor=#007FFF;strokeWidth=1;" vertex="1" parent="1">
          <mxGeometry x="2630" y="210" width="160" height="50" as="geometry" />
        </mxCell>
        <mxCell id="_QYD-WO2QvrmHmzMgkhw-836" value="" style="group" vertex="1" connectable="0" parent="1">
          <mxGeometry x="2590" y="360" width="30" height="70" as="geometry" />
        </mxCell>
        <mxCell id="_QYD-WO2QvrmHmzMgkhw-837" value="j" style="text;html=1;strokeColor=none;fillColor=none;align=center;verticalAlign=middle;whiteSpace=wrap;rounded=0;fontSize=25;fontFamily=Courier New;fontStyle=1;fontColor=#999999;" vertex="1" parent="_QYD-WO2QvrmHmzMgkhw-836">
          <mxGeometry y="40" width="30" height="30" as="geometry" />
        </mxCell>
        <mxCell id="_QYD-WO2QvrmHmzMgkhw-838" value="" style="endArrow=classic;html=1;sketch=1;hachureGap=4;jiggle=2;curveFitting=1;fontFamily=Architects Daughter;fontSource=https%3A%2F%2Ffonts.googleapis.com%2Fcss%3Ffamily%3DArchitects%2BDaughter;fontSize=16;strokeWidth=2;strokeColor=#999999;fillColor=#f5f5f5;" edge="1" parent="_QYD-WO2QvrmHmzMgkhw-836">
          <mxGeometry width="50" height="50" relative="1" as="geometry">
            <mxPoint x="15.169999999999959" y="40" as="sourcePoint" />
            <mxPoint x="14.999999999999886" as="targetPoint" />
          </mxGeometry>
        </mxCell>
        <mxCell id="_QYD-WO2QvrmHmzMgkhw-839" value="L" style="whiteSpace=wrap;html=1;aspect=fixed;hachureGap=4;fontFamily=Courier New;fontSize=30;sketch=1;curveFitting=1;jiggle=2;rounded=0;fontStyle=1;fillColor=#f5f5f5;strokeColor=#666666;fontColor=#333333;" vertex="1" parent="1">
          <mxGeometry x="2840" y="750" width="40" height="40" as="geometry" />
        </mxCell>
        <mxCell id="_QYD-WO2QvrmHmzMgkhw-840" value="E" style="whiteSpace=wrap;html=1;aspect=fixed;hachureGap=4;fontFamily=Courier New;fontSize=30;sketch=1;curveFitting=1;jiggle=2;rounded=0;fontStyle=1;fillColor=#f5f5f5;strokeColor=#666666;fontColor=#333333;" vertex="1" parent="1">
          <mxGeometry x="2880" y="750" width="40" height="40" as="geometry" />
        </mxCell>
        <mxCell id="_QYD-WO2QvrmHmzMgkhw-841" value="E" style="whiteSpace=wrap;html=1;aspect=fixed;hachureGap=4;fontFamily=Courier New;fontSize=30;sketch=1;curveFitting=1;jiggle=2;rounded=0;fontStyle=1;fillColor=#f5f5f5;strokeColor=#666666;fontColor=#333333;" vertex="1" parent="1">
          <mxGeometry x="2640" y="750" width="40" height="40" as="geometry" />
        </mxCell>
        <mxCell id="_QYD-WO2QvrmHmzMgkhw-842" value="P0" style="whiteSpace=wrap;html=1;aspect=fixed;hachureGap=4;fontFamily=Courier New;fontSize=30;sketch=1;curveFitting=1;jiggle=2;rounded=0;fontStyle=1;fillColor=#f5f5f5;strokeColor=#666666;fontColor=#333333;" vertex="1" parent="1">
          <mxGeometry x="2680" y="750" width="40" height="40" as="geometry" />
        </mxCell>
        <mxCell id="_QYD-WO2QvrmHmzMgkhw-843" value="A" style="whiteSpace=wrap;html=1;aspect=fixed;hachureGap=4;fontFamily=Courier New;fontSize=30;sketch=1;curveFitting=1;jiggle=2;rounded=0;fontStyle=1;fillColor=#f5f5f5;strokeColor=#666666;fontColor=#333333;" vertex="1" parent="1">
          <mxGeometry x="2720" y="750" width="40" height="40" as="geometry" />
        </mxCell>
        <mxCell id="_QYD-WO2QvrmHmzMgkhw-844" value="M" style="whiteSpace=wrap;html=1;aspect=fixed;hachureGap=4;fontFamily=Courier New;fontSize=30;sketch=1;curveFitting=1;jiggle=2;rounded=0;fontStyle=1;fillColor=#f5f5f5;strokeColor=#666666;fontColor=#333333;" vertex="1" parent="1">
          <mxGeometry x="2760" y="750" width="40" height="40" as="geometry" />
        </mxCell>
        <mxCell id="_QYD-WO2QvrmHmzMgkhw-845" value="P1" style="whiteSpace=wrap;html=1;aspect=fixed;hachureGap=4;fontFamily=Courier New;fontSize=30;sketch=1;curveFitting=1;jiggle=2;rounded=0;fontStyle=1;fillColor=#f5f5f5;strokeColor=#666666;fontColor=#333333;" vertex="1" parent="1">
          <mxGeometry x="2800" y="750" width="40" height="40" as="geometry" />
        </mxCell>
        <mxCell id="_QYD-WO2QvrmHmzMgkhw-848" value="X" style="whiteSpace=wrap;html=1;aspect=fixed;hachureGap=4;fontFamily=Courier New;fontSize=30;sketch=1;curveFitting=1;jiggle=2;rounded=0;fontStyle=1;fillColor=#f5f5f5;strokeColor=#666666;fontColor=#333333;" vertex="1" parent="1">
          <mxGeometry x="2470" y="280" width="40" height="40" as="geometry" />
        </mxCell>
        <mxCell id="_QYD-WO2QvrmHmzMgkhw-849" value="X" style="whiteSpace=wrap;html=1;aspect=fixed;hachureGap=4;fontFamily=Courier New;fontSize=30;sketch=1;curveFitting=1;jiggle=2;rounded=0;fontStyle=1;fillColor=#f5f5f5;strokeColor=#666666;fontColor=#333333;" vertex="1" parent="1">
          <mxGeometry x="2510" y="280" width="40" height="40" as="geometry" />
        </mxCell>
        <mxCell id="_QYD-WO2QvrmHmzMgkhw-850" value="Q" style="whiteSpace=wrap;html=1;aspect=fixed;hachureGap=4;fontFamily=Courier New;fontSize=30;sketch=1;curveFitting=1;jiggle=2;rounded=0;fontStyle=1;fillColor=#f8cecc;strokeColor=#b85450;" vertex="1" parent="1">
          <mxGeometry x="2590" y="280" width="40" height="40" as="geometry" />
        </mxCell>
        <mxCell id="_QYD-WO2QvrmHmzMgkhw-851" value="E" style="whiteSpace=wrap;html=1;aspect=fixed;hachureGap=4;fontFamily=Courier New;fontSize=30;sketch=1;curveFitting=1;jiggle=2;rounded=0;fontStyle=1;fillColor=#f5f5f5;strokeColor=#666666;fontColor=#333333;" vertex="1" parent="1">
          <mxGeometry x="2350" y="280" width="40" height="40" as="geometry" />
        </mxCell>
        <mxCell id="_QYD-WO2QvrmHmzMgkhw-852" value="" style="rounded=1;whiteSpace=wrap;html=1;sketch=1;hachureGap=4;jiggle=2;curveFitting=1;fontFamily=Architects Daughter;fontSource=https%3A%2F%2Ffonts.googleapis.com%2Fcss%3Ffamily%3DArchitects%2BDaughter;fontSize=20;fillColor=none;strokeColor=#FF0000;strokeWidth=1;" vertex="1" parent="1">
          <mxGeometry x="2430" y="275" width="160" height="50" as="geometry" />
        </mxCell>
        <mxCell id="_QYD-WO2QvrmHmzMgkhw-853" value="M" style="whiteSpace=wrap;html=1;aspect=fixed;hachureGap=4;fontFamily=Courier New;fontSize=30;sketch=1;curveFitting=1;jiggle=2;rounded=0;fontStyle=1;fillColor=#f5f5f5;fontColor=#333333;strokeColor=#666666;" vertex="1" parent="1">
          <mxGeometry x="2670" y="215" width="40" height="40" as="geometry" />
        </mxCell>
        <mxCell id="_QYD-WO2QvrmHmzMgkhw-855" value="A" style="whiteSpace=wrap;html=1;aspect=fixed;hachureGap=4;fontFamily=Courier New;fontSize=30;sketch=1;curveFitting=1;jiggle=2;rounded=0;fontStyle=1;fillColor=#f5f5f5;strokeColor=#666666;fontColor=#333333;" vertex="1" parent="1">
          <mxGeometry x="2630" y="215" width="40" height="40" as="geometry" />
        </mxCell>
        <mxCell id="_QYD-WO2QvrmHmzMgkhw-856" value="P" style="whiteSpace=wrap;html=1;aspect=fixed;hachureGap=4;fontFamily=Courier New;fontSize=30;sketch=1;curveFitting=1;jiggle=2;rounded=0;fontStyle=1;fillColor=#f8cecc;strokeColor=#b85450;" vertex="1" parent="1">
          <mxGeometry x="2590" y="215" width="40" height="40" as="geometry" />
        </mxCell>
        <mxCell id="_QYD-WO2QvrmHmzMgkhw-857" value="8" style="whiteSpace=wrap;html=1;aspect=fixed;hachureGap=4;fontFamily=Courier New;fontSize=25;sketch=1;curveFitting=1;jiggle=2;rounded=0;fontStyle=1;fillColor=#f5f5f5;strokeColor=#666666;fontColor=#333333;" vertex="1" parent="1">
          <mxGeometry x="2670" y="320" width="40" height="40" as="geometry" />
        </mxCell>
        <mxCell id="_QYD-WO2QvrmHmzMgkhw-858" value="9" style="whiteSpace=wrap;html=1;aspect=fixed;hachureGap=4;fontFamily=Courier New;fontSize=25;sketch=1;curveFitting=1;jiggle=2;rounded=0;fontStyle=1;fillColor=#f5f5f5;strokeColor=#666666;fontColor=#00CC00;" vertex="1" parent="1">
          <mxGeometry x="2710" y="320" width="40" height="40" as="geometry" />
        </mxCell>
        <mxCell id="_QYD-WO2QvrmHmzMgkhw-859" value="10" style="whiteSpace=wrap;html=1;aspect=fixed;hachureGap=4;fontFamily=Courier New;fontSize=25;sketch=1;curveFitting=1;jiggle=2;rounded=0;fontStyle=1;fillColor=#f5f5f5;strokeColor=#666666;fontColor=#333333;" vertex="1" parent="1">
          <mxGeometry x="2750" y="320" width="40" height="40" as="geometry" />
        </mxCell>
        <mxCell id="_QYD-WO2QvrmHmzMgkhw-863" value="2" style="whiteSpace=wrap;html=1;aspect=fixed;hachureGap=4;fontFamily=Courier New;fontSize=25;sketch=1;curveFitting=1;jiggle=2;rounded=0;fontStyle=1;fillColor=#f5f5f5;strokeColor=#666666;fontColor=#333333;" vertex="1" parent="1">
          <mxGeometry x="2430" y="320" width="40" height="40" as="geometry" />
        </mxCell>
        <mxCell id="_QYD-WO2QvrmHmzMgkhw-864" value="X" style="whiteSpace=wrap;html=1;aspect=fixed;hachureGap=4;fontFamily=Courier New;fontSize=30;sketch=1;curveFitting=1;jiggle=2;rounded=0;fontStyle=1;fillColor=#f5f5f5;strokeColor=#666666;fontColor=#333333;" vertex="1" parent="1">
          <mxGeometry x="2430" y="280" width="40" height="40" as="geometry" />
        </mxCell>
        <mxCell id="_QYD-WO2QvrmHmzMgkhw-897" value="L" style="whiteSpace=wrap;html=1;aspect=fixed;hachureGap=4;fontFamily=Courier New;fontSize=30;sketch=1;curveFitting=1;jiggle=2;rounded=0;fontStyle=1;fillColor=#f5f5f5;strokeColor=#666666;fontColor=#333333;" vertex="1" parent="1">
          <mxGeometry x="3030" y="370" width="40" height="40" as="geometry" />
        </mxCell>
        <mxCell id="_QYD-WO2QvrmHmzMgkhw-898" value="X" style="whiteSpace=wrap;html=1;aspect=fixed;hachureGap=4;fontFamily=Courier New;fontSize=30;sketch=1;curveFitting=1;jiggle=2;rounded=0;fontStyle=1;fillColor=#f5f5f5;strokeColor=#666666;fontColor=#333333;" vertex="1" parent="1">
          <mxGeometry x="2830" y="370" width="40" height="40" as="geometry" />
        </mxCell>
        <mxCell id="_QYD-WO2QvrmHmzMgkhw-899" value="P0" style="whiteSpace=wrap;html=1;aspect=fixed;hachureGap=4;fontFamily=Courier New;fontSize=30;sketch=1;curveFitting=1;jiggle=2;rounded=0;fontStyle=1;fillColor=#f5f5f5;strokeColor=#666666;fontColor=#333333;" vertex="1" parent="1">
          <mxGeometry x="2670" y="370" width="40" height="40" as="geometry" />
        </mxCell>
        <mxCell id="_QYD-WO2QvrmHmzMgkhw-900" value="A" style="whiteSpace=wrap;html=1;aspect=fixed;hachureGap=4;fontFamily=Courier New;fontSize=30;sketch=1;curveFitting=1;jiggle=2;rounded=0;fontStyle=1;fillColor=#f5f5f5;strokeColor=#666666;fontColor=#333333;" vertex="1" parent="1">
          <mxGeometry x="2910" y="370" width="40" height="40" as="geometry" />
        </mxCell>
        <mxCell id="_QYD-WO2QvrmHmzMgkhw-901" value="M" style="whiteSpace=wrap;html=1;aspect=fixed;hachureGap=4;fontFamily=Courier New;fontSize=30;sketch=1;curveFitting=1;jiggle=2;rounded=0;fontStyle=1;fillColor=#f5f5f5;fontColor=#333333;strokeColor=#666666;" vertex="1" parent="1">
          <mxGeometry x="2950" y="370" width="40" height="40" as="geometry" />
        </mxCell>
        <mxCell id="_QYD-WO2QvrmHmzMgkhw-902" value="P1" style="whiteSpace=wrap;html=1;aspect=fixed;hachureGap=4;fontFamily=Courier New;fontSize=30;sketch=1;curveFitting=1;jiggle=2;rounded=0;fontStyle=1;fillColor=#f5f5f5;strokeColor=#666666;fontColor=#333333;" vertex="1" parent="1">
          <mxGeometry x="2990" y="370" width="40" height="40" as="geometry" />
        </mxCell>
        <mxCell id="_QYD-WO2QvrmHmzMgkhw-903" value="" style="ellipse;whiteSpace=wrap;html=1;aspect=fixed;hachureGap=4;fontFamily=Architects Daughter;fontSource=https%3A%2F%2Ffonts.googleapis.com%2Fcss%3Ffamily%3DArchitects%2BDaughter;fontSize=20;fillColor=none;strokeColor=#00CC00;sketch=1;curveFitting=1;jiggle=2;" vertex="1" parent="1">
          <mxGeometry x="2985" y="365" width="50" height="50" as="geometry" />
        </mxCell>
        <mxCell id="_QYD-WO2QvrmHmzMgkhw-904" value="" style="ellipse;whiteSpace=wrap;html=1;aspect=fixed;hachureGap=4;fontFamily=Architects Daughter;fontSource=https%3A%2F%2Ffonts.googleapis.com%2Fcss%3Ffamily%3DArchitects%2BDaughter;fontSize=20;fillColor=none;strokeColor=#00CC00;sketch=1;curveFitting=1;jiggle=2;" vertex="1" parent="1">
          <mxGeometry x="2665" y="365" width="50" height="50" as="geometry" />
        </mxCell>
        <mxCell id="_QYD-WO2QvrmHmzMgkhw-905" value="" style="rounded=1;whiteSpace=wrap;html=1;sketch=1;hachureGap=4;jiggle=2;curveFitting=1;fontFamily=Architects Daughter;fontSource=https%3A%2F%2Ffonts.googleapis.com%2Fcss%3Ffamily%3DArchitects%2BDaughter;fontSize=20;fillColor=none;strokeColor=#007FFF;strokeWidth=1;" vertex="1" parent="1">
          <mxGeometry x="2910" y="365" width="160" height="50" as="geometry" />
        </mxCell>
        <mxCell id="_QYD-WO2QvrmHmzMgkhw-906" value="X" style="whiteSpace=wrap;html=1;aspect=fixed;hachureGap=4;fontFamily=Courier New;fontSize=30;sketch=1;curveFitting=1;jiggle=2;rounded=0;fontStyle=1;fillColor=#f5f5f5;strokeColor=#666666;fontColor=#333333;" vertex="1" parent="1">
          <mxGeometry x="2750" y="370" width="40" height="40" as="geometry" />
        </mxCell>
        <mxCell id="_QYD-WO2QvrmHmzMgkhw-907" value="X" style="whiteSpace=wrap;html=1;aspect=fixed;hachureGap=4;fontFamily=Courier New;fontSize=30;sketch=1;curveFitting=1;jiggle=2;rounded=0;fontStyle=1;fillColor=#f5f5f5;strokeColor=#666666;fontColor=#333333;" vertex="1" parent="1">
          <mxGeometry x="2790" y="370" width="40" height="40" as="geometry" />
        </mxCell>
        <mxCell id="_QYD-WO2QvrmHmzMgkhw-908" value="Q" style="whiteSpace=wrap;html=1;aspect=fixed;hachureGap=4;fontFamily=Courier New;fontSize=30;sketch=1;curveFitting=1;jiggle=2;rounded=0;fontStyle=1;fillColor=#f8cecc;strokeColor=#b85450;" vertex="1" parent="1">
          <mxGeometry x="2870" y="370" width="40" height="40" as="geometry" />
        </mxCell>
        <mxCell id="_QYD-WO2QvrmHmzMgkhw-909" value="E" style="whiteSpace=wrap;html=1;aspect=fixed;hachureGap=4;fontFamily=Courier New;fontSize=30;sketch=1;curveFitting=1;jiggle=2;rounded=0;fontStyle=1;fillColor=#f5f5f5;strokeColor=#666666;fontColor=#333333;" vertex="1" parent="1">
          <mxGeometry x="2630" y="370" width="40" height="40" as="geometry" />
        </mxCell>
        <mxCell id="_QYD-WO2QvrmHmzMgkhw-910" value="" style="rounded=1;whiteSpace=wrap;html=1;sketch=1;hachureGap=4;jiggle=2;curveFitting=1;fontFamily=Architects Daughter;fontSource=https%3A%2F%2Ffonts.googleapis.com%2Fcss%3Ffamily%3DArchitects%2BDaughter;fontSize=20;fillColor=none;strokeColor=#FF0000;strokeWidth=1;" vertex="1" parent="1">
          <mxGeometry x="2710" y="365" width="160" height="50" as="geometry" />
        </mxCell>
        <mxCell id="_QYD-WO2QvrmHmzMgkhw-911" value="X" style="whiteSpace=wrap;html=1;aspect=fixed;hachureGap=4;fontFamily=Courier New;fontSize=30;sketch=1;curveFitting=1;jiggle=2;rounded=0;fontStyle=1;fillColor=#f5f5f5;strokeColor=#666666;fontColor=#333333;" vertex="1" parent="1">
          <mxGeometry x="2710" y="370" width="40" height="40" as="geometry" />
        </mxCell>
        <mxCell id="_QYD-WO2QvrmHmzMgkhw-913" value="j" style="text;html=1;strokeColor=none;fillColor=none;align=center;verticalAlign=middle;whiteSpace=wrap;rounded=0;fontSize=25;fontFamily=Courier New;fontStyle=1;fontColor=#FF0000;" vertex="1" parent="1">
          <mxGeometry x="1605" y="120" width="35" height="30" as="geometry" />
        </mxCell>
        <mxCell id="_QYD-WO2QvrmHmzMgkhw-914" value="" style="endArrow=classic;html=1;sketch=1;hachureGap=4;jiggle=2;curveFitting=1;fontFamily=Architects Daughter;fontSource=https%3A%2F%2Ffonts.googleapis.com%2Fcss%3Ffamily%3DArchitects%2BDaughter;fontSize=16;strokeWidth=2;strokeColor=#FF3333;" edge="1" parent="1">
          <mxGeometry width="50" height="50" relative="1" as="geometry">
            <mxPoint x="1622.5" y="150" as="sourcePoint" />
            <mxPoint x="1622.33" y="190" as="targetPoint" />
          </mxGeometry>
        </mxCell>
      </root>
    </mxGraphModel>
  </diagram>
</mxfile>
